<?xml version="1.0" standalone="no"?>
<!DOCTYPE svg PUBLIC "-//W3C//DTD SVG 1.1//EN" "http://www.w3.org/Graphics/SVG/1.1/DTD/svg11.dtd" >
<svg xmlns="http://www.w3.org/2000/svg">
<metadata>
Created by FontPrep 20130207 at Tue Apr 29 16:03:25 2014
 By FuturaBit
Copyright (c) 2012 by Hannes von Doehren. All rights reserved.
</metadata>
<defs>
<font id="209a8c9e59efad64ce8807be31e0570e" horiz-adv-x='1024' >
  <font-face 
    font-family="BrandonText-RegularItalic"
    font-weight="390"
    font-style="italic"
    font-stretch="normal"
    units-per-em="2048"
    panose-1="2 11 5 3 2 2 3 13 2 3"
    ascent="1434"
    descent="-614"
    x-height="946"
    cap-height="1434"
    bbox="-161 -512 1817.38 1999"
    underline-thickness="102"
    underline-position="-102"
    slope="-8"
    unicode-range="U+000D-FB04"
  />
<missing-glyph horiz-adv-x="748" 
d="M136 68h408v1229h-408v-1229zM68 0v1365h544v-1365h-544z" />
    <glyph glyph-name="uniFB01" unicode="fi" horiz-adv-x="1124" 
d="M131 813q-18 0 -27 13t-6 32l6 43q3 20 16.5 32.5t31.5 12.5h124l13 78q67 430 383 430q176 0 305 -108q26 -19 2 -54l-35 -49q-16 -19 -28 -18t-40 21t-46.5 32t-62.5 26.5t-93 14.5q-103 0 -157 -78.5t-77 -216.5l-12 -78h547q17 0 28.5 -14t8.5 -31l-121 -856
q-3 -18 -17.5 -31.5t-29.5 -13.5h-70q-16 0 -27 13.5t-8 31.5l109 768h-438l-168 -1253q-3 -19 -17.5 -33t-29.5 -14h-74q-17 0 -26.5 14t-6.5 33l170 1253h-127z" />
    <glyph glyph-name="uniFB02" unicode="fl" horiz-adv-x="1161" 
d="M131 813q-18 0 -27 13t-6 32l6 43q1 19 15.5 32t30.5 13h126l21 125q37 238 160.5 310.5t228.5 72.5q106 0 176 -39.5t101 -77.5l30 76q8 21 37 21h43q14 0 23 -13.5t8 -31.5l-189 -1344q-1 -19 -15.5 -32t-31.5 -13h-71q-15 0 -24.5 13t-8.5 32l160 1133
q-28 56 -89.5 98.5t-138.5 42.5q-205 0 -245 -248l-21 -125h244q37 0 35 -45l-9 -43q-3 -19 -16 -32t-31 -13h-243l-168 -1253q-3 -19 -17.5 -33t-29.5 -14h-74q-17 0 -26.5 14t-6.5 33l170 1253h-127z" />
    <glyph glyph-name=".notdef" horiz-adv-x="748" 
d="M136 68h408v1229h-408v-1229zM68 0v1365h544v-1365h-544z" />
    <glyph glyph-name="glyph1" horiz-adv-x="0" 
 />
    <glyph glyph-name="glyph1" horiz-adv-x="0" 
 />
    <glyph glyph-name="glyph2" horiz-adv-x="682" 
 />
    <glyph glyph-name="uni000D" unicode="&#xd;" horiz-adv-x="0" 
 />
    <glyph glyph-name="space" unicode=" " horiz-adv-x="491" 
 />
    <glyph glyph-name="exclam" unicode="!" horiz-adv-x="524" 
d="M326 1434h110q13 0 23 -12t8 -27l-33 -230l-123 -575q-3 -12 -15 -22.5t-24 -10.5h-28q-12 0 -21.5 10.5t-9.5 22.5l41 571l33 234q1 15 13 27t26 12zM80 88q0 48 39 86.5t85 38.5t74.5 -29.5t28.5 -77.5t-39 -87t-86 -39t-74.5 30t-27.5 78z" />
    <glyph glyph-name="quotedbl" unicode="&#x22;" horiz-adv-x="665" 
d="M567 1434h76q19 0 27.5 -15t-0.5 -37l-101 -325q-4 -12 -16 -21.5t-23 -9.5h-20q-14 0 -23 12t-6 27l45 330q3 15 15.5 27t25.5 12zM283 1434h77q18 0 25.5 -15t-0.5 -37l-100 -325q-4 -12 -16 -21.5t-21 -9.5h-23q-13 0 -21.5 12t-6.5 27l47 330q2 15 14 27t25 12z" />
    <glyph glyph-name="numbersign" unicode="#" horiz-adv-x="1064" 
d="M356 492h283l92 350h-280zM129 492h143l93 350h-132q-13 0 -22.5 12t-6.5 35q4 22 16 33.5t26 11.5h143l125 467q3 12 14 22.5t23 10.5h16q15 0 23 -13t4 -32l-119 -455h281l121 467q3 12 16 22.5t25 10.5h12q17 0 25.5 -13t2.5 -32l-118 -455h127q33 0 27 -46t-38 -46
h-141l-92 -350h129q34 0 28 -46t-38 -47h-146l-98 -366q-3 -13 -15 -23t-26 -10h-12q-17 0 -25.5 13t-3.5 32l96 354h-282l-99 -366q-3 -13 -14.5 -23t-23.5 -10h-13q-18 0 -25.5 13t-2.5 32l94 354h-129q-34 0 -29 47q3 24 15 35t26 11z" />
    <glyph glyph-name="dollar" unicode="$" 
d="M829 356q0 81 -40.5 137t-124.5 113l-70 -487q95 11 165 83.5t70 153.5zM444 1040q0 -116 168 -217l70 492q-115 -14 -176.5 -96.5t-61.5 -178.5zM750 1556h14q14 0 23 -10.5t6 -27.5l-11 -66q151 -13 269 -102q36 -31 2 -70l-31 -35q-37 -43 -68 -18q-93 73 -190 86
l-76 -535q145 -81 205 -145t82 -122.5t22 -129.5q0 -167 -118 -279.5t-306 -121.5l-28 -211q-6 -37 -45 -37q-15 0 -26.5 10t-10.5 27l31 215q-169 17 -250 94t-89.5 95t15.5 42l41 43q21 21 33.5 24t31.5 -14q101 -129 236 -149l76 528q-205 142 -252 220t-47 151
q0 74 21.5 159.5t120.5 176t269 98.5l11 66q1 17 13 27.5t26 10.5z" />
    <glyph glyph-name="percent" unicode="%" horiz-adv-x="1267" 
d="M745 238q0 -66 32.5 -104t88.5 -38t103 53t47 118t-32 105t-87 40t-103.5 -54t-48.5 -120zM631 234q0 114 84 206t207 92q89 0 151 -70t62 -184t-86.5 -206t-204.5 -92q-86 0 -149.5 70t-63.5 184zM289 1160q0 -66 31.5 -104t87.5 -38t103.5 53t47.5 118t-31.5 104.5
t-87.5 39.5t-103.5 -53.5t-47.5 -119.5zM1036 1434h49q20 0 27.5 -18t-4.5 -38l-827 -1358q-10 -20 -33 -20h-45q-20 0 -27.5 17.5t4.5 37.5l824 1358q12 21 32 21zM174 1156q0 114 84 206t207 92q89 0 151 -70t62 -184t-86.5 -206.5t-204.5 -92.5q-86 0 -149.5 70.5
t-63.5 184.5z" />
    <glyph glyph-name="ampersand" unicode="&#x26;" horiz-adv-x="1257" 
d="M432 1083q0 -91 78 -196l35 -45q9 6 41 27t50 34t56 42.5t78.5 87.5t40.5 128t-42.5 121t-125.5 51t-147 -79.5t-64 -170.5zM449 115q131 0 212 67.5t96 85.5l15 17l-270 389q-142 -98 -197 -178t-55 -175t53.5 -150.5t145.5 -55.5zM297 1062q0 110 45 196t131 141
t204 55t197.5 -79.5t79.5 -187.5t-45 -178t-76.5 -100.5t-47.5 -45.5t-46 -37t-43.5 -32t-43 -30t-36.5 -25l238 -327q92 152 129 366q4 28 12.5 34.5t32.5 6.5h68q32 0 26 -47q-17 -117 -66.5 -247t-109.5 -220l150 -192q12 -18 16.5 -29t-1.5 -30t-32 -36l-26 -20
q-48 -33 -76 8l-123 168q-105 -120 -228 -157t-192 -37q-142 0 -236 95.5t-94 223.5t54 211t87 115t48 46t48.5 39.5t43 32t39.5 27.5l-39 53q-88 129 -88 239z" />
    <glyph glyph-name="quotesingle" unicode="'" horiz-adv-x="378" 
d="M283 1434h77q17 0 24 -14.5t1 -37.5l-100 -325q-4 -12 -16 -21.5t-21 -9.5h-23q-13 0 -21.5 12t-6.5 27l47 330q2 15 14 27t25 12z" />
    <glyph glyph-name="parenleft" unicode="(" horiz-adv-x="667" 
d="M115 460q0 185 49 431.5t199 398.5t323 160q31 3 31 -20l-4 -56q0 -13 -8 -23t-17 -12q-430 -95 -430 -917q0 -416 236 -471q23 -5 14 -35l-12 -55q-6 -25 -53 -21t-105 37.5t-109.5 99.5t-82.5 182t-31 301z" />
    <glyph glyph-name="parenright" unicode=")" horiz-adv-x="667" 
d="M428 868q0 196 -58 319.5t-177 151.5q-9 2 -14 12t-1 23l12 56q6 23 46 20t114 -34.5t147.5 -170t73.5 -369.5t-49 -477.5t-199 -398.5t-323 -160q-31 -3 -31 21l4 55q0 30 25 35q430 96 430 917z" />
    <glyph glyph-name="asterisk" unicode="*" horiz-adv-x="798" 
d="M500 1434h32q14 0 23 -11t6 -26l-26 -174l143 106q28 16 49 -12l12 -25q15 -30 -16 -55l-164 -102l135 -103q10 -10 10.5 -26.5t-8.5 -28.5l-18 -25q-10 -13 -27 -17t-26 5l-117 104l-21 -172q-1 -15 -13 -26.5t-25 -11.5h-33q-15 0 -23.5 11.5t-5.5 26.5l27 175
l-144 -103q-24 -18 -47 12l-14 23q-19 34 20 57l158 99l-135 98q-24 21 0 55l20 29q11 16 26.5 17t23.5 -9l118 -104l21 176q1 15 13 26t26 11z" />
    <glyph glyph-name="plus" unicode="+" 
d="M289 778h286l46 324q1 15 14 26t27 11h63q13 0 22 -11t7 -26l-45 -324h286q13 0 22 -12t7 -27l-8 -57q-2 -15 -14 -27t-25 -12h-287l-45 -321q-1 -15 -14 -26t-27 -11h-63q-14 0 -23 11t-8 26l47 321h-287q-13 0 -21.5 12t-6.5 27l8 57q2 15 14 27t25 12z" />
    <glyph glyph-name="comma" unicode="," horiz-adv-x="485" 
d="M132 0q-85 0 -85 96q0 44 36.5 86.5t96.5 42.5t92.5 -47t32.5 -123q0 -220 -192 -397q-19 -19 -33 -2l-33 35q-14 17 6 37q152 143 152 262q0 14 -2 28q-29 -18 -71 -18z" />
    <glyph glyph-name="hyphen" unicode="-" horiz-adv-x="743" 
d="M174 565h391q15 0 23.5 -11t5.5 -28l-6 -39q-3 -15 -14.5 -25.5t-26.5 -10.5h-389q-15 0 -24.5 10.5t-6.5 25.5l6 39q3 17 14.5 28t26.5 11z" />
    <glyph glyph-name="period" unicode="." horiz-adv-x="485" 
d="M47 102q0 56 45.5 100t99.5 44t85.5 -34t31.5 -90t-44.5 -100.5t-98.5 -44.5t-86.5 34.5t-32.5 90.5z" />
    <glyph glyph-name="slash" unicode="/" horiz-adv-x="731" 
d="M639 1434h55q20 0 27.5 -15t-0.5 -37l-551 -1355q-12 -27 -37 -27h-57q-19 0 -26.5 14.5t-0.5 36.5l553 1356q12 27 37 27z" />
    <glyph glyph-name="zero" unicode="0" horiz-adv-x="1239" 
d="M322 539q0 -420 238 -420q122 0 259 148.5t137 631.5q0 418 -233 418q-125 0 -263 -148.5t-138 -629.5zM158 546q0 264 69 471t202.5 322t311.5 115t278.5 -148t100.5 -413t-67.5 -472.5t-200 -323t-312.5 -115.5t-281 150t-101 414z" />
    <glyph glyph-name="one" unicode="1" horiz-adv-x="675" 
d="M502 1434h45q13 0 21.5 -12t6.5 -27l-192 -1354q-1 -17 -13 -29t-26 -12h-82q-17 0 -26 11.5t-7 29.5l160 1128h-6l-170 -127q-29 -22 -41 2l-31 50q-9 17 6 32l320 293q15 15 35 15z" />
    <glyph glyph-name="two" unicode="2" horiz-adv-x="1052" 
d="M823 1081q0 88 -50.5 159t-174.5 71t-279 -160q-25 -25 -49 0l-41 41q-9 9 -8 26t12 29q185 207 394 207q170 0 265 -100.5t95 -261.5t-93 -285t-204 -238l-418 -428v-4h537q15 0 24.5 -12t8.5 -29l-8 -55q-1 -17 -15 -29t-28 -12h-725q-17 0 -25.5 11.5t-5.5 29.5l6 41
q3 22 16 35l529 540q237 246 237 424z" />
    <glyph glyph-name="three" unicode="3" horiz-adv-x="1077" 
d="M743 388q0 120 -72 190.5t-216 70.5h-105q-36 0 -31 47l7 52q5 45 47 45h106q155 0 241.5 84t86.5 198t-59.5 177t-143.5 63t-144.5 -36t-113.5 -101q-26 -29 -51 -4l-49 38q-26 31 31.5 87.5t125.5 105.5t216 49t250 -95t102 -255q0 -83 -60 -198t-188 -179v-6
q67 -33 125.5 -115.5t58.5 -183.5q0 -188 -132.5 -315t-358.5 -127t-353 186q-9 12 -5 27t16 24l59 43q16 10 25 7t27 -24q39 -46 96 -89t170 -43t202.5 78.5t89.5 198.5z" />
    <glyph glyph-name="four" unicode="4" horiz-adv-x="1191" 
d="M236 455h501l105 725h-6l-600 -717v-8zM985 1454q14 0 23 -12t6 -29l-133 -958h153q36 0 31 -37l-6 -53q-1 -15 -14.5 -27t-28.5 -12h-152l-41 -285q-3 -17 -15 -29t-26 -12h-80q-15 0 -24 12t-6 29l41 285h-641q-17 0 -26 11.5t-7 27.5l8 57q3 21 16 37l824 968
q22 27 55 27h43z" />
    <glyph glyph-name="five" unicode="5" horiz-adv-x="1083" 
d="M799 510q0 110 -62.5 182t-183.5 72h-291q-27 0 -39.5 22.5t-9.5 51.5l80 557q2 16 13 27.5t28 11.5h577q15 0 24.5 -12t6.5 -27l-10 -62q-7 -41 -41 -41h-471l-55 -387h210q181 0 281 -97.5t100 -261.5t-65 -291.5t-183.5 -201t-283.5 -73.5t-255 90t-89 114t22 41
l52 41q29 25 51 -7q39 -60 94 -102t156 -42q146 0 245 118t99 277z" />
    <glyph glyph-name="six" unicode="6" horiz-adv-x="1110" 
d="M276 470q0 -153 56 -252t183 -99q128 0 227.5 114.5t99.5 250.5t-67 217t-169 81q-135 0 -170 -28l-135 -109q-25 -93 -25 -175zM127 470q0 118 31.5 241t81 215.5t144.5 204.5t238 201t267 136q31 11 41 -20l18 -57q14 -44 -41 -62q-85 -29 -180 -92.5t-160 -119.5
t-124.5 -133.5t-88.5 -158.5q1 0 28 16.5t103.5 47.5t159.5 31q146 0 246 -109t100 -269t-68 -287.5t-182.5 -201t-226.5 -73.5t-184 37t-115.5 102.5t-65.5 149t-22 201.5z" />
    <glyph glyph-name="seven" unicode="7" horiz-adv-x="962" 
d="M815 1292h-606q-15 0 -24 12.5t-7 28.5l8 62q1 15 15 27t28 12h766q13 0 22 -10t9 -24t-18 -50l-748 -1317q-11 -22 -20 -27.5t-27 -5.5h-78q-43 0 -16 57l696 1229v6z" />
    <glyph glyph-name="eight" unicode="8" horiz-adv-x="1150" 
d="M401 1026q0 -88 51.5 -144.5t155.5 -68.5q138 14 208.5 92.5t70.5 188.5t-59 171.5t-162 61.5t-184 -85.5t-81 -215.5zM274 343q0 -110 66 -174.5t182 -64.5t206.5 82.5t90.5 216.5q0 92 -61.5 165.5t-169.5 86.5q-141 -17 -227.5 -109.5t-86.5 -202.5zM113 332
q0 77 30 148t98.5 144t155.5 113v8q-59 33 -106 110.5t-47 172.5q0 185 132 305.5t306 120.5t269.5 -91.5t95.5 -240.5q0 -193 -102.5 -275.5t-143.5 -101.5l-2 -8q68 -33 126 -118t58 -184q0 -193 -136.5 -324t-357.5 -131q-175 0 -275.5 99t-100.5 253z" />
    <glyph glyph-name="nine" unicode="9" horiz-adv-x="1110" 
d="M309 954q0 -136 65.5 -217.5t166.5 -81.5q142 0 293 124l16 14q24 85 24 169q0 153 -55.5 253t-184.5 100q-128 0 -226.5 -112.5t-98.5 -248.5zM795 614q-163 -96 -296 -96t-237 108.5t-104 282.5q0 113 40 215t107 174t158 114t190 42q177 0 273 -131t96 -336
q0 -376 -217.5 -632.5t-546.5 -385.5q-28 -11 -39 23l-18 57q-14 42 41 60q86 32 180 95t158.5 118.5t124.5 133t90 158.5z" />
    <glyph glyph-name="colon" unicode=":" horiz-adv-x="540" 
d="M176 822q0 56 45 100.5t97 44.5t83 -34.5t31 -89.5t-43.5 -101t-96.5 -46t-84.5 35t-31.5 91zM76 102q0 56 44 100t96 44t84 -34t32 -89t-45 -100.5t-97 -45.5t-83 34.5t-31 90.5z" />
    <glyph glyph-name="semicolon" unicode=";" horiz-adv-x="552" 
d="M172 822q0 55 45 100t97 45t83 -34.5t31 -89.5t-44 -101t-96 -46t-84 35.5t-32 90.5zM90 96q0 44 36 86.5t96 42.5t93 -47t33 -123q0 -223 -192 -397q-19 -19 -33 -2l-33 35q-14 17 6 37q148 140 148 262q0 14 -2 28q-29 -18 -69 -18t-61.5 26t-21.5 70z" />
    <glyph glyph-name="less" unicode="&#x3c;" 
d="M219 465l2 14q2 16 25 31l688 434q24 14 42 4t15 -37l-10 -80q-3 -21 -31 -38l-528 -330l438 -313q24 -14 19 -39l-13 -78q-2 -24 -24 -30t-39 7l-567 420q-20 16 -17 35z" />
    <glyph glyph-name="equal" unicode="=" 
d="M373 858h559q15 0 23.5 -12t5.5 -27l-9 -61q-2 -15 -14 -27t-27 -12h-559q-13 0 -21.5 12t-6.5 27l8 61q3 16 14.5 27.5t26.5 11.5zM311 428h559q15 0 24 -12t7 -27l-10 -63q-2 -15 -13 -27t-26 -12h-559q-15 0 -24 12t-7 27l10 63q2 15 14 27t25 12z" />
    <glyph glyph-name="greater" unicode="&#x3e;" 
d="M207 41l10 80q2 24 29 39l530 317l-438 330q-23 19 -21 39l11 65q5 26 26 37t41 -4l566 -434q19 -16 16 -31l-2 -16q-2 -17 -27 -33l-686 -420q-23 -14 -41 -4t-14 35z" />
    <glyph glyph-name="question" unicode="?" horiz-adv-x="897" 
d="M246 88q0 48 39.5 86.5t86.5 38.5t74 -29.5t27 -77.5t-38.5 -87t-85.5 -39t-75 30t-28 78zM567 1454q126 0 206.5 -75t80.5 -179t-27 -149.5t-43 -68.5t-54.5 -57.5t-83.5 -67.5q-71 -53 -106.5 -87.5t-43.5 -87.5l-13 -84q-6 -41 -43 -41h-67q-31 0 -29 39l12 86
q8 61 28 93t37.5 59t76.5 71q58 44 86.5 66t56.5 46t48 63t20 99q0 59 -45.5 103.5t-120.5 44.5q-114 0 -164.5 -48.5t-70 -69.5t-23.5 -25q-23 -23 -47 -2l-37 30q-42 37 69 139.5t297 102.5z" />
    <glyph glyph-name="at" unicode="@" horiz-adv-x="1853" 
d="M694 381q0 -99 43 -154t116 -55t140 74t84 143l37 252q-3 13 -37 68t-130 55t-174.5 -104t-78.5 -279zM963 901q110 0 192 -92l14 41q7 21 14.5 26t28.5 5h39q12 0 21 -12t8 -27l-59 -436q-34 -246 97 -246q64 0 145 62t132.5 235.5t51.5 310.5q0 264 -140.5 417.5
t-423.5 153.5q-156 0 -353 -82.5t-351 -355t-154 -592.5q0 -228 102 -395t279 -256q33 -19 15 -51l-29 -56q-19 -32 -47 -16q-208 105 -328.5 301t-120.5 459q0 367 175 670.5t407 396t418 92.5q318 0 499 -182t181 -488q0 -155 -35.5 -282.5t-76 -201.5t-122.5 -166.5
t-254 -92.5q-81 0 -125.5 46.5t-58.5 113.5h-2q-39 -66 -114.5 -113t-158.5 -47q-125 0 -199.5 91t-74.5 243t68.5 292.5t164 187t175.5 46.5z" />
    <glyph glyph-name="A" unicode="A" horiz-adv-x="1259" 
d="M358 487h525l-162 672h-12zM-18 0q-28 0 -32 30q0 11 7 23l756 1379q11 22 35 22h18q22 0 29 -22l364 -1379q1 -5 1 -15t-10 -24t-30 -14h-86q-25 0 -30 23l-82 337h-639l-174 -337q-14 -23 -39 -23h-88z" />
    <glyph glyph-name="B" unicode="B" horiz-adv-x="1185" 
d="M664 791q113 0 181 82.5t68 196.5q0 222 -180 222h-282l-72 -501h285zM602 137q106 0 183 85.5t77 193.5t-62.5 170.5t-156.5 62.5h-287l-71 -512h317zM350 1434h408q148 0 238.5 -94t90.5 -232t-63.5 -234t-163.5 -147v-6q73 -39 123.5 -108t50.5 -171q0 -192 -126 -317
t-335 -125h-423q-15 0 -23 11t-8 18v10l190 1356q3 16 15 27.5t26 11.5z" />
    <glyph glyph-name="C" unicode="C" horiz-adv-x="1327" 
d="M125 644q0 200 100.5 392t279 305t396.5 113q133 0 232.5 -47.5t187.5 -142.5q9 -8 9 -17v-12q-2 -19 -15 -29l-60 -47q-26 -21 -53 10q-124 138 -332 138q-102 0 -211 -55t-189 -146t-128.5 -215.5t-48.5 -257.5t52 -248t150 -185.5t213 -70.5t195 39.5t168 120.5
q25 25 45 6l64 -62q19 -27 -9 -55q-207 -198 -477 -198q-151 0 -282 85t-209 232t-78 347z" />
    <glyph glyph-name="D" unicode="D" horiz-adv-x="1406" 
d="M557 141q122 0 230.5 48t189 133.5t127.5 211t47 273.5q0 214 -118.5 350.5t-311.5 136.5h-270l-162 -1153h268zM348 1434h416q156 0 285 -89.5t199.5 -231.5t70.5 -304t-58 -311.5t-158 -259t-241 -174t-299 -64.5h-418q-13 0 -20 10t-7 18q0 7 1 11l190 1356
q1 15 13 27t26 12z" />
    <glyph glyph-name="E" unicode="E" horiz-adv-x="1093" 
d="M1079 1434q27 0 30 -31q0 -4 -1 -8l-8 -60q-2 -15 -14 -27t-27 -12h-606l-72 -499h518q14 0 23 -12t6 -27l-8 -60q-1 -17 -13 -28t-26 -11h-519l-73 -522h608q15 0 23.5 -12t5.5 -27l-8 -59q-2 -15 -14 -27t-27 -12h-730q-29 0 -29 31q0 4 1 8l190 1356q1 15 13 27t26 12
h731z" />
    <glyph glyph-name="F" unicode="F" horiz-adv-x="1060" 
d="M1079 1434q27 0 30 -31q0 -4 -1 -8l-8 -60q-2 -15 -14 -27t-27 -12h-606l-80 -561h518q14 0 23 -12t6 -27l-9 -59q-1 -15 -14 -27t-27 -12h-516l-80 -559q-2 -15 -13.5 -27t-24.5 -12h-89q-29 0 -29 31q0 4 1 8l190 1356q1 15 13 27t26 12h731z" />
    <glyph glyph-name="G" unicode="G" horiz-adv-x="1386" 
d="M125 644q0 200 101 392t279.5 305t395.5 113q134 0 234 -48t188 -142q9 -8 9 -17v-12q-2 -19 -15 -29l-72 -59q-26 -21 -53 10q-55 63 -138 106.5t-183 43.5t-208.5 -54t-188.5 -144t-128.5 -213.5t-48.5 -257.5t51.5 -249.5t149 -186.5t209.5 -71t176.5 21.5t94.5 34
t46.5 21.5t17.5 9l41 293h-202q-15 0 -23.5 11t-5.5 26l10 69q1 17 13.5 28t27.5 11h324q12 0 20.5 -10.5t7.5 -23.5l-65 -478q-3 -23 -16 -30t-54.5 -30.5t-160.5 -63t-269 -39.5t-281.5 85t-207.5 232t-76 347z" />
    <glyph glyph-name="H" unicode="H" horiz-adv-x="1429" 
d="M350 1434h88q15 0 24 -12t7 -27l-86 -598h725l84 598q3 16 14.5 27.5t26.5 11.5h88q14 0 22 -10t8 -18t-1 -11l-191 -1356q-1 -15 -13 -27t-26 -12h-88q-15 0 -24 12t-7 27l89 620h-725l-89 -620q-2 -16 -12.5 -27.5t-25.5 -11.5h-88q-13 0 -23 12t-8 27l190 1356
q3 15 15.5 27t25.5 12z" />
    <glyph glyph-name="I" unicode="I" horiz-adv-x="546" 
d="M348 1434h90q14 0 22 -10t8 -18t-1 -11l-191 -1356q-2 -15 -13.5 -27t-24.5 -12h-91q-29 0 -29 31q0 4 1 8l190 1356q1 15 13 27t26 12z" />
    <glyph glyph-name="J" unicode="J" horiz-adv-x="890" 
d="M76 235q16 0 33 -24q76 -92 163 -92t156.5 61.5t91.5 218.5l142 996q2 15 13.5 27t26.5 12h89q29 0 29 -31q0 -4 -1 -8l-139 -992q-59 -423 -408 -423q-139 0 -212.5 73.5t-73.5 92.5v12q3 15 14 24l45 41q15 12 31 12z" />
    <glyph glyph-name="K" unicode="K" horiz-adv-x="1140" 
d="M358 1434h70q19 0 30.5 -15t8.5 -35l-84 -583l645 612q16 21 37 21h106q27 0 37 -22q10 -20 -14 -44l-670 -631l488 -684q12 -11 2.5 -32t-37.5 -21h-98q-25 0 -31 14l-479 682l-90 -647q-3 -20 -18 -34.5t-34 -14.5h-69q-39 0 -39 42v7l188 1335q3 21 17 35.5t34 14.5z
" />
    <glyph glyph-name="L" unicode="L" horiz-adv-x="940" 
d="M350 1434h88q13 0 23 -12t8 -27l-178 -1258h522q13 0 21 -11q8 -10 8 -18v-10l-8 -59q-3 -16 -14.5 -27.5t-26.5 -11.5h-643q-15 0 -23 11t-8 18v10l190 1356q3 16 15 27.5t26 11.5z" />
    <glyph glyph-name="M" unicode="M" horiz-adv-x="1632" 
d="M68 0q-34 0 -34 32q0 8 3 17l428 1376q9 29 43 29h29q32 0 36 -22l199 -1125h4l518 1125q11 22 39 22h29q15 0 26 -8.5t11 -20.5l45 -1376q0 -49 -47 -49h-72q-37 0 -37 29l-20 1024h-2l-482 -1051q-11 -22 -39 -22h-26q-33 0 -37 22l-188 1069h-2l-310 -1042
q-8 -29 -43 -29h-71z" />
    <glyph glyph-name="N" unicode="N" horiz-adv-x="1452" 
d="M356 1454h31q19 0 31 -18l649 -1131h2l154 1090q2 15 15.5 27t31.5 12h65q17 0 26 -11t9 -19v-9l-194 -1379q-1 -15 -15 -25.5t-31 -10.5h-30q-19 0 -31 18l-651 1151h-4l-150 -1110q-2 -15 -16 -27t-31 -12h-65q-33 0 -33 33v6l192 1378q2 15 15 26t30 11z" />
    <glyph glyph-name="O" unicode="O" horiz-adv-x="1558" 
d="M268 605q0 -196 126 -339t321 -143q155 0 296.5 94t228.5 253.5t87 355.5t-126 340.5t-320 144.5q-154 0 -296 -95t-229.5 -255t-87.5 -356zM121 602q0 172 64 329.5t169.5 271.5t248.5 182.5t299 68.5t288.5 -82t208.5 -226t76 -316t-63 -329t-167.5 -271t-248.5 -182
t-302 -68t-290 81.5t-207.5 225t-75.5 315.5z" />
    <glyph glyph-name="P" unicode="P" horiz-adv-x="1138" 
d="M645 668q137 0 225 100.5t88 255.5q0 110 -62 182t-165 72h-280l-86 -610h280zM350 1434h412q103 0 185 -56t125.5 -146t43.5 -194q0 -222 -138 -370t-343 -148h-291l-68 -481q-3 -15 -15 -27t-25 -12h-86q-15 0 -23 11t-8 18v10l190 1356q3 16 15 27.5t26 11.5z" />
    <glyph glyph-name="Q" unicode="Q" horiz-adv-x="1556" 
d="M268 618q0 -212 125.5 -353.5t304.5 -141.5t322.5 101t225 258.5t81.5 311.5t-57 268.5t-159.5 181.5t-229.5 67t-242 -61t-195 -159t-128 -223t-48 -250zM121 598q0 125 36 247t105 230.5t161.5 193.5t215.5 135t271 50t280.5 -82.5t208.5 -227t76 -312.5t-58 -319.5
t-171.5 -277.5t-266.5 -198l162 -381q10 -22 -2.5 -42t-42.5 -20h-86q-26 0 -39 33l-140 363q-55 -10 -155 -10t-206.5 48t-183 130.5t-121 198.5t-44.5 241z" />
    <glyph glyph-name="R" unicode="R" horiz-adv-x="1245" 
d="M705 696q130 0 221.5 98t91.5 220t-65.5 196t-164.5 74h-333l-84 -588h334zM348 1434h461q165 0 268 -116t103 -276t-93.5 -288.5t-242.5 -175.5l178 -519q8 -21 -2.5 -40t-32.5 -19h-82q-23 0 -34 8.5t-17 30.5l-162 522h-344l-74 -522q-2 -15 -13.5 -27t-24.5 -12h-89
q-29 0 -29 31q0 4 1 8l190 1356q1 15 13 27t26 12z" />
    <glyph glyph-name="S" unicode="S" horiz-adv-x="1021" 
d="M53 184q0 15 17 31l32 35q36 34 58 16q12 -10 39 -35.5t60.5 -51t88 -44t142.5 -18.5t163.5 67.5t75.5 169.5t-62.5 167.5t-166.5 125.5t-149.5 93t-104 98t-58.5 193t88.5 275.5t356.5 147.5q181 0 317 -104q17 -13 17 -31t-15 -39l-22 -33q-18 -27 -36 -27t-32 9
q-128 88 -248 88t-195 -80t-75 -170t52 -151t137 -107t166 -96t139.5 -132.5t58.5 -199.5q0 -175 -119.5 -288t-327.5 -113t-374 166q-22 22 -23 38z" />
    <glyph glyph-name="T" unicode="T" horiz-adv-x="974" 
d="M195 1296q-27 0 -30 31q0 4 1 8l8 60q2 15 14 27t25 12h786q27 0 30 -31q0 -4 -1 -8l-8 -60q-2 -15 -14 -27t-27 -12h-313l-177 -1257q-3 -15 -15 -27t-25 -12h-87q-13 0 -22.5 12t-7.5 27l176 1257h-313z" />
    <glyph glyph-name="U" unicode="U" horiz-adv-x="1347" 
d="M166 416q0 42 6 88l123 891q3 15 15.5 27t25.5 12h88q15 0 23.5 -12t5.5 -27l-121 -879q-6 -44 -6 -82q0 -142 74 -225.5t218 -83.5t251.5 109.5t131.5 277.5l123 883q2 15 14 27t25 12h88q14 0 22 -10t8 -18t-1 -11l-123 -891q-33 -241 -179.5 -382.5t-387.5 -141.5
q-188 0 -306 120t-118 316z" />
    <glyph glyph-name="V" unicode="V" horiz-adv-x="1255" 
d="M1315 1434q29 0 29 -30q0 -11 -7 -24l-755 -1378q-11 -22 -35 -22h-19q-19 0 -26 22l-367 1378q-1 6 -1 16t10 24t30 14h84q23 0 29 -23l282 -1139h9l602 1139q9 23 34 23h101z" />
    <glyph glyph-name="W" unicode="W" horiz-adv-x="1675" 
d="M1690 1434q30 0 30 -29q0 -9 -4 -21l-542 -1376q-10 -28 -37 -28h-29q-25 0 -29 22l-166 1104h-8l-471 -1104q-9 -22 -35 -22h-28q-26 0 -31 28l-154 1376q-5 20 7 35q13 15 32 15h86q11 0 20 -9t11 -20l96 -1057h6l459 1084q9 22 35 22h33q24 0 28 -22l158 -1084h6
l391 1057q13 29 37 29h99z" />
    <glyph glyph-name="X" unicode="X" horiz-adv-x="1107" 
d="M29 0q-36 0 -36 30q0 8 9 21l475 684l-274 651q-8 20 2 34t33 14h98q21 0 29 -19l219 -555h2l368 555q13 19 35 19h113q22 0 28 -12t5 -20q0 -9 -9 -22l-452 -645l280 -684q9 -22 0 -36.5t-32 -14.5h-101q-22 0 -28 18l-226 590h-4l-397 -590q-11 -18 -35 -18h-102z" />
    <glyph glyph-name="Y" unicode="Y" horiz-adv-x="1097" 
d="M1159 1434q31 0 31 -32q0 -14 -10 -28l-541 -682l-92 -653q-1 -15 -14 -27t-27 -12h-86q-15 0 -24 12t-7 27l92 651l-348 694q-5 10 -5 18t6 20t28 12h94q20 0 29 -19l284 -584h4l455 584q14 19 33 19h98z" />
    <glyph glyph-name="Z" unicode="Z" horiz-adv-x="1003" 
d="M1022 1434q29 0 29 -37q0 -19 -17 -45l-819 -1205v-4h588q15 0 24.5 -12t6.5 -27l-11 -65q-3 -16 -15 -27.5t-26 -11.5h-766q-14 0 -22 11t-6 18q3 42 16 63l813 1192v6h-565q-14 0 -24 12t-7 27l10 66q3 15 15.5 27t25.5 12h750z" />
    <glyph glyph-name="bracketleft" unicode="[" horiz-adv-x="651" 
d="M317 1434h357q13 0 21.5 -12t6.5 -27l-6 -52q-1 -16 -14 -27t-27 -11h-252l-233 -1663h252q13 0 22 -11t7 -26l-7 -54q-1 -15 -14 -26.5t-27 -11.5h-354q-14 0 -23 11.5t-8 26.5l261 1844q2 15 13.5 27t24.5 12z" />
    <glyph glyph-name="backslash" unicode="\" horiz-adv-x="741" 
d="M276 1434h66q26 0 31 -27l170 -1356q3 -21 -9.5 -36t-31.5 -15h-68q-9 0 -18 8.5t-10 18.5l-168 1355q-3 22 8 37t30 15z" />
    <glyph glyph-name="bracketright" unicode="]" horiz-adv-x="653" 
d="M-33 -358h250l234 1663h-250q-14 0 -24 11t-7 27l8 52q3 15 14.5 27t24.5 12h356q13 0 22 -12t7 -27l-258 -1844q-3 -15 -15.5 -26.5t-25.5 -11.5h-354q-14 0 -24 11.5t-7 26.5l8 54q3 15 15 26t26 11z" />
    <glyph glyph-name="asciicircum" unicode="^" horiz-adv-x="966" 
d="M604 1462h10q21 0 29 -20l287 -580q9 -19 -0.5 -33t-32.5 -14h-76q-21 0 -30 23l-205 426h-8l-326 -426q-18 -23 -37 -23h-82q-33 0 -29.5 22.5t13.5 34.5l452 570q16 20 35 20z" />
    <glyph glyph-name="underscore" unicode="_" horiz-adv-x="1015" 
d="M133 -20h563q31 0 29 -39l-4 -33q-1 -15 -13.5 -26t-27.5 -11h-563q-15 0 -23 11t-6 26l4 33q1 17 13.5 28t27.5 11z" />
    <glyph glyph-name="grave" unicode="`" horiz-adv-x="557" 
d="M188 1331l43 70q8 12 25.5 12.5t24.5 -6.5l256 -172q21 -13 6 -39l-25 -41q-12 -20 -45 -4l-270 131q-35 17 -15 49z" />
    <glyph glyph-name="a" unicode="a" horiz-adv-x="1050" 
d="M242 414q0 -89 23 -152t73 -106t104 -43q96 0 159 50.5t95 102.5l56 453q-43 71 -107 91.5t-112 20.5t-99.5 -26.5t-95 -78t-70 -137.5t-26.5 -175zM893 946q33 0 31 -24v-15l-103 -872q-3 -35 -41 -35h-47q-27 0 -31 35l-8 59q-1 0 -69.5 -58.5t-209.5 -58.5
q-142 0 -234.5 121.5t-92.5 293.5t62 303.5t166.5 201.5t234.5 70t233 -103l31 60q8 22 31 22h47z" />
    <glyph glyph-name="b" unicode="b" horiz-adv-x="1056" 
d="M784 526q0 124 -65.5 214.5t-165.5 90.5q-53 0 -106.5 -17.5t-80.5 -34.5l-28 -17l-66 -492q3 -6 15.5 -33.5t63 -75.5t128.5 -48q126 0 215.5 121.5t89.5 291.5zM121 0q-33 0 -36 37q0 4 1 8l190 1344q1 18 14.5 31.5t28.5 13.5h80q16 0 27 -13.5t8 -31.5l-69 -476
q2 0 58.5 27t170.5 27q149 0 246.5 -120.5t97.5 -288.5t-60 -299t-166 -206.5t-229 -75.5q-161 0 -254 123l-22 -61q-14 -39 -43 -39h-43z" />
    <glyph glyph-name="c" unicode="c" horiz-adv-x="958" 
d="M86 401q0 122 39.5 228t106.5 180t158.5 116t193.5 42q207 0 297 -156q5 -11 5 -27t-22 -34l-43 -37q-36 -26 -59 12q-66 106 -190 106t-225 -114t-101 -295q0 -128 63 -218.5t179 -90.5t212 143q15 24 31 24t31 -10l49 -34q14 -9 14 -25t-12 -37q-48 -84 -142 -140.5
t-212 -56.5q-160 0 -266.5 121t-106.5 303z" />
    <glyph glyph-name="d" unicode="d" horiz-adv-x="1056" 
d="M242 428q0 -95 22 -161t70 -110t101 -44q93 0 158 53.5t105 107.5l66 498q-29 22 -86.5 40.5t-127.5 18.5t-145.5 -57.5t-119 -154t-43.5 -191.5zM411 -23q-142 0 -233.5 121.5t-91.5 287.5t62 297t173 207.5t233 76.5t176.5 -30t55.5 -30l68 482q7 45 45 45h72
q17 0 27 -12t10 -21v-12l-189 -1354q-6 -35 -43 -35h-47q-27 0 -31 35l-8 59q-137 -117 -279 -117z" />
    <glyph glyph-name="e" unicode="e" horiz-adv-x="946" 
d="M371 537q166 0 256 46t90 130q0 50 -40 85.5t-108 35.5q-114 0 -209.5 -88.5t-117.5 -202.5q67 -6 129 -6zM86 415q0 134 61 264t176 209t249 79t214 -69t80 -177q0 -139 -134.5 -223t-377.5 -84q-60 0 -131 6q-1 -15 -1 -30q0 -104 60 -190t175 -87q81 0 126 28.5
t69 46.5t40 18q15 0 31 -22l27 -41q25 -27 -22 -64q-47 -36 -125.5 -69t-172.5 -33t-176.5 57.5t-125 152t-42.5 228.5z" />
    <glyph glyph-name="f" unicode="f" horiz-adv-x="737" 
d="M143 946h156l20 152q48 356 333 356q143 0 231 -92q10 -10 10 -26t-8 -27l-37 -49q-14 -18 -28 -18t-29 15q-66 62 -145 62t-120 -55t-55 -166l-20 -152h245q18 0 29 -12.5t8 -32.5l-8 -43q-2 -19 -15 -32t-32 -13h-246l-174 -1253q-3 -19 -17.5 -33t-29.5 -14h-70
q-17 0 -27.5 14t-7.5 33l175 1253h-152q-17 0 -27 12t-10 21v12l6 43q10 45 45 45z" />
    <glyph glyph-name="g" unicode="g" horiz-adv-x="1046" 
d="M229 366q0 -108 57.5 -180.5t127.5 -72.5t134 46.5t102.5 103.5t51.5 104l46 315q-31 93 -93.5 121t-110.5 28t-104 -32.5t-103 -89t-77.5 -146t-30.5 -197.5zM899 946q30 0 30 -35q0 -5 -1 -10l-121 -850q-54 -382 -200 -441t-211 -59t-134 22t-138 84.5t-69 83.5t13 34
l43 43q28 28 53 0q47 -55 75 -76q69 -53 163 -53t164 82.5t93 269.5l9 65h-11q-44 -53 -114 -91t-152 -38q-127 0 -218 104t-91 259q0 298 147 462.5t328 164.5q148 0 229 -121l29 78q9 22 35 22h49z" />
    <glyph glyph-name="h" unicode="h" horiz-adv-x="1040" 
d="M121 0q-33 0 -36 37q0 4 1 8l190 1344q1 18 14.5 31.5t28.5 13.5h74q15 0 25.5 -13.5t9.5 -31.5l-78 -539q117 117 279 117q265 0 264 -289q0 -53 -8 -115l-74 -518q-1 -18 -16 -31.5t-31 -13.5h-72q-17 0 -27.5 13t-7.5 32l76 520q7 49 7 89q0 177 -144 177
q-127 0 -264 -137l-94 -649q-1 -19 -16 -32t-34 -13h-67z" />
    <glyph glyph-name="i" unicode="i" horiz-adv-x="473" 
d="M221 1292q0 46 40 84.5t86 38.5t74 -27.5t28 -73.5t-37.5 -85t-85.5 -39t-76.5 28t-28.5 74zM121 0q-33 0 -36 37q0 4 1 8l119 856q2 18 15 31.5t32 13.5h74q15 0 24 -14t6 -31l-118 -856q-1 -18 -16.5 -31.5t-33.5 -13.5h-67z" />
    <glyph glyph-name="j" unicode="j" horiz-adv-x="475" 
d="M223 1292q0 46 40 84.5t86 38.5t74 -27.5t28 -73.5t-37.5 -85t-85.5 -39t-76.5 28t-28.5 74zM-161 -405q1 31 47 47t101 54.5t76 186.5l144 1018q3 20 17.5 32.5t33.5 12.5h61q18 0 30 -12.5t9 -32.5l-141 -1003q-28 -189 -111 -284t-212 -122q-5 -1 -10 -1q-24 0 -29 26
l-15 65q-1 7 -1 13z" />
    <glyph glyph-name="k" unicode="k" horiz-adv-x="937" 
d="M121 0q-33 0 -36 37q0 4 1 8l190 1344q3 19 15.5 32t27.5 13h74q16 0 27 -13.5t8 -31.5l-109 -801l394 330q37 28 53 28h121q25 0 25 -26q0 -21 -15 -31l-444 -377l340 -453q11 -12 2.5 -35.5t-33.5 -23.5h-92q-26 0 -39 18l-326 457l-67 -430q-3 -19 -16.5 -32
t-28.5 -13h-72z" />
    <glyph glyph-name="l" unicode="l" horiz-adv-x="491" 
d="M129 0q-33 0 -36 37q0 4 1 8l191 1344q3 18 17.5 31.5t29.5 13.5h69q16 0 26 -12q9 -12 9 -21v-12l-190 -1344q-3 -19 -16.5 -32t-28.5 -13h-72z" />
    <glyph glyph-name="m" unicode="m" horiz-adv-x="1562" 
d="M121 0q-33 0 -36 37q0 4 1 8l119 856q5 45 47 45h41q25 0 31 -28l10 -72q1 0 24 22t88 60.5t162 38.5q152 0 223 -146q67 67 105.5 87t85.5 39.5t125 19.5q170 1 228 -103q40 -71 40 -187q0 -52 -8 -112l-72 -520q-1 -19 -15.5 -32t-31.5 -13h-69q-18 0 -28.5 13t-8.5 32
l71 520q7 50 7 90q0 176 -142 176q-70 0 -129 -34t-91 -68.5t-34 -36.5q1 -12 1 -40t-7 -87l-70 -520q-1 -19 -15.5 -32t-31.5 -13h-71q-16 0 -26.5 13.5t-6.5 31.5l68 520q6 47 6 103q0 161 -146 163q-102 0 -156 -52.5t-83 -86.5l-88 -647q-1 -18 -16.5 -31.5t-33.5 -13.5
h-67z" />
    <glyph glyph-name="n" unicode="n" horiz-adv-x="1042" 
d="M121 0q-33 0 -36 37q0 4 1 8l119 856q5 45 47 45h41q25 0 31 -28l10 -72q151 121 295 121q266 0 266 -292q0 -51 -8 -110l-76 -520q-1 -18 -16 -31.5t-31 -13.5h-72q-17 0 -27.5 13t-7.5 32l76 520q7 49 7 89q0 177 -144 177q-131 0 -252 -121l-14 -14l-92 -651
q-2 -19 -17 -32t-35 -13h-65z" />
    <glyph glyph-name="o" unicode="o" horiz-adv-x="1062" 
d="M227 418q0 -130 65 -217.5t169 -87.5q135 0 237.5 123.5t102.5 293.5q0 127 -65.5 214t-168.5 87q-135 0 -237.5 -121.5t-102.5 -291.5zM84 394q0 162 66 291t181 205.5t257 76.5t250 -125t108 -288t-65.5 -293t-180 -207t-258.5 -77t-251 127.5t-107 289.5z" />
    <glyph glyph-name="p" unicode="p" horiz-adv-x="1058" 
d="M459 113q136 0 231.5 116.5t95.5 294.5q0 133 -56.5 220t-154.5 87q-121 0 -235 -114l-76 -516q39 -52 101 -70t94 -18zM604 967q147 0 241.5 -123.5t94.5 -288.5t-61 -295.5t-171.5 -206.5t-234.5 -76t-177 36t-54 36l-70 -489q-2 -19 -15.5 -33t-31.5 -14h-70
q-15 0 -26.5 14.5t-10.5 32.5l189 1341q8 45 47 45h47q26 0 31 -31l8 -45q117 97 264 97z" />
    <glyph glyph-name="q" unicode="q" horiz-adv-x="1056" 
d="M242 430q0 -152 58 -234.5t167 -82.5q50 0 104.5 21t83.5 42l29 21l78 532l-54 51q-53 51 -147 51q-137 0 -228 -124.5t-91 -276.5zM556 967q135 0 241 -97l22 43q18 33 45 33h41q36 0 36 -34q0 -5 -1 -11l-188 -1341q-1 -18 -16 -32.5t-31 -14.5h-70q-19 0 -29.5 14
t-7.5 33l70 489q-27 -25 -90.5 -48.5t-149.5 -23.5q-148 0 -245 121.5t-97 287.5t58.5 295t167.5 207.5t244 78.5z" />
    <glyph glyph-name="r" unicode="r" horiz-adv-x="741" 
d="M121 0q-33 0 -36 37q0 4 1 8l119 856q5 45 47 45h41q25 0 31 -33l10 -67q41 47 108.5 84t149.5 37t129 -23q20 -8 20 -23t-6 -28l-28 -64q-14 -36 -54 -16q-49 18 -107 18t-121.5 -44t-98.5 -89l-88 -653q-5 -19 -20 -32t-34 -13h-63z" />
    <glyph glyph-name="s" unicode="s" horiz-adv-x="784" 
d="M41 103q0 15 6 26l35 53q9 15 25.5 16.5t31.5 -10.5q91 -75 195 -75q66 0 110.5 39.5t44.5 91.5t-37.5 92t-100.5 80t-144.5 95t-81.5 168q0 111 75 199.5t227 88.5q153 0 241 -70q17 -15 17 -33t-9 -35l-21 -38q-13 -23 -29 -23t-34 10q-83 53 -162 53t-115 -36.5
t-36 -72.5q0 -62 38.5 -96t87.5 -64q48 -30 69.5 -44.5t96 -71.5t74.5 -178t-86.5 -206t-236.5 -85t-271 101q-10 10 -10 25z" />
    <glyph glyph-name="t" unicode="t" horiz-adv-x="727" 
d="M133 813q-35 0 -38 37q0 4 1 8l8 43q13 45 46 45h112l35 262q6 40 47 45l74 4h10q8 0 17 -13t6 -32l-37 -266h241q35 0 35 -39v-6l-6 -43q-1 -19 -15.5 -32t-31.5 -13h-244l-84 -584q-7 -64 13 -86t56 -22t81 21.5t65 37.5t32 17q18 0 32 -29l22 -51q7 -23 1.5 -35
t-35.5 -34t-94 -46.5t-132 -24.5q-108 0 -158 73q-38 55 -38 134q0 25 4 52l82 577h-107z" />
    <glyph glyph-name="u" unicode="u" horiz-adv-x="1015" 
d="M240 946h71q17 0 28 -13.5t9 -31.5l-74 -534q-8 -55 -8 -107t18 -88q30 -58 136 -58q119 -1 233 152l92 635q2 17 16.5 31t31.5 14h67q17 0 27 -12t10 -22v-11l-121 -856q-2 -19 -14.5 -32t-32.5 -13h-41q-27 0 -33 41l-8 59q-108 -123 -273 -123q-166 0 -224 99
q-39 66 -39 148t10 145l72 532q3 17 17.5 31t29.5 14z" />
    <glyph glyph-name="v" unicode="v" horiz-adv-x="929" 
d="M887 946q35 0 35 -27q0 -12 -9 -26l-485 -891q-14 -25 -39 -25h-12q-28 0 -33 25l-240 901q-3 9 -3 16q0 27 38 27h72q32 0 39 -35l162 -663h4l356 672q13 26 49 26h66z" />
    <glyph glyph-name="w" unicode="w" horiz-adv-x="1341" 
d="M128 916q0 30 38 30h72q34 0 38 -33l70 -604h6l332 637q12 25 41 25h12q26 0 31 -25l137 -637h6l242 604q14 33 47 33h60q38 0 38 -26q0 -9 -4 -21l-364 -897q-14 -25 -39 -25h-12q-10 0 -20.5 8t-12.5 17l-150 692h-6l-358 -692q-12 -25 -39 -25h-10q-11 0 -21.5 7.5
t-11.5 17.5l-121 905q-1 5 -1 9z" />
    <glyph glyph-name="x" unicode="x" horiz-adv-x="911" 
d="M842 946q37 0 37 -37q0 -11 -13 -28l-344 -404l228 -418q13 -23 1.5 -41t-36.5 -18h-72q-23 0 -31 20l-182 357h-6l-277 -359q-11 -18 -34 -18h-78q-35 0 -35 34q0 10 14 27l334 416l-215 404q-12 24 2 44.5t41 20.5h66q21 0 32 -18l166 -348h6l277 348q15 18 37 18h82z
" />
    <glyph glyph-name="y" unicode="y" horiz-adv-x="993" 
d="M123 -487q-33 0 -33 25q0 12 8 28l238 434l-230 895q-6 22 5 36.5t34 14.5h76q27 0 33 -26l174 -756h6l385 756q13 26 41 26h84q36 0 36 -29q0 -11 -7 -24l-721 -1352q-5 -10 -17.5 -19t-23.5 -9h-88z" />
    <glyph glyph-name="z" unicode="z" horiz-adv-x="800" 
d="M10 39q0 24 15 47l518 721v6h-371q-17 0 -25.5 13t-5.5 32l9 43q3 20 16 32.5t29 12.5h540q17 0 27 -10t10 -26t-8 -29l-535 -746v-2h351q19 0 28.5 -12t5.5 -33l-8 -43q-3 -19 -16.5 -32t-30.5 -13h-510q-39 0 -39 39z" />
    <glyph glyph-name="braceleft" unicode="{" horiz-adv-x="770" 
d="M780 1454q38 0 47.5 -8.5t8.5 -26.5l-7 -39q-5 -35 -30 -37q-344 -42 -387 -350l-33 -241q-26 -189 -93 -227t-91 -48l-2 -14q45 -21 58 -38t40.5 -54.5t7.5 -182.5l-33 -241q-23 -162 49.5 -244.5t239.5 -103.5q23 -4 18 -35l-6 -41q-2 -35 -52 -35q-49 0 -142.5 24
t-176.5 133.5t-57 301.5l41 299q8 62 -28 107.5t-76 52.5q-11 2 -18.5 12t-6.5 22l10 64q2 25 39 32q36 7 86 51.5t58 106.5l41 299q42 297 212.5 379t282.5 82z" />
    <glyph glyph-name="bar" unicode="|" horiz-adv-x="409" 
d="M336 1556h14q14 0 22 -10.5t5 -27.5l-275 -1969q-3 -15 -15 -25.5t-26 -10.5h-12q-14 0 -23 10.5t-8 25.5l277 1969q1 16 14 27t27 11z" />
    <glyph glyph-name="braceright" unicode="}" horiz-adv-x="768" 
d="M211 1454q128 0 237.5 -75t135.5 -184t14 -202l-39 -299q-8 -63 27.5 -107.5t75.5 -51.5q26 -5 24 -31l-10 -64q-1 -12 -11.5 -22t-21.5 -12q-43 -7 -92 -52t-57 -108l-41 -299q-42 -297 -213 -378t-303 -81q-14 0 -24 10t-9 25l6 41q6 32 31 35q140 10 249.5 85.5
t135.5 262.5l32 241q26 192 93.5 228t91.5 47l2 14q-43 20 -57.5 37t-41.5 57t-8 181l33 241q22 159 -56 244.5t-233 105.5q-9 1 -14.5 12t-3.5 25l6 39q6 35 41 35z" />
    <glyph glyph-name="asciitilde" unicode="~" horiz-adv-x="1062" 
d="M472 726l113 -92q65 -56 100 -56q34 0 56 9t43.5 29t32 31.5t31 38t26.5 34.5t20.5 10.5t25.5 -9.5l41 -35q17 -20 -5 -49q-1 -1 -12.5 -17.5t-23 -30.5t-36.5 -42.5t-80.5 -63t-106.5 -34.5t-95.5 19.5t-76.5 46.5q-32 28 -47 41t-24 20t-23.5 16t-29 13.5t-30.5 4.5
t-32.5 -4.5t-32 -16t-26.5 -19.5t-26 -26t-20.5 -24.5t-19.5 -25.5l-13 -19q-27 -34 -51 -8q-7 6 -22 17.5t-26 23.5q-12 12 4 36l25 37.5t37.5 45.5t79.5 72t130 40q78 0 94 -13z" />
    <glyph glyph-name="uni00A0" unicode="&#xa0;" horiz-adv-x="491" 
 />
    <glyph glyph-name="exclamdown" unicode="&#xa1;" horiz-adv-x="487" 
d="M170 844q0 48 39 86.5t86 38.5t74.5 -30.5t27.5 -78.5t-39.5 -86.5t-85.5 -38.5t-74 30.5t-28 78.5zM205 391h28q12 0 21.5 -10.5t9.5 -22.5l-41 -571l-33 -233q-2 -15 -13.5 -27t-24.5 -12h-111q-13 0 -23 12t-8 27l33 229l123 575q3 12 15 22.5t24 10.5z" />
    <glyph glyph-name="cent" unicode="&#xa2;" horiz-adv-x="1036" 
d="M629 823q-129 0 -230.5 -120t-101.5 -282t98 -245l246 647h-12zM123 396q0 120 42 226t112 181t165 119.5t197 44.5q3 0 57 -6l37 102q8 18 24 27t31 2l17 -5q15 -3 21 -18t-3 -35l-39 -96q90 -47 140 -137q10 -17 5 -35t-22 -29l-41 -28q-36 -24 -59 10q-28 48 -76 76
l-252 -658q24 -4 54 -4q75 0 125 45t83 88q25 43 62 17l51 -47q24 -21 4 -62q-52 -83 -147.5 -141t-210.5 -58q-15 0 -78 11l-88 -230q-4 -17 -21.5 -26.5t-39.5 -2.5q-42 15 -27 56l88 237q-94 55 -152.5 155.5t-58.5 220.5z" />
    <glyph glyph-name="sterling" unicode="&#xa3;" 
d="M295 602q-13 0 -21 12t-5 35q6 45 40 45h58q-1 11 -10 85.5t-9 152.5q0 247 121.5 384.5t325.5 137.5q113 0 184.5 -51.5t110.5 -93.5q23 -26 -5 -54l-49 -49q-31 -31 -53 -2q-54 69 -110.5 92t-96.5 23q-117 0 -199.5 -102t-82.5 -277q0 -87 11 -163t11 -83h289
q14 0 23 -12t5 -35q-8 -45 -40 -45h-269q2 -92 -26 -233.5t-78 -237.5h444q13 0 21 -11t6 -28l-6 -53q-1 -15 -13 -27t-26 -12h-590q-13 0 -23 12t-8 27l6 37q153 248 146 526h-82z" />
    <glyph glyph-name="currency" unicode="&#xa4;" horiz-adv-x="933" 
d="M346 661q0 -61 30 -95t86 -34t101 52.5t45 112.5t-30 95t-86 35t-101 -52.5t-45 -113.5zM227 635q0 100 56 186l-66 84q-8 10 -6 28.5t14 27.5l49 38q12 9 27 9.5t23 -9.5l65 -84q63 41 131 41t117 -38l90 86q23 21 47 -3l37 -40q9 -11 7 -27t-13 -27l-90 -84
q16 -41 16 -98q0 -103 -55 -188l65 -84q8 -10 6 -27.5t-14 -26.5l-49 -41q-11 -11 -25 -11.5t-22 9.5l-68 86q-64 -39 -129 -39t-118 41l-89 -84q-11 -10 -25.5 -9.5t-23.5 9.5l-39 39q-9 9 -5.5 27t14.5 29l90 84q-17 53 -17 96z" />
    <glyph glyph-name="yen" unicode="&#xa5;" 
d="M227 1434h95q18 0 28 -19l285 -584h4l455 584q14 19 32 19h99q23 0 28.5 -20t-8.5 -40l-540 -682l-15 -102h232q15 0 24 -12.5t5 -35.5q-9 -44 -42 -44h-233l-21 -154h232q15 0 24.5 -12.5t4.5 -34.5q-9 -45 -42 -45h-233l-29 -213q-1 -15 -14 -27t-27 -12h-86
q-15 0 -23.5 11.5t-6.5 27.5l28 213h-233q-13 0 -22 12t-6 34q4 22 15.5 34t24.5 12h236l20 154h-233q-13 0 -22 12t-6 34q4 22 15.5 34t24.5 12h235l15 100l-348 694q-9 19 -1 34.5t29 15.5z" />
    <glyph glyph-name="brokenbar" unicode="&#xa6;" horiz-adv-x="425" 
d="M344 1556h14q14 0 22 -10.5t5 -27.5l-94 -676q-1 -15 -14 -26t-27 -11h-12q-14 0 -23 11t-8 26l96 676q1 16 14 27t27 11zM162 266h16q14 0 22 -11t5 -28l-94 -678q-3 -15 -15 -25.5t-26 -10.5h-13q-14 0 -22.5 10.5t-7.5 25.5l96 678q1 17 13 28t26 11z" />
    <glyph glyph-name="section" unicode="&#xa7;" horiz-adv-x="1087" 
d="M299 534q0 -40 12 -70t38 -61.5t131 -95t145 -90.5q89 45 116 112.5t27 110.5q0 77 -64 135t-208 132q-41 22 -66 38q-11 0 -39 -24t-46.5 -47.5t-32 -61.5t-13.5 -78zM424 -375q58 0 116 24t100 78.5t42 133.5t-63.5 150.5t-198.5 144.5q-273 149 -273 354q0 141 85 223
t100 82q-9 0 -32.5 32t-49 80.5t-25.5 118.5t21 152.5t122.5 169t263.5 86.5t239.5 -42t86.5 -48t17 -12q34 -23 4 -70l-35 -43q-26 -36 -63 -12q-135 90 -218 90q-150 0 -217 -75.5t-67 -154.5q0 -138 205 -243q166 -83 234 -145t92 -114.5t24 -112.5t-25 -128.5
t-91.5 -132.5t-80.5 -64q11 0 35 -35t51 -87.5t27 -151.5q0 -173 -126 -279t-332 -106t-359 166q-10 11 -14 17t-2.5 21.5t16.5 31.5l41 45q35 35 58 7t74.5 -69t105.5 -61.5t112 -20.5z" />
    <glyph glyph-name="dieresis" unicode="&#xa8;" horiz-adv-x="763" 
d="M545 1286q0 45 34.5 80t77.5 35t68 -26.5t25 -70.5t-35.5 -79t-78.5 -35t-67 25.5t-24 70.5zM186 1286q0 44 36 79.5t78 35.5t66.5 -26.5t24.5 -70.5t-35.5 -79t-77.5 -35t-67 26t-25 70z" />
    <glyph glyph-name="copyright" unicode="&#xa9;" horiz-adv-x="1601" 
d="M487 661q0 129 53.5 225.5t146.5 154t210 57.5t195 -78q24 -28 -7 -59l-36 -37q-24 -24 -50 -2q-56 47 -125 47q-101 0 -175 -86t-74 -190t49.5 -164t123.5 -60t138 45q35 21 53 -2l31 -39q9 -11 5.5 -28t-15.5 -29q-94 -86 -220 -86t-214.5 101t-88.5 230zM266 618
q0 -128 59.5 -249.5t167 -194t235.5 -72.5t245.5 56t205 149t140.5 222.5t53 272.5t-59 264t-166.5 192t-223.5 71t-211 -35t-174.5 -99.5t-141 -149.5t-96 -192t-34.5 -235zM150 640q0 148 62.5 302.5t166.5 266.5t246.5 178.5t296.5 66.5t285.5 -86.5t207.5 -234
t76 -317.5t-62 -325t-166 -266.5t-246 -178t-277 -66.5t-241 51t-182 137t-121.5 205t-45.5 267z" />
    <glyph glyph-name="ordfeminine" unicode="&#xaa;" horiz-adv-x="649" 
d="M324 924q77 0 145 77l16 115q-43 27 -93 27t-90 -33.5t-46 -81.5t12 -76t56 -28zM403 1223q49 0 99 -21q15 83 7.5 120.5t-66.5 37.5t-106 -18t-53 -20t-13 5.5t-9 18.5l-4 36q-2 20 12 28t59.5 26t132.5 18t121.5 -38t27 -121.5t-12.5 -110.5l-43 -312q-1 -12 -9.5 -20
t-19.5 -8h-43q-15 0 -18 20l-6 33q-26 -23 -57.5 -46.5t-99.5 -23.5t-110.5 56t-29.5 143q11 87 76.5 142t164.5 55z" />
    <glyph glyph-name="guillemotleft" unicode="&#xab;" horiz-adv-x="843" 
d="M684 836h45q23 0 28 -19.5t-9 -44.5l-177 -295l80 -291q6 -26 -3.5 -43.5t-33.5 -17.5h-36q-19 0 -27 16l-148 318q-11 22 7 49l233 303q20 25 41 25zM373 836h45q23 0 27.5 -19.5t-9.5 -44.5l-176 -295l80 -291q6 -26 -3.5 -43.5t-33.5 -17.5h-37q-18 0 -26 16l-148 318
q-11 23 6 49l234 303q20 25 41 25z" />
    <glyph glyph-name="logicalnot" unicode="&#xac;" horiz-adv-x="1107" 
d="M213 778h702q14 0 23.5 -12.5t7.5 -26.5l-59 -417q-1 -15 -14 -26t-27 -11h-68q-14 0 -22.5 11t-5.5 26l45 321h-602q-13 0 -22 12t-7 27l8 57q1 15 14 27t27 12z" />
    <glyph glyph-name="uni00AD" unicode="&#xad;" horiz-adv-x="743" 
d="M174 565h391q15 0 23.5 -11t5.5 -28l-6 -39q-3 -15 -14.5 -25.5t-26.5 -10.5h-389q-15 0 -24.5 10.5t-6.5 25.5l6 39q3 17 14.5 28t26.5 11z" />
    <glyph glyph-name="registered" unicode="&#xae;" horiz-adv-x="1601" 
d="M891 748q53 0 88 39.5t35 89.5t-24 77t-66 27h-176l-33 -233h176zM678 1094h264q84 0 140.5 -54t56.5 -157q0 -152 -77 -192t-106 -46q29 -88 76 -246q7 -21 -2.5 -38t-36.5 -17h-55q-27 0 -37 29l-65 256h-136l-34 -246q-2 -15 -13 -27t-26 -12h-56q-15 0 -23 12t-5 27
l94 672q2 15 14 27t27 12zM266 618q0 -128 59.5 -249.5t167 -194t235.5 -72.5t245.5 56t205 149t140.5 222.5t53 272.5t-59 264t-166.5 192t-223.5 71t-211 -35t-174.5 -99.5t-141 -149.5t-96 -192t-34.5 -235zM150 640q0 148 62.5 302.5t166.5 266.5t246.5 178.5
t296.5 66.5t285.5 -86.5t207.5 -234t76 -317.5t-62 -325t-166 -266.5t-246 -178t-277 -66.5t-241 51t-182 137t-121.5 205t-45.5 267z" />
    <glyph glyph-name="macron" unicode="&#xaf;" horiz-adv-x="763" 
d="M127 1313h473q14 0 23 -11t6 -28l-6 -43q-1 -15 -13.5 -26t-27.5 -11h-471q-15 0 -24 11t-7 26l6 43q3 17 14.5 28t26.5 11z" />
    <glyph glyph-name="degree" unicode="&#xb0;" horiz-adv-x="696" 
d="M293 1160q0 -66 32.5 -104t88.5 -38t102.5 53t46.5 118t-31.5 104.5t-87.5 39.5t-103.5 -53.5t-47.5 -119.5zM178 1156q0 114 84 206t207 92q89 0 151 -70t62 -184t-86.5 -206.5t-204.5 -92.5q-86 0 -149.5 70.5t-63.5 184.5z" />
    <glyph glyph-name="plusminus" unicode="&#xb1;" 
d="M305 922h287l43 303q3 15 15 26t26 11h61q14 0 23 -11t8 -26l-43 -303h287q13 0 21.5 -12t6.5 -27l-8 -58q-3 -15 -14.5 -27t-24.5 -12h-286l-35 -239q-1 -15 -13 -26t-26 -11h-62q-14 0 -22.5 11t-7.5 26l32 239h-286q-14 0 -23 12t-6 27l8 58q2 15 14 27t25 12z
M229 260h707q13 0 22 -12t7 -27l-9 -57q-3 -16 -14 -27.5t-24 -11.5h-707q-14 0 -23 12t-6 27l8 57q2 15 14 27t25 12z" />
    <glyph glyph-name="uni00B2" unicode="&#xb2;" horiz-adv-x="546" 
d="M481 1480q0 32 -21.5 57.5t-69.5 25.5t-114 -62q-13 -11 -24 0l-29 37q-11 16 2 29q92 92 181 92t137.5 -45.5t48.5 -107.5t-28.5 -108t-88.5 -106l-164 -170h211q16 0 13 -20l-7 -51q-5 -19 -18 -19h-358q-20 0 -17 19l4 32l264 269q41 41 59.5 68.5t18.5 59.5z" />
    <glyph glyph-name="uni00B3" unicode="&#xb3;" horiz-adv-x="548" 
d="M333 1104q37 0 73 29t36 71t-28.5 66t-85.5 24h-58q-19 0 -16 19l6 51q3 18 23 18h57q60 0 93.5 29t33.5 69t-24 62.5t-66 22.5t-98 -56q-14 -11 -25 0l-33 43q-5 4 -4 12t6 12t48 43.5t148 39.5q64 0 112.5 -41t48.5 -103t-37.5 -106.5t-81.5 -62.5v-5
q33 -14 62.5 -51.5t29.5 -85.5q0 -80 -68.5 -136t-180.5 -56t-165 84q-11 12 6 22l37 41q16 11 24 1t20 -19.5t41 -23t66 -13.5z" />
    <glyph glyph-name="acute" unicode="&#xb4;" horiz-adv-x="557" 
d="M172 1194q-9 25 16 39l304 172q8 8 26 5.5t25 -21.5l26 -68q12 -31 -16 -43l-322 -137q-35 -15 -45 16z" />
    <glyph glyph-name="uni00B5" unicode="&#xb5;" horiz-adv-x="1030" 
d="M274 946h72q17 0 28 -13.5t9 -31.5l-72 -512q-20 -141 9.5 -208.5t134.5 -67.5q118 0 233 153l92 635q2 17 16 31t31 14h68q17 0 28 -13.5t9 -31.5l-121 -856q-2 -19 -14.5 -32t-32.5 -13h-41q-27 0 -33 41l-8 59l-66 -62q-66 -61 -208 -61q-93 0 -152 35l-63 -454
q-3 -18 -17 -31.5t-29 -13.5h-71q-17 0 -27.5 13t-7.5 32l186 1343q3 17 17.5 31t29.5 14z" />
    <glyph glyph-name="paragraph" unicode="&#xb6;" horiz-adv-x="1382" 
d="M139 935q0 142 59 254.5t156.5 178.5t206.5 66h819q13 0 22 -12t7 -27l-6 -41q-3 -17 -15 -28t-26 -11h-193l-247 -1764q-2 -15 -14 -26.5t-27 -11.5h-50q-14 0 -22.5 11.5t-5.5 26.5l246 1764h-281l-248 -1764q-1 -15 -14 -26.5t-27 -11.5h-47q-13 0 -22 11.5t-7 26.5
l144 1027h-80q-140 0 -234 107.5t-94 249.5z" />
    <glyph glyph-name="periodcentered" unicode="&#xb7;" horiz-adv-x="481" 
d="M117 526q0 48 40.5 86.5t88.5 38.5t76 -29.5t28 -77.5t-40 -87t-88 -39t-76.5 30t-28.5 78z" />
    <glyph glyph-name="cedilla" unicode="&#xb8;" horiz-adv-x="505" 
d="M348 -283q0 76 -98 76q-52 0 -92 -20q-12 -4 -21.5 7.5t-3.5 22.5l125 203h117l-109 -143q24 8 68 8t86.5 -39t42.5 -122t-71.5 -142.5t-175.5 -59.5t-165 64q-15 18 6 43l19 25q23 32 45 10q46 -41 99 -41t90.5 28t37.5 80z" />
    <glyph glyph-name="uni00B9" unicode="&#xb9;" horiz-adv-x="372" 
d="M403 1638q18 0 15 -18l-82 -569q-4 -19 -19 -19h-71q-22 0 -17 19l60 430l-80 -23q-16 -3 -16 8l-5 41q0 14 11 23l145 108h59z" />
    <glyph glyph-name="ordmasculine" unicode="&#xba;" horiz-adv-x="681" 
d="M291 1091q0 -186 94 -186q72 0 114 79.5t42 181.5q0 188 -95 188q-71 0 -113 -80.5t-42 -182.5zM180 1057q0 183 73 289t206 106q89 0 140.5 -67t51.5 -183q0 -183 -72.5 -289t-205.5 -106q-89 0 -141 67t-52 183z" />
    <glyph glyph-name="guillemotright" unicode="&#xbb;" horiz-adv-x="845" 
d="M514 836h37q19 0 27 -17l147 -317q11 -23 -6 -49l-234 -303q-20 -25 -41 -25h-45q-23 0 -27.5 19t9.5 44l176 295l-80 291q-6 26 3.5 44t33.5 18zM201 836h37q18 0 26 -17l148 -317q11 -23 -6 -49l-234 -303q-20 -25 -41 -25h-45q-23 0 -27.5 19t9.5 44l176 295l-80 291
q-6 26 3.5 44t33.5 18z" />
    <glyph glyph-name="onequarter" unicode="&#xbc;" horiz-adv-x="1222" 
d="M723 211h166l33 227zM981 606h45q6 0 11.5 -5.5t4.5 -12.5l-53 -379h74q14 0 14 -16l-6 -54q-3 -16 -20 -16h-74l-14 -105q-4 -18 -23 -18h-66q-6 0 -11.5 5.5t-4.5 12.5l14 103h-272q-15 0 -12 18l8 60l371 401q6 6 14 6zM414 1434q7 0 11.5 -5.5t2.5 -13.5l-82 -569
q-4 -19 -18 -19h-72q-21 0 -16 19l59 430l-80 -23q-16 -3 -16 9l-4 41q0 14 10 22l145 109h60zM971 1434h49q20 0 27 -18t-5 -38l-827 -1358q-10 -20 -33 -20h-45q-20 0 -27 17.5t5 37.5l823 1358q12 21 33 21z" />
    <glyph glyph-name="onehalf" unicode="&#xbd;" horiz-adv-x="1191" 
d="M954 452q0 26 -22 52t-70 26t-112 -61q-14 -11 -25 0l-29 37q-11 16 2 29q92 92 181 92t137.5 -45.5t48.5 -107.5t-28.5 -108t-88.5 -106l-164 -170h211q16 0 13 -20l-7 -52q-5 -18 -18 -18h-358q-20 0 -17 18l4 33l265 268q52 58 64.5 82.5t12.5 50.5zM414 1434
q7 0 11.5 -5.5t2.5 -13.5l-82 -569q-4 -19 -18 -19h-72q-21 0 -16 19l59 430l-80 -23q-16 -3 -16 9l-4 41q0 14 10 22l145 109h60zM971 1434h49q20 0 27 -18t-5 -38l-827 -1358q-10 -20 -33 -20h-45q-20 0 -27 17.5t5 37.5l823 1358q12 21 33 21z" />
    <glyph glyph-name="threequarters" unicode="&#xbe;" horiz-adv-x="1359" 
d="M858 211h166l33 227zM1116 606h45q7 0 12.5 -5.5t4.5 -12.5l-54 -379h74q14 0 14 -16l-6 -54q-3 -16 -20 -16h-74l-14 -105q-4 -18 -23 -18h-65q-7 0 -12.5 5.5t-4.5 12.5l15 103h-273q-15 0 -12 18l8 60l371 401q6 6 14 6zM1106 1434h49q20 0 27.5 -18t-4.5 -38
l-828 -1358q-10 -20 -33 -20h-45q-20 0 -27 17.5t5 37.5l823 1358q12 21 33 21zM337 899q37 0 73 29.5t36 71.5t-28.5 66t-85.5 24h-58q-19 0 -16 18l6 51q3 19 23 19h57q60 0 93.5 29t33.5 69t-24.5 62t-66.5 22t-97 -55q-14 -11 -25 0l-33 43q-5 4 -4 12t6 12t48 43
t148 39q64 0 112.5 -40.5t48.5 -102.5t-37.5 -107t-81.5 -63v-4q33 -14 62.5 -52t29.5 -86q0 -80 -68.5 -136t-180.5 -56t-165 84q-11 11 7 22l36 41q16 10 24 0t20 -19t41 -22.5t66 -13.5z" />
    <glyph glyph-name="questiondown" unicode="&#xbf;" horiz-adv-x="829" 
d="M346 844q0 48 39 86.5t85 38.5t74.5 -30.5t28.5 -78.5t-39.5 -86.5t-86.5 -38.5t-74 30.5t-27 78.5zM446 391q31 0 29 -39l-12 -86q-8 -61 -28 -93t-37.5 -59t-76.5 -71q-58 -44 -86.5 -66t-57 -46.5t-47.5 -63.5t-19 -97q0 -59 45 -104t120 -45q118 0 166.5 48.5
t68.5 69.5t24 25q24 24 47 3l36 -31q42 -37 -69 -139.5t-297 -102.5q-126 0 -206.5 75t-80.5 179t27 149.5t43 68.5t54.5 57.5t84.5 67.5q66 49 104 85t46 90l12 84q6 41 43 41h67z" />
    <glyph glyph-name="Agrave" unicode="&#xc0;" horiz-adv-x="1259" 
d="M618 1784l44 69q8 12 25 13t24 -6l256 -172q21 -13 6 -39l-25 -41q-12 -20 -45 -4l-270 131q-35 17 -15 49zM358 487h525l-162 672h-12zM748 1454h18q22 0 29 -22l364 -1379q5 -20 -7 -36.5t-32 -16.5h-86q-25 0 -30 23l-82 337h-639l-174 -337q-14 -23 -39 -23h-88
q-21 0 -28.5 16.5t3.5 36.5l756 1379q11 22 35 22z" />
    <glyph glyph-name="Aacute" unicode="&#xc1;" horiz-adv-x="1259" 
d="M594 1649q-9 25 16 39l303 172q8 8 26.5 5t25.5 -22l26 -67q12 -31 -16 -43l-322 -138q-34 -15 -45 17zM358 487h525l-162 672h-12zM748 1454h18q22 0 29 -22l364 -1379q5 -20 -7 -36.5t-32 -16.5h-86q-25 0 -30 23l-82 337h-639l-174 -337q-14 -23 -39 -23h-88
q-21 0 -28.5 16.5t3.5 36.5l756 1379q11 22 35 22z" />
    <glyph glyph-name="Acircumflex" unicode="&#xc2;" horiz-adv-x="1259" 
d="M811 1878h6q19 0 39 -25l172 -186q16 -19 -4 -39l-29 -31q-13 -13 -20 -15.5t-23 7.5l-159 135l-209 -145q-31 -22 -45 6l-19 37q-15 32 10 49l244 193q18 14 37 14zM358 487h525l-162 672h-12zM748 1454h18q22 0 29 -22l364 -1379q5 -20 -7 -36.5t-32 -16.5h-86
q-25 0 -30 23l-82 337h-639l-174 -337q-14 -23 -39 -23h-88q-21 0 -28.5 16.5t3.5 36.5l756 1379q11 22 35 22z" />
    <glyph glyph-name="Atilde" unicode="&#xc3;" horiz-adv-x="1259" 
d="M708 1864q36 0 63.5 -17t62.5 -74t63 -57q53 0 86 96q17 43 51 23l29 -16q27 -16 17 -43q-21 -58 -69 -118.5t-130 -60.5q-31 0 -60 23.5t-47 51.5t-38 51.5t-36 23.5t-30 -8t-22.5 -17t-18.5 -27t-13.5 -25.5t-9.5 -23.5t-20.5 -21t-28.5 3l-33 17q-22 15 -11 41
t24 49.5t37.5 55.5t61 52.5t72.5 20.5zM358 487h525l-162 672h-12zM748 1454h18q22 0 29 -22l364 -1379q5 -20 -7 -36.5t-32 -16.5h-86q-25 0 -30 23l-82 337h-639l-174 -337q-14 -23 -39 -23h-88q-21 0 -28.5 16.5t3.5 36.5l756 1379q11 22 35 22z" />
    <glyph glyph-name="Adieresis" unicode="&#xc4;" horiz-adv-x="1259" 
d="M889 1710q0 45 35 80t77 35t67.5 -26.5t25.5 -70.5t-36 -79t-78 -35t-66.5 25.5t-24.5 70.5zM489 1710q0 44 35 79.5t77 35.5t67.5 -26.5t25.5 -70.5t-35.5 -79t-78.5 -35t-67 26t-24 70zM358 487h525l-162 672h-12zM748 1454h18q22 0 29 -22l364 -1379q5 -20 -7 -36.5
t-32 -16.5h-86q-25 0 -30 23l-82 337h-639l-174 -337q-14 -23 -39 -23h-88q-21 0 -28.5 16.5t3.5 36.5l756 1379q11 22 35 22z" />
    <glyph glyph-name="Aring" unicode="&#xc5;" horiz-adv-x="1259" 
d="M694 1766q0 -50 23.5 -82.5t67.5 -32.5t81 42.5t37 92.5t-22.5 80t-66.5 30t-82 -40t-38 -90zM596 1757q0 93 69 167.5t155 74.5t136 -56.5t50 -148.5t-70 -167t-156 -75t-135 56t-49 149zM358 487h525l-162 672h-12zM748 1454h18q22 0 29 -22l364 -1379q5 -20 -7 -36.5
t-32 -16.5h-86q-25 0 -30 23l-82 337h-639l-174 -337q-14 -23 -39 -23h-88q-21 0 -28.5 16.5t3.5 36.5l756 1379q11 22 35 22z" />
    <glyph glyph-name="AE" unicode="&#xc6;" horiz-adv-x="1667" 
d="M410 487h346l94 654zM948 1434h707q13 0 21.5 -12t6.5 -27l-8 -60q-2 -15 -14 -27t-27 -12h-616l-72 -499h529q13 0 21.5 -12t6.5 -27l-8 -60q-3 -17 -15 -28t-26 -11h-526l-74 -522h619q13 0 21.5 -12t6.5 -27l-8 -59q-2 -15 -14 -27t-27 -12h-729q-15 0 -24 12t-7 27
l45 321h-420l-231 -337q-18 -23 -39 -23h-98q-21 0 -26 16.5t9 36.5l926 1317q31 44 49.5 54t40.5 10z" />
    <glyph glyph-name="Ccedilla" unicode="&#xc7;" horiz-adv-x="1327" 
d="M125 616q0 228 100.5 420t279 305t396.5 113q133 0 232.5 -47.5t187.5 -142.5q11 -10 9 -29t-15 -29l-60 -47q-26 -21 -53 10q-52 59 -142 98.5t-192 39.5t-210 -55t-188 -146t-128.5 -215.5t-48.5 -257.5t52 -248t150 -185.5t231 -70.5t218 63.5t120 91.5t52 11l64 -62
q19 -27 -9 -55q-188 -180 -432 -196l-90 -119q24 8 51 8q63 0 107.5 -39.5t44.5 -121.5t-75 -142t-179 -60t-164 64q-15 18 6 43l19 25q23 32 45 10q46 -41 100 -41t90.5 24.5t36.5 75.5q0 68 -98 68q-59 0 -101 -21q-12 -4 -21 8t-3 23l119 199q-102 13 -194.5 67.5
t-160 137t-107.5 194t-40 231.5z" />
    <glyph glyph-name="Egrave" unicode="&#xc8;" horiz-adv-x="1093" 
d="M578 1784l43 69q8 12 25 13t24 -6l256 -172q21 -13 6 -39l-25 -41q-12 -20 -45 -4l-270 131q-34 16 -14 49zM348 1434h731q15 0 23.5 -12t5.5 -27l-8 -60q-2 -15 -14 -27t-27 -12h-606l-72 -499h518q14 0 23 -12t6 -27l-8 -60q-1 -17 -13 -28t-26 -11h-519l-73 -522h608
q15 0 23.5 -12t5.5 -27l-8 -59q-2 -15 -14 -27t-27 -12h-730q-15 0 -23 12t-5 27l190 1356q1 15 13 27t26 12z" />
    <glyph glyph-name="Eacute" unicode="&#xc9;" horiz-adv-x="1093" 
d="M555 1649q-9 25 16 39l303 172q8 8 26.5 5t25.5 -22l26 -67q12 -31 -16 -43l-322 -138q-34 -15 -45 17zM348 1434h731q15 0 23.5 -12t5.5 -27l-8 -60q-2 -15 -14 -27t-27 -12h-606l-72 -499h518q14 0 23 -12t6 -27l-8 -60q-1 -17 -13 -28t-26 -11h-519l-73 -522h608
q15 0 23.5 -12t5.5 -27l-8 -59q-2 -15 -14 -27t-27 -12h-730q-15 0 -23 12t-5 27l190 1356q1 15 13 27t26 12z" />
    <glyph glyph-name="Ecircumflex" unicode="&#xca;" horiz-adv-x="1093" 
d="M770 1878h6q19 0 39 -25l172 -186q16 -19 -4 -39l-29 -31q-13 -13 -20 -15.5t-23 7.5l-159 135l-209 -145q-31 -22 -45 6l-19 37q-15 32 10 49l244 193q18 14 37 14zM348 1434h731q15 0 23.5 -12t5.5 -27l-8 -60q-2 -15 -14 -27t-27 -12h-606l-72 -499h518q14 0 23 -12
t6 -27l-8 -60q-1 -17 -13 -28t-26 -11h-519l-73 -522h608q15 0 23.5 -12t5.5 -27l-8 -59q-2 -15 -14 -27t-27 -12h-730q-15 0 -23 12t-5 27l190 1356q1 15 13 27t26 12z" />
    <glyph glyph-name="Edieresis" unicode="&#xcb;" horiz-adv-x="1093" 
d="M838 1710q0 45 34.5 80t76.5 35t67.5 -26.5t25.5 -70.5t-36 -79t-78 -35t-66 25.5t-24 70.5zM438 1710q0 45 35 80t77 35t67.5 -26.5t25.5 -70.5t-36.5 -79t-78.5 -35t-66 25.5t-24 70.5zM348 1434h731q15 0 23.5 -12t5.5 -27l-8 -60q-2 -15 -14 -27t-27 -12h-606
l-72 -499h518q14 0 23 -12t6 -27l-8 -60q-1 -17 -13 -28t-26 -11h-519l-73 -522h608q15 0 23.5 -12t5.5 -27l-8 -59q-2 -15 -14 -27t-27 -12h-730q-15 0 -23 12t-5 27l190 1356q1 15 13 27t26 12z" />
    <glyph glyph-name="Igrave" unicode="&#xcc;" horiz-adv-x="546" 
d="M256 1784l43 69q8 12 25 13t24 -6l256 -172q21 -13 6 -39l-24 -41q-12 -20 -45 -4l-271 131q-34 16 -14 49zM348 1434h90q14 0 23 -12t6 -27l-191 -1356q-2 -15 -13.5 -27t-24.5 -12h-91q-14 0 -22.5 12t-5.5 27l190 1356q1 15 13 27t26 12z" />
    <glyph glyph-name="Iacute" unicode="&#xcd;" horiz-adv-x="546" 
d="M231 1649q-9 24 17 39l303 172q8 8 26 5t25 -22l27 -67q12 -30 -17 -43l-321 -138q-34 -15 -45 17zM348 1434h90q14 0 23 -12t6 -27l-191 -1356q-2 -15 -13.5 -27t-24.5 -12h-91q-14 0 -22.5 12t-5.5 27l190 1356q1 15 13 27t26 12z" />
    <glyph glyph-name="Icircumflex" unicode="&#xce;" horiz-adv-x="546" 
d="M449 1878h6q19 0 39 -25l172 -186q16 -19 -4 -39l-29 -31q-13 -13 -20 -15.5t-23 7.5l-160 135l-209 -145q-31 -22 -45 6l-18 37q-15 32 10 49l244 193q17 14 37 14zM348 1434h90q14 0 23 -12t6 -27l-191 -1356q-2 -15 -13.5 -27t-24.5 -12h-91q-14 0 -22.5 12t-5.5 27
l190 1356q1 15 13 27t26 12z" />
    <glyph glyph-name="Idieresis" unicode="&#xcf;" horiz-adv-x="546" 
d="M528 1710q0 45 35 80t77 35t67.5 -26.5t25.5 -70.5t-36.5 -79t-78.5 -35t-66 25.5t-24 70.5zM129 1710q0 45 35 80t77 35t67.5 -26.5t25.5 -70.5t-36 -79t-78 -35t-66.5 25.5t-24.5 70.5zM348 1434h90q14 0 23 -12t6 -27l-191 -1356q-2 -15 -13.5 -27t-24.5 -12h-91
q-14 0 -22.5 12t-5.5 27l190 1356q1 15 13 27t26 12z" />
    <glyph glyph-name="Eth" unicode="&#xd0;" horiz-adv-x="1411" 
d="M555 141q162 0 297.5 85.5t216 239t80.5 354.5t-118.5 337.5t-311.5 136.5h-266l-76 -538h375q33 0 27 -46t-40 -46h-377l-71 -523h264zM154 664q-32 0 -26 46q2 22 14 34t26 12h53l90 639q1 15 13 27t26 12h416q157 0 285.5 -86.5t199 -229t70.5 -306.5t-60 -314
t-161 -259t-241 -174t-294 -65h-418q-13 0 -21 12t-5 27l88 625h-55z" />
    <glyph glyph-name="Ntilde" unicode="&#xd1;" horiz-adv-x="1452" 
d="M788 1864q36 0 63.5 -17t62.5 -74t63 -57q53 0 86 96q17 43 51 23l29 -16q27 -16 17 -43q-21 -58 -69 -118.5t-130 -60.5q-31 0 -60 23.5t-47 51.5t-38 51.5t-36 23.5t-30 -8t-22.5 -17t-18.5 -27t-13.5 -25.5t-9.5 -23.5t-20.5 -21t-28.5 3l-33 17q-22 15 -11 41
t24 49.5t37.5 55.5t61 52.5t72.5 20.5zM356 1454h31q19 0 31 -18l649 -1131h2l154 1090q2 15 15.5 27t31.5 12h65q17 0 27 -11.5t8 -27.5l-194 -1379q-1 -15 -15 -25.5t-31 -10.5h-30q-19 0 -31 18l-651 1151h-4l-150 -1110q-2 -15 -16 -27t-31 -12h-65q-17 0 -26 11.5
t-7 27.5l192 1378q2 15 15 26t30 11z" />
    <glyph glyph-name="Ograve" unicode="&#xd2;" horiz-adv-x="1558" 
d="M774 1784l43 69q8 12 25 13t24 -6l256 -172q21 -13 6 -39l-24 -41q-12 -20 -45 -4l-271 131q-34 16 -14 49zM268 605q0 -196 126 -339t321 -143q155 0 296.5 94t228.5 253.5t87 355.5t-126 340.5t-320 144.5q-154 0 -296 -95t-229.5 -255t-87.5 -356zM121 602
q0 172 64 329.5t169.5 271.5t248.5 182.5t299 68.5t288.5 -82t208.5 -226t76 -316t-63 -329t-167.5 -271t-248.5 -182t-302 -68t-290 81.5t-207.5 225t-75.5 315.5z" />
    <glyph glyph-name="Oacute" unicode="&#xd3;" horiz-adv-x="1558" 
d="M750 1649q-9 25 16 39l303 172q8 8 26 5t25 -22l27 -67q12 -30 -17 -43l-321 -138q-34 -15 -45 17zM268 605q0 -196 126 -339t321 -143q155 0 296.5 94t228.5 253.5t87 355.5t-126 340.5t-320 144.5q-154 0 -296 -95t-229.5 -255t-87.5 -356zM121 602q0 172 64 329.5
t169.5 271.5t248.5 182.5t299 68.5t288.5 -82t208.5 -226t76 -316t-63 -329t-167.5 -271t-248.5 -182t-302 -68t-290 81.5t-207.5 225t-75.5 315.5z" />
    <glyph glyph-name="Ocircumflex" unicode="&#xd4;" horiz-adv-x="1558" 
d="M965 1878h6q19 0 39 -25l172 -186q16 -19 -4 -39l-29 -31q-13 -13 -20 -15.5t-23 7.5l-160 135l-209 -145q-31 -22 -45 6l-18 37q-15 32 10 49l244 193q18 14 37 14zM268 605q0 -196 126 -339t321 -143q155 0 296.5 94t228.5 253.5t87 355.5t-126 340.5t-320 144.5
q-154 0 -296 -95t-229.5 -255t-87.5 -356zM121 602q0 172 64 329.5t169.5 271.5t248.5 182.5t299 68.5t288.5 -82t208.5 -226t76 -316t-63 -329t-167.5 -271t-248.5 -182t-302 -68t-290 81.5t-207.5 225t-75.5 315.5z" />
    <glyph glyph-name="Otilde" unicode="&#xd5;" horiz-adv-x="1558" 
d="M862 1864q36 0 60 -15t39.5 -37t39 -59t50.5 -37q53 0 86 96q17 43 51 23l29 -16q27 -16 17 -43q-22 -61 -70.5 -120t-129.5 -59q-31 0 -60 23.5t-46.5 51.5t-37.5 51.5t-36 23.5t-30 -8t-22.5 -17t-18.5 -27t-13.5 -25.5t-9.5 -23.5t-20.5 -21t-28.5 3l-33 17
q-22 15 -11 41t24 49.5t37 55.5t61 52.5t73 20.5zM268 605q0 -196 126 -339t321 -143q155 0 296.5 94t228.5 253.5t87 355.5t-126 340.5t-320 144.5q-154 0 -296 -95t-229.5 -255t-87.5 -356zM121 602q0 172 64 329.5t169.5 271.5t248.5 182.5t299 68.5t288.5 -82
t208.5 -226t76 -316t-63 -329t-167.5 -271t-248.5 -182t-302 -68t-290 81.5t-207.5 225t-75.5 315.5z" />
    <glyph glyph-name="Odieresis" unicode="&#xd6;" horiz-adv-x="1558" 
d="M1044 1710q0 44 35 79.5t77 35.5t67.5 -26.5t25.5 -70.5t-35.5 -79t-78.5 -35t-67 26t-24 70zM645 1710q0 45 35 80t77 35t67.5 -26.5t25.5 -70.5t-36 -79t-78 -35t-66.5 25.5t-24.5 70.5zM268 605q0 -196 126 -339t321 -143q155 0 296.5 94t228.5 253.5t87 355.5
t-126 340.5t-320 144.5q-154 0 -296 -95t-229.5 -255t-87.5 -356zM121 602q0 172 64 329.5t169.5 271.5t248.5 182.5t299 68.5t288.5 -82t208.5 -226t76 -316t-63 -329t-167.5 -271t-248.5 -182t-302 -68t-290 81.5t-207.5 225t-75.5 315.5z" />
    <glyph glyph-name="multiply" unicode="&#xd7;" 
d="M444 1040q16 0 23 -10l166 -223l241 233q24 22 48 -2l43 -47q9 -9 7 -26t-14 -27l-239 -233l170 -226q9 -12 5.5 -28t-15.5 -27l-41 -33q-28 -26 -50 -2l-170 227l-237 -229q-25 -22 -47 0l-43 47q-9 9 -6.5 26t14.5 27l236 230l-166 223q-8 10 -6 27.5t14 27.5l39 35
q12 10 28 10z" />
    <glyph glyph-name="Oslash" unicode="&#xd8;" horiz-adv-x="1560" 
d="M717 123q124 0 239 60t196 156t129 220t48 265t-74 270l-860 -828q124 -143 322 -143zM270 604q0 -144 78 -272l860 827q-129 152 -325 152q-124 0 -239 -60.5t-196 -157.5t-129.5 -221t-48.5 -268zM700 -20q-248 0 -413 182l-133 -127q-25 -22 -44 -1q-35 38 -6 64
l132 127q-113 168 -113 398t147 459.5t321.5 300.5t307.5 71q255 0 420 -190l137 133q10 11 25 11t22 -11q31 -35 2 -64l-137 -133q109 -164 109 -395t-146 -457.5t-321.5 -297t-309.5 -70.5z" />
    <glyph glyph-name="Ugrave" unicode="&#xd9;" horiz-adv-x="1347" 
d="M657 1784l43 69q8 12 25.5 13t24.5 -6l256 -172q21 -13 6 -39l-25 -41q-12 -20 -45 -4l-270 131q-35 17 -15 49zM166 416q0 42 6 88l123 891q3 15 15.5 27t25.5 12h88q15 0 23.5 -12t5.5 -27l-121 -879q-6 -44 -6 -82q0 -142 74 -225.5t218 -83.5t251.5 109.5
t131.5 277.5l123 883q2 15 14 27t25 12h88q14 0 23 -12t6 -27l-123 -891q-33 -241 -179.5 -382.5t-387.5 -141.5q-188 0 -306 120t-118 316z" />
    <glyph glyph-name="Uacute" unicode="&#xda;" horiz-adv-x="1347" 
d="M633 1649q-9 25 16 39l303 172q8 8 26.5 5t25.5 -22l26 -67q12 -31 -16 -43l-322 -138q-34 -15 -45 17zM166 416q0 42 6 88l123 891q3 15 15.5 27t25.5 12h88q15 0 23.5 -12t5.5 -27l-121 -879q-6 -44 -6 -82q0 -142 74 -225.5t218 -83.5t251.5 109.5t131.5 277.5
l123 883q2 15 14 27t25 12h88q14 0 23 -12t6 -27l-123 -891q-33 -241 -179.5 -382.5t-387.5 -141.5q-188 0 -306 120t-118 316z" />
    <glyph glyph-name="Ucircumflex" unicode="&#xdb;" horiz-adv-x="1347" 
d="M850 1878h6q19 0 39 -25l172 -186q16 -19 -4 -39l-29 -31q-13 -13 -20 -15.5t-23 7.5l-160 135l-208 -145q-31 -22 -45 6l-19 37q-15 32 10 49l244 193q18 14 37 14zM166 416q0 42 6 88l123 891q3 15 15.5 27t25.5 12h88q15 0 23.5 -12t5.5 -27l-121 -879q-6 -44 -6 -82
q0 -142 74 -225.5t218 -83.5t251.5 109.5t131.5 277.5l123 883q2 15 14 27t25 12h88q14 0 23 -12t6 -27l-123 -891q-33 -241 -179.5 -382.5t-387.5 -141.5q-188 0 -306 120t-118 316z" />
    <glyph glyph-name="Udieresis" unicode="&#xdc;" horiz-adv-x="1347" 
d="M926 1710q0 45 34.5 80t76.5 35t67.5 -26.5t25.5 -70.5t-36 -79t-78 -35t-66 25.5t-24 70.5zM526 1710q0 45 35 80t77 35t67.5 -26.5t25.5 -70.5t-36.5 -79t-78.5 -35t-66 25.5t-24 70.5zM166 416q0 42 6 88l123 891q3 15 15.5 27t25.5 12h88q15 0 23.5 -12t5.5 -27
l-121 -879q-6 -44 -6 -82q0 -142 74 -225.5t218 -83.5t251.5 109.5t131.5 277.5l123 883q2 15 14 27t25 12h88q14 0 23 -12t6 -27l-123 -891q-33 -241 -179.5 -382.5t-387.5 -141.5q-188 0 -306 120t-118 316z" />
    <glyph glyph-name="Yacute" unicode="&#xdd;" horiz-adv-x="1097" 
d="M498 1649q-9 25 16 39l303 172q8 8 26 5t25 -22l27 -67q12 -31 -16 -43l-322 -138q-34 -15 -45 17zM162 1434h94q20 0 29 -19l284 -584h4l455 584q14 19 33 19h98q23 0 29 -20t-8 -40l-541 -682l-92 -653q-1 -15 -14 -27t-27 -12h-86q-15 0 -24 12t-7 27l92 651l-348 694
q-9 19 -0.5 34.5t29.5 15.5z" />
    <glyph glyph-name="Thorn" unicode="&#xde;" horiz-adv-x="1136" 
d="M608 414q121 0 217.5 104.5t96.5 247.5q0 107 -65.5 180.5t-162.5 73.5h-280l-86 -606h280zM350 1434h86q13 0 23 -12t8 -27l-31 -219h289q150 0 252 -118t102 -272t-65.5 -270.5t-176 -185t-237.5 -68.5h-293l-31 -223q-3 -15 -15 -27t-25 -12h-86q-15 0 -24 12t-7 27
l190 1354q3 16 15 28.5t26 12.5z" />
    <glyph glyph-name="germandbls" unicode="&#xdf;" horiz-adv-x="1185" 
d="M706 1454q155 0 255 -73.5t100 -210.5t-52.5 -207t-84 -106.5t-53 -69t-21.5 -58.5t31 -69t67.5 -86t67.5 -112.5t31 -142.5q0 -150 -102 -247t-238 -97q-101 0 -199 45q-41 18 -27 56l23 55q12 36 49 23q1 -1 12 -6.5t15.5 -8t33.5 -14.5t96 -12q68 0 125.5 60.5
t57.5 149.5t-49.5 149.5t-98.5 120t-49 115.5t22 99.5t53 81.5t84.5 102.5t53.5 146.5t-51.5 131.5t-136.5 49.5q-164 0 -252.5 -123.5t-112.5 -300.5l-186 -1335q-2 -19 -16 -33t-31 -14h-74q-15 0 -25.5 14.5t-7.5 32.5l189 1321q36 257 132 373t188.5 158t180.5 42z" />
    <glyph glyph-name="agrave" unicode="&#xe0;" horiz-adv-x="1050" 
d="M426 1331l43 70q8 12 25 12.5t24 -6.5l256 -172q21 -13 6 -39l-24 -41q-12 -20 -45 -4l-271 131q-34 16 -14 49zM242 414q0 -89 23 -152t73 -106t104 -43q96 0 159 50.5t95 102.5l56 453q-43 71 -107 91.5t-112 20.5t-99.5 -26.5t-95 -78t-70 -137.5t-26.5 -175zM551 967
q130 0 233 -103l31 60q8 22 31 22h47q20 0 26.5 -8.5t4.5 -30.5l-103 -872q-3 -35 -41 -35h-47q-27 0 -31 35l-8 59q-1 0 -69.5 -58.5t-209.5 -58.5q-142 0 -234.5 121.5t-92.5 293.5t62 303.5t166.5 201.5t234.5 70z" />
    <glyph glyph-name="aacute" unicode="&#xe1;" horiz-adv-x="1050" 
d="M465 1194q-9 25 16 39l303 172q8 8 26.5 5.5t25.5 -21.5l26 -68q12 -31 -16 -43l-322 -137q-35 -15 -45 16zM242 414q0 -89 23 -152t73 -106t104 -43q96 0 159 50.5t95 102.5l56 453q-43 71 -107 91.5t-112 20.5t-99.5 -26.5t-95 -78t-70 -137.5t-26.5 -175zM551 967
q130 0 233 -103l31 60q8 22 31 22h47q20 0 26.5 -8.5t4.5 -30.5l-103 -872q-3 -35 -41 -35h-47q-27 0 -31 35l-8 59q-1 0 -69.5 -58.5t-209.5 -58.5q-142 0 -234.5 121.5t-92.5 293.5t62 303.5t166.5 201.5t234.5 70z" />
    <glyph glyph-name="acircumflex" unicode="&#xe2;" horiz-adv-x="1050" 
d="M637 1427h6q20 0 39 -24l172 -186q16 -19 -4 -39l-29 -31q-13 -13 -20 -15.5t-23 7.5l-160 135l-208 -146q-31 -22 -45 7l-19 36q-16 33 10 50l244 192q18 14 37 14zM242 414q0 -89 23 -152t73 -106t104 -43q96 0 159 50.5t95 102.5l56 453q-43 71 -107 91.5t-112 20.5
t-99.5 -26.5t-95 -78t-70 -137.5t-26.5 -175zM551 967q130 0 233 -103l31 60q8 22 31 22h47q20 0 26.5 -8.5t4.5 -30.5l-103 -872q-3 -35 -41 -35h-47q-27 0 -31 35l-8 59q-1 0 -69.5 -58.5t-209.5 -58.5q-142 0 -234.5 121.5t-92.5 293.5t62 303.5t166.5 201.5t234.5 70z
" />
    <glyph glyph-name="atilde" unicode="&#xe3;" horiz-adv-x="1050" 
d="M535 1413q39 0 68 -23t56.5 -73.5t63.5 -50.5q53 0 86 96q17 42 51 22l29 -16q27 -16 16 -48q-12 -32 -33 -68.5t-64.5 -70.5t-85.5 -34q-72 0 -118 74.5t-78 74.5q-53 0 -70.5 -42t-23.5 -58t-20.5 -21t-28.5 3l-33 16q-22 15 -11 41t24 49.5t37 55.5t60 52.5t75 20.5z
M242 414q0 -89 23 -152t73 -106t104 -43q96 0 159 50.5t95 102.5l56 453q-43 71 -107 91.5t-112 20.5t-99.5 -26.5t-95 -78t-70 -137.5t-26.5 -175zM551 967q130 0 233 -103l31 60q8 22 31 22h47q20 0 26.5 -8.5t4.5 -30.5l-103 -872q-3 -35 -41 -35h-47q-27 0 -31 35l-8 59
q-1 0 -69.5 -58.5t-209.5 -58.5q-142 0 -234.5 121.5t-92.5 293.5t62 303.5t166.5 201.5t234.5 70z" />
    <glyph glyph-name="adieresis" unicode="&#xe4;" horiz-adv-x="1050" 
d="M705 1286q0 45 34.5 80t77.5 35t67.5 -26.5t24.5 -70.5t-35 -79t-78 -35t-67 25.5t-24 70.5zM346 1286q0 44 36 79.5t78 35.5t66.5 -26.5t24.5 -70.5t-35.5 -79t-77.5 -35t-67 26t-25 70zM242 414q0 -89 23 -152t73 -106t104 -43q96 0 159 50.5t95 102.5l56 453
q-43 71 -107 91.5t-112 20.5t-99.5 -26.5t-95 -78t-70 -137.5t-26.5 -175zM551 967q130 0 233 -103l31 60q8 22 31 22h47q20 0 26.5 -8.5t4.5 -30.5l-103 -872q-3 -35 -41 -35h-47q-27 0 -31 35l-8 59q-1 0 -69.5 -58.5t-209.5 -58.5q-142 0 -234.5 121.5t-92.5 293.5
t62 303.5t166.5 201.5t234.5 70z" />
    <glyph glyph-name="aring" unicode="&#xe5;" horiz-adv-x="1050" 
d="M512 1264q0 -50 23.5 -82.5t67.5 -32.5t81 42.5t37 92.5t-22.5 80.5t-66.5 30.5t-82 -40.5t-38 -90.5zM414 1255q0 93 69 167.5t155 74.5t135.5 -56.5t49.5 -148.5t-69.5 -166.5t-155.5 -74.5t-135 55.5t-49 148.5zM242 414q0 -89 23 -152t73 -106t104 -43q96 0 159 50.5
t95 102.5l56 453q-43 71 -107 91.5t-112 20.5t-99.5 -26.5t-95 -78t-70 -137.5t-26.5 -175zM551 967q130 0 233 -103l31 60q8 22 31 22h47q20 0 26.5 -8.5t4.5 -30.5l-103 -872q-3 -35 -41 -35h-47q-27 0 -31 35l-8 59q-1 0 -69.5 -58.5t-209.5 -58.5q-142 0 -234.5 121.5
t-92.5 293.5t62 303.5t166.5 201.5t234.5 70z" />
    <glyph glyph-name="ae" unicode="&#xe6;" horiz-adv-x="1454" 
d="M879 539q162 0 254 44t92 130q0 50 -43.5 85.5t-133.5 35.5t-177 -87.5t-113 -201.5q64 -6 121 -6zM193 254q0 -62 40.5 -101.5t106.5 -39.5t128 39.5t99 89.5l31 213q-61 20 -168 20t-172 -61t-65 -160zM45 252q0 134 106.5 240t268.5 106q101 0 170 -18l24 -7
q29 149 9 205t-107 56t-161.5 -22.5t-88.5 -29.5q-39 -12 -49 31l-12 53q-7 31 43 47q144 54 318 54q149 0 198 -148q124 148 313 148q139 0 218 -68t79 -178q0 -143 -130 -224t-370 -81q-65 0 -139 6q-12 -121 53.5 -215t165.5 -94t211 73q25 15 37.5 15.5t32.5 -21.5
l25 -35q20 -24 -17 -59q-55 -44 -139 -76.5t-178 -32.5q-175 0 -271 168q-62 -69 -156.5 -118.5t-200.5 -49.5t-179.5 70.5t-73.5 204.5z" />
    <glyph glyph-name="ccedilla" unicode="&#xe7;" horiz-adv-x="960" 
d="M88 382q0 141 39.5 247t106.5 180t158.5 116t193.5 42q207 0 297 -156q15 -35 -17 -61l-43 -37q-36 -26 -59 12q-66 106 -190 106t-225 -114t-101 -295q0 -128 63 -218.5t179 -90.5t212 143q24 40 62 14l49 -34q26 -18 2 -62q-44 -76 -126.5 -130t-186.5 -64l-88 -117
q24 8 51 8q63 0 107 -39.5t44 -121.5t-74 -142t-178 -60t-165 64q-15 18 6 43l18 25q23 32 45 10q46 -41 100 -41t91 24.5t37 75.5q0 68 -99 68q-58 0 -100 -21q-12 -4 -21.5 8t-3.5 23l119 197q-134 26 -218.5 141.5t-84.5 256.5z" />
    <glyph glyph-name="egrave" unicode="&#xe8;" horiz-adv-x="946" 
d="M463 1331l43 70q8 12 25 12.5t24 -6.5l256 -172q21 -13 6 -39l-24 -41q-12 -20 -45 -4l-271 131q-34 16 -14 49zM371 537q166 0 256 46t90 130q0 50 -40 85.5t-108 35.5q-114 0 -209.5 -88.5t-117.5 -202.5q67 -6 129 -6zM86 415q0 134 61 264t176 209t249 79t214 -69
t80 -177q0 -139 -134.5 -223t-377.5 -84q-60 0 -131 6q-9 -123 55 -215t179 -92q81 0 126 29t80 54t60 -12l27 -41q25 -27 -22 -64q-47 -36 -125.5 -69t-172.5 -33t-176.5 57.5t-125 152t-42.5 228.5z" />
    <glyph glyph-name="eacute" unicode="&#xe9;" horiz-adv-x="946" 
d="M459 1194q-9 25 16 39l303 172q8 8 26 5.5t25 -21.5l27 -68q12 -31 -16 -43l-322 -137q-35 -15 -45 16zM371 537q166 0 256 46t90 130q0 50 -40 85.5t-108 35.5q-114 0 -209.5 -88.5t-117.5 -202.5q67 -6 129 -6zM86 415q0 134 61 264t176 209t249 79t214 -69t80 -177
q0 -139 -134.5 -223t-377.5 -84q-60 0 -131 6q-9 -123 55 -215t179 -92q81 0 126 29t80 54t60 -12l27 -41q25 -27 -22 -64q-47 -36 -125.5 -69t-172.5 -33t-176.5 57.5t-125 152t-42.5 228.5z" />
    <glyph glyph-name="ecircumflex" unicode="&#xea;" horiz-adv-x="946" 
d="M659 1427h7q20 0 39 -24l172 -186q15 -19 -5 -39l-28 -31q-13 -13 -20 -15.5t-23 7.5l-160 135l-209 -146q-31 -22 -45 7l-18 36q-16 33 10 50l244 192q18 14 36 14zM371 537q166 0 256 46t90 130q0 50 -40 85.5t-108 35.5q-114 0 -209.5 -88.5t-117.5 -202.5
q67 -6 129 -6zM86 415q0 134 61 264t176 209t249 79t214 -69t80 -177q0 -139 -134.5 -223t-377.5 -84q-60 0 -131 6q-9 -123 55 -215t179 -92q81 0 126 29t80 54t60 -12l27 -41q25 -27 -22 -64q-47 -36 -125.5 -69t-172.5 -33t-176.5 57.5t-125 152t-42.5 228.5z" />
    <glyph glyph-name="edieresis" unicode="&#xeb;" horiz-adv-x="946" 
d="M700 1286q0 45 35 80t78 35t67.5 -26.5t24.5 -70.5t-35.5 -79t-78.5 -35t-67 25.5t-24 70.5zM342 1286q0 44 36 79.5t78 35.5t66.5 -26.5t24.5 -70.5t-35.5 -79t-77.5 -35t-67 26t-25 70zM371 537q166 0 256 46t90 130q0 50 -40 85.5t-108 35.5q-114 0 -209.5 -88.5
t-117.5 -202.5q67 -6 129 -6zM86 415q0 134 61 264t176 209t249 79t214 -69t80 -177q0 -139 -134.5 -223t-377.5 -84q-60 0 -131 6q-9 -123 55 -215t179 -92q81 0 126 29t80 54t60 -12l27 -41q25 -27 -22 -64q-47 -36 -125.5 -69t-172.5 -33t-176.5 57.5t-125 152
t-42.5 228.5z" />
    <glyph glyph-name="igrave" unicode="&#xec;" horiz-adv-x="473" 
d="M133 1331l43 70q8 12 25 12.5t24 -6.5l256 -172q21 -13 6 -39l-24 -41q-12 -20 -45 -4l-271 131q-34 16 -14 49zM252 946h74q15 0 24 -14t6 -31l-118 -856q-1 -18 -16.5 -31.5t-33.5 -13.5h-67q-17 0 -27.5 13t-7.5 32l119 856q2 18 15 31.5t32 13.5z" />
    <glyph glyph-name="iacute" unicode="&#xed;" horiz-adv-x="473" 
d="M145 1194q-9 24 17 39l303 172q8 8 26 5.5t25 -21.5l27 -68q12 -30 -17 -43l-321 -137q-35 -15 -45 16zM252 946h74q15 0 24 -14t6 -31l-118 -856q-1 -18 -16.5 -31.5t-33.5 -13.5h-67q-17 0 -27.5 13t-7.5 32l119 856q2 18 15 31.5t32 13.5z" />
    <glyph glyph-name="icircumflex" unicode="&#xee;" horiz-adv-x="473" 
d="M250 946h74q15 0 24 -14t6 -31l-118 -856q-1 -18 -16.5 -31.5t-33.5 -13.5h-67q-17 0 -27.5 13t-7.5 32l119 856q2 18 15 31.5t32 13.5zM336 1427h6q20 0 39 -24l172 -186q16 -19 -4 -39l-29 -31q-13 -13 -20 -15.5t-23 7.5l-160 135l-208 -146q-31 -22 -46 7l-18 36
q-16 33 10 50l244 192q18 14 37 14z" />
    <glyph glyph-name="idieresis" unicode="&#xef;" horiz-adv-x="473" 
d="M399 1286q0 45 35 80t78 35t67.5 -26.5t24.5 -70.5t-35.5 -79t-78.5 -35t-67 25.5t-24 70.5zM252 946h74q15 0 24 -14t6 -31l-118 -856q-1 -18 -16.5 -31.5t-33.5 -13.5h-67q-17 0 -27.5 13t-7.5 32l119 856q2 18 15 31.5t32 13.5zM41 1286q0 44 35.5 79.5t77.5 35.5
t67 -26.5t25 -70.5t-35.5 -79t-77.5 -35t-67 26t-25 70z" />
    <glyph glyph-name="eth" unicode="&#xf0;" horiz-adv-x="1087" 
d="M231 381q0 -106 61.5 -184t151.5 -78t176.5 48t144.5 191t58 287q-56 84 -138 110.5t-132 26.5q-93 0 -168.5 -59.5t-114.5 -147.5t-39 -194zM544 920q90 0 155 -24t93 -48l29 -23q-13 191 -174 363l-205 -119q-33 -17 -50 24q-16 41 20 58l170 98q-88 76 -158 105
q-48 17 -27 61l27 47q18 33 43 21q139 -68 240 -160l151 88q29 18 47 -14q21 -52 -14 -68l-121 -69q245 -275 195 -680q-32 -261 -159.5 -430.5t-365.5 -169.5q-151 0 -253.5 118t-102.5 304t93 305t185 166t182 47z" />
    <glyph glyph-name="ntilde" unicode="&#xf1;" horiz-adv-x="1042" 
d="M561 1413q35 0 64 -23t56.5 -73.5t63.5 -50.5q53 0 86 96q17 43 52 22l28 -16q26 -18 17 -44q-19 -56 -66.5 -116.5t-126.5 -60.5q-33 0 -62 23.5t-61.5 74.5t-62.5 51q-53 0 -70 -42t-23 -58t-21 -21t-29 3l-33 16q-22 14 -12 38t18.5 41.5t26.5 43.5t38.5 46.5t51 35
t65.5 14.5zM293 946q25 0 31 -28l10 -72q151 121 295 121q312 0 258 -402l-76 -520q-1 -18 -16 -31.5t-31 -13.5h-72q-17 0 -27.5 13t-7.5 32l76 520q40 266 -137 266q-131 0 -252 -121l-14 -14l-92 -651q-2 -19 -17 -32t-35 -13h-65q-17 0 -27.5 13t-7.5 32l119 856
q5 45 47 45h41z" />
    <glyph glyph-name="ograve" unicode="&#xf2;" horiz-adv-x="1062" 
d="M442 1331l43 70q8 12 25.5 12.5t24.5 -6.5l256 -172q21 -13 6 -39l-25 -41q-12 -20 -45 -4l-270 131q-35 17 -15 49zM227 418q0 -130 65 -217.5t169 -87.5q135 0 237.5 123.5t102.5 293.5q0 127 -65.5 214t-168.5 87q-135 0 -237.5 -121.5t-102.5 -291.5zM84 394
q0 162 66 291t181 205.5t257 76.5t250 -125t108 -288t-65.5 -293t-180 -207t-258.5 -77t-251 127.5t-107 289.5z" />
    <glyph glyph-name="oacute" unicode="&#xf3;" horiz-adv-x="1062" 
d="M457 1194q-9 25 16 39l303 172q8 8 26 5.5t25 -21.5l27 -68q12 -31 -16 -43l-322 -137q-35 -15 -45 16zM227 418q0 -130 65 -217.5t169 -87.5q135 0 237.5 123.5t102.5 293.5q0 127 -65.5 214t-168.5 87q-135 0 -237.5 -121.5t-102.5 -291.5zM84 394q0 162 66 291
t181 205.5t257 76.5t250 -125t108 -288t-65.5 -293t-180 -207t-258.5 -77t-251 127.5t-107 289.5z" />
    <glyph glyph-name="ocircumflex" unicode="&#xf4;" horiz-adv-x="1062" 
d="M645 1427h6q20 0 39 -24l172 -186q16 -19 -4 -39l-29 -31q-13 -13 -20 -15.5t-23 7.5l-159 135l-209 -146q-31 -22 -45 7l-19 36q-16 32 11 50l243 192q18 14 37 14zM227 418q0 -130 65 -217.5t169 -87.5q135 0 237.5 123.5t102.5 293.5q0 127 -65.5 214t-168.5 87
q-135 0 -237.5 -121.5t-102.5 -291.5zM84 394q0 162 66 291t181 205.5t257 76.5t250 -125t108 -288t-65.5 -293t-180 -207t-258.5 -77t-251 127.5t-107 289.5z" />
    <glyph glyph-name="otilde" unicode="&#xf5;" horiz-adv-x="1062" 
d="M545 1413q39 0 68 -23t56.5 -73.5t63.5 -50.5q53 0 86 96q17 42 51 22l29 -16q27 -16 16 -48q-12 -32 -33 -68.5t-64.5 -70.5t-85.5 -34q-70 0 -117.5 74.5t-74.5 74.5q-28 0 -51.5 -22.5t-42.5 -68.5t-53 -27l-33 16q-22 15 -11 41t24 49.5t37 55.5t60 52.5t75 20.5z
M227 418q0 -130 65 -217.5t169 -87.5q135 0 237.5 123.5t102.5 293.5q0 127 -65.5 214t-168.5 87q-135 0 -237.5 -121.5t-102.5 -291.5zM84 394q0 162 66 291t181 205.5t257 76.5t250 -125t108 -288t-65.5 -293t-180 -207t-258.5 -77t-251 127.5t-107 289.5z" />
    <glyph glyph-name="odieresis" unicode="&#xf6;" horiz-adv-x="1062" 
d="M723 1286q0 45 35 80t78 35t67.5 -26.5t24.5 -70.5t-35.5 -79t-78.5 -35t-67 25.5t-24 70.5zM365 1286q0 44 35.5 79.5t77.5 35.5t66.5 -26.5t24.5 -70.5t-35 -79t-77 -35t-67 26t-25 70zM227 418q0 -130 65 -217.5t169 -87.5q135 0 237.5 123.5t102.5 293.5
q0 127 -65.5 214t-168.5 87q-135 0 -237.5 -121.5t-102.5 -291.5zM84 394q0 162 66 291t181 205.5t257 76.5t250 -125t108 -288t-65.5 -293t-180 -207t-258.5 -77t-251 127.5t-107 289.5z" />
    <glyph glyph-name="divide" unicode="&#xf7;" 
d="M569 1076q0 48 38.5 86t82.5 38t71 -29t27 -77t-37 -87.5t-83 -39.5t-72.5 30.5t-26.5 78.5zM467 342q0 48 38 86.5t83 38.5t71.5 -29t26.5 -77t-38 -88t-83 -40t-71.5 30.5t-26.5 78.5zM291 778h704q13 0 22 -12t7 -27l-8 -57q-2 -15 -14 -27t-25 -12h-707
q-13 0 -21.5 12t-6.5 27l8 57q1 15 14 27t27 12z" />
    <glyph glyph-name="oslash" unicode="&#xf8;" horiz-adv-x="1062" 
d="M461 113q135 0 237.5 123.5t102.5 293.5q0 65 -23 129l-483 -464q66 -82 166 -82zM227 418q0 -76 21 -137l483 467q-67 83 -164 83q-135 0 -237.5 -121.5t-102.5 -291.5zM84 420q0 136 66 265t181 205.5t255 76.5t248 -121l57 55q15 13 32 13t27 -13q22 -20 19.5 -40.5
t-17.5 -33.5l-63 -61q57 -102 57 -238t-65.5 -266.5t-180 -207.5t-257.5 -77t-248 121l-43 -43q-31 -27 -58 0l-8 15q-11 13 -9 30.5t15 30.5l47 45q-55 108 -55 244z" />
    <glyph glyph-name="ugrave" unicode="&#xf9;" horiz-adv-x="1015" 
d="M336 1323l43 70q8 12 25 12.5t24 -6.5l256 -172q21 -13 6 -39l-24 -41q-12 -20 -45 -4l-271 131q-34 16 -14 49zM240 946h71q17 0 28 -13.5t9 -31.5l-74 -534q-20 -137 10 -195.5t136 -58.5q119 0 233 153l92 635q2 17 16.5 31t31.5 14h67q17 0 28 -13.5t9 -31.5
l-121 -856q-2 -19 -14.5 -32t-32.5 -13h-41q-27 0 -33 41l-8 59q-108 -123 -273 -123t-223.5 99t-29.5 293l72 532q3 17 17.5 31t29.5 14z" />
    <glyph glyph-name="uacute" unicode="&#xfa;" horiz-adv-x="1015" 
d="M459 1194q-9 25 16 39l303 172q8 8 26 5.5t25 -21.5l27 -68q12 -31 -16 -43l-322 -137q-35 -15 -45 16zM240 946h71q17 0 28 -13.5t9 -31.5l-74 -534q-20 -137 10 -195.5t136 -58.5q119 0 233 153l92 635q2 17 16.5 31t31.5 14h67q17 0 28 -13.5t9 -31.5l-121 -856
q-2 -19 -14.5 -32t-32.5 -13h-41q-27 0 -33 41l-8 59q-108 -123 -273 -123t-223.5 99t-29.5 293l72 532q3 17 17.5 31t29.5 14z" />
    <glyph glyph-name="ucircumflex" unicode="&#xfb;" horiz-adv-x="1015" 
d="M616 1427h7q20 0 39 -24l172 -186q15 -19 -5 -39l-28 -31q-13 -13 -20 -15.5t-23 7.5l-160 135l-209 -146q-31 -22 -45 7l-18 36q-16 33 10 50l244 192q18 14 36 14zM240 946h71q17 0 28 -13.5t9 -31.5l-74 -534q-20 -137 10 -195.5t136 -58.5q119 0 233 153l92 635
q2 17 16.5 31t31.5 14h67q17 0 28 -13.5t9 -31.5l-121 -856q-2 -19 -14.5 -32t-32.5 -13h-41q-27 0 -33 41l-8 59q-108 -123 -273 -123t-223.5 99t-29.5 293l72 532q3 17 17.5 31t29.5 14z" />
    <glyph glyph-name="udieresis" unicode="&#xfc;" horiz-adv-x="1015" 
d="M668 1286q0 45 34.5 80t77.5 35t67.5 -26.5t24.5 -70.5t-35 -79t-78 -35t-67 25.5t-24 70.5zM309 1286q0 44 35.5 79.5t77.5 35.5t67 -26.5t25 -70.5t-35.5 -79t-77.5 -35t-67 26t-25 70zM240 946h71q17 0 28 -13.5t9 -31.5l-74 -534q-20 -137 10 -195.5t136 -58.5
q119 0 233 153l92 635q2 17 16.5 31t31.5 14h67q17 0 28 -13.5t9 -31.5l-121 -856q-2 -19 -14.5 -32t-32.5 -13h-41q-27 0 -33 41l-8 59q-108 -123 -273 -123t-223.5 99t-29.5 293l72 532q3 17 17.5 31t29.5 14z" />
    <glyph glyph-name="yacute" unicode="&#xfd;" horiz-adv-x="993" 
d="M457 1194q-9 25 16 39l303 172q8 8 26 5.5t25 -21.5l27 -68q12 -31 -16 -43l-322 -137q-35 -15 -45 16zM145 946h76q27 0 33 -26l174 -756h6l385 756q13 26 41 26h84q24 0 32.5 -15t-3.5 -38l-721 -1352q-5 -10 -17.5 -19t-23.5 -9h-88q-24 0 -31 14t6 39l238 434
l-230 895q-6 22 5 36.5t34 14.5z" />
    <glyph glyph-name="thorn" unicode="&#xfe;" horiz-adv-x="1056" 
d="M447 113q97 0 173 58t120 155.5t44 213.5t-60 203.5t-161 87.5q-72 0 -132.5 -39t-100.5 -85l-68 -517q88 -77 185 -77zM583 967q120 0 198 -60.5t117.5 -155.5t39.5 -228t-61.5 -263.5t-172.5 -206.5t-236 -76t-228 76l-70 -493q-2 -19 -16 -33t-31 -14h-70
q-15 0 -26.5 14.5t-10.5 32.5l260 1829q1 18 15.5 31.5t30.5 13.5h71q15 0 25.5 -13.5t9.5 -31.5l-72 -504q107 82 227 82z" />
    <glyph glyph-name="ydieresis" unicode="&#xff;" horiz-adv-x="993" 
d="M678 1286q0 45 35 80t78 35t67.5 -26.5t24.5 -70.5t-35.5 -79t-78.5 -35t-67 25.5t-24 70.5zM319 1286q0 44 35.5 79.5t77.5 35.5t67 -26.5t25 -70.5t-35 -79t-77 -35t-67.5 26t-25.5 70zM145 946h76q27 0 33 -26l174 -756h6l385 756q13 26 41 26h84q24 0 32.5 -15
t-3.5 -38l-721 -1352q-5 -10 -17.5 -19t-23.5 -9h-88q-24 0 -31 14t6 39l238 434l-230 895q-6 22 5 36.5t34 14.5z" />
    <glyph glyph-name="OE" unicode="&#x152;" horiz-adv-x="1802" 
d="M272 650q0 -119 33 -213t91 -163.5t140.5 -110t162.5 -40.5t143 14l162 1155q-70 17 -125 17q-115 0 -226 -54.5t-194.5 -144.5t-135 -215.5t-51.5 -244.5zM125 648q0 150 62.5 301t166.5 261.5t247.5 177t297.5 66.5q76 0 139 -15l21 -5h729q14 0 22.5 -11.5t6.5 -27.5
l-9 -60q-2 -15 -14 -27t-25 -12h-608l-69 -499h516q14 0 23.5 -12t6.5 -27l-10 -60q-3 -17 -14 -28t-25 -11h-518l-74 -522h609q14 0 22 -11.5t6 -27.5l-8 -59q-2 -15 -14 -27t-25 -12h-731q-82 -20 -180 -20t-203 50.5t-181.5 137t-121.5 208.5t-45 272z" />
    <glyph glyph-name="oe" unicode="&#x153;" horiz-adv-x="1636" 
d="M1042 535q167 0 266 47.5t99 130.5q0 51 -42 86t-130 35t-180 -91t-117 -204q37 -4 104 -4zM233 412q0 -125 65.5 -212t156.5 -87t165 55.5t119 151.5t45 225t-59.5 209t-165.5 80q-136 0 -231 -123.5t-95 -298.5zM86 386q0 166 64 296t177 207.5t231 77.5t203 -54.5
t128 -142.5q150 197 371 197q139 0 217.5 -70t78.5 -180q0 -145 -130 -227t-373 -82q-65 0 -138 6q-9 -121 55 -211t159 -90t156 41.5t74 49.5q37 23 58 -18l21 -36q22 -32 -11 -64q-153 -109 -319 -109q-100 0 -174.5 55t-118.5 146q-155 -201 -364 -201q-159 0 -262 121.5
t-103 287.5z" />
    <glyph glyph-name="Ydieresis" unicode="&#x178;" horiz-adv-x="1097" 
d="M791 1710q0 45 34.5 80t76.5 35t67.5 -26.5t25.5 -70.5t-35.5 -79t-77.5 -35t-66.5 25.5t-24.5 70.5zM391 1710q0 45 35 80t77 35t67.5 -26.5t25.5 -70.5t-36 -79t-78 -35t-66.5 25.5t-24.5 70.5zM162 1434h94q20 0 29 -19l284 -584h4l455 584q14 19 33 19h98
q23 0 29 -20t-8 -40l-541 -682l-92 -653q-1 -15 -14 -27t-27 -12h-86q-15 0 -24 12t-7 27l92 651l-348 694q-9 19 -0.5 34.5t29.5 15.5z" />
    <glyph glyph-name="circumflex" unicode="&#x2c6;" horiz-adv-x="688" 
d="M418 1427h6q20 0 39 -24l172 -186q16 -19 -4 -39l-29 -31q-13 -13 -20 -15.5t-23 7.5l-160 135l-209 -146q-31 -22 -45 7l-18 36q-16 33 10 50l244 192q17 14 37 14z" />
    <glyph glyph-name="tilde" unicode="&#x2dc;" horiz-adv-x="700" 
d="M319 1413q35 0 64.5 -23t56 -73.5t64.5 -50.5q53 0 86 96q17 42 51 22l29 -16q27 -16 16 -48q-12 -32 -33 -68.5t-64.5 -70.5t-85.5 -34q-72 0 -118 74.5t-78 74.5q-53 0 -70 -42t-23 -58t-21 -21t-29 3l-33 16q-22 14 -12 38t18.5 41.5t26.5 43.5t38.5 46.5t51 35
t65.5 14.5z" />
    <glyph glyph-name="uni2000" unicode="&#x2000;" horiz-adv-x="999" 
 />
    <glyph glyph-name="uni2001" unicode="&#x2001;" horiz-adv-x="1999" 
 />
    <glyph glyph-name="uni2002" unicode="&#x2002;" horiz-adv-x="999" 
 />
    <glyph glyph-name="uni2003" unicode="&#x2003;" horiz-adv-x="1999" 
 />
    <glyph glyph-name="uni2004" unicode="&#x2004;" horiz-adv-x="666" 
 />
    <glyph glyph-name="uni2005" unicode="&#x2005;" horiz-adv-x="499" 
 />
    <glyph glyph-name="uni2006" unicode="&#x2006;" horiz-adv-x="333" 
 />
    <glyph glyph-name="uni2007" unicode="&#x2007;" horiz-adv-x="333" 
 />
    <glyph glyph-name="uni2008" unicode="&#x2008;" horiz-adv-x="249" 
 />
    <glyph glyph-name="uni2009" unicode="&#x2009;" horiz-adv-x="399" 
 />
    <glyph glyph-name="uni200A" unicode="&#x200a;" horiz-adv-x="111" 
 />
    <glyph glyph-name="uni2010" unicode="&#x2010;" horiz-adv-x="743" 
d="M174 565h391q15 0 23 -11t6 -28l-6 -39q-2 -15 -14 -25t-27 -11h-389q-14 1 -24 11t-7 25l6 39q3 17 15 28t26 11z" />
    <glyph glyph-name="uni2011" unicode="&#x2011;" horiz-adv-x="743" 
d="M174 565h391q15 0 23 -11t6 -28l-6 -39q-2 -15 -14 -25t-27 -11h-389q-14 1 -24 11t-7 25l6 39q3 17 15 28t26 11z" />
    <glyph glyph-name="figuredash" unicode="&#x2012;" horiz-adv-x="743" 
d="M174 565h391q15 0 23 -11t6 -28l-6 -39q-2 -15 -14 -25t-27 -11h-389q-14 1 -24 11t-7 25l6 39q3 17 15 28t26 11z" />
    <glyph glyph-name="endash" unicode="&#x2013;" horiz-adv-x="1034" 
d="M170 555h686q15 0 24.5 -11t6.5 -28l-4 -22q-3 -16 -14 -26.5t-25 -10.5h-688q-15 0 -24.5 11t-6.5 26l4 22q3 17 14.5 28t26.5 11z" />
    <glyph glyph-name="emdash" unicode="&#x2014;" horiz-adv-x="1439" 
d="M170 555h1092q15 0 24 -11t6 -28l-4 -22q-7 -37 -39 -37h-1093q-15 0 -24.5 11t-6.5 26l4 22q3 17 14.5 28t26.5 11z" />
    <glyph glyph-name="quoteleft" unicode="&#x2018;" horiz-adv-x="475" 
d="M176 1047q0 222 193 397q19 19 32 2l33 -35q14 -17 -6 -37q-147 -139 -147 -262q0 -15 2 -29q30 19 69 19t60.5 -26t21.5 -70t-36 -86.5t-96 -42.5t-93 47t-33 123z" />
    <glyph glyph-name="quoteright" unicode="&#x2019;" horiz-adv-x="471" 
d="M354 1219q0 14 -2 28q-28 -18 -68 -18t-61.5 26.5t-21.5 70.5t36.5 86t96.5 42t92.5 -47t32.5 -123q0 -222 -193 -397q-19 -19 -33 -2l-32 35q-14 16 6 36q147 139 147 263z" />
    <glyph glyph-name="quotesinglbase" unicode="&#x201a;" horiz-adv-x="485" 
d="M47 96q0 44 36.5 86.5t96.5 42.5t92.5 -47t32.5 -123q0 -223 -192 -397q-19 -19 -33 -2l-33 35q-14 17 6 37q148 140 148 262q0 14 -2 28q-29 -18 -69 -18t-61.5 26t-21.5 70z" />
    <glyph glyph-name="quotedblleft" unicode="&#x201c;" horiz-adv-x="841" 
d="M543 1047q0 223 192 397q19 19 33 2l33 -35q14 -17 -6 -37q-148 -140 -148 -262q0 -15 2 -29q29 19 69 19t61.5 -26t21.5 -70t-36.5 -86.5t-96.5 -42.5t-92.5 47t-32.5 123zM176 1047q0 222 193 397q19 19 32 2l33 -35q14 -17 -6 -37q-147 -139 -147 -262q0 -15 2 -29
q30 19 69 19t60.5 -26t21.5 -70t-36 -86.5t-96 -42.5t-93 47t-33 123z" />
    <glyph glyph-name="quotedblright" unicode="&#x201d;" horiz-adv-x="835" 
d="M719 1219q0 14 -2 28q-29 -18 -69 -18t-61.5 26.5t-21.5 70.5t36.5 86t96.5 42t92.5 -47t32.5 -123q0 -223 -192 -397q-19 -19 -33 -2l-33 35q-14 16 6 36q148 140 148 263zM354 1219q0 14 -2 28q-28 -18 -68 -18t-61.5 26.5t-21.5 70.5t36.5 86t96.5 42t92.5 -47
t32.5 -123q0 -222 -193 -397q-19 -19 -33 -2l-32 35q-14 16 6 36q147 139 147 263z" />
    <glyph glyph-name="quotedblbase" unicode="&#x201e;" horiz-adv-x="849" 
d="M412 96q0 44 36 86.5t96 42.5t93 -47t33 -123q0 -222 -193 -397q-19 -19 -33 -2l-32 35q-14 17 6 37q147 139 147 262q0 14 -2 28q-29 -18 -69 -18t-61 26t-21 70zM47 96q0 44 36.5 86.5t96.5 42.5t92.5 -47t32.5 -123q0 -223 -192 -397q-19 -19 -33 -2l-33 35
q-14 17 6 37q148 140 148 262q0 14 -2 28q-29 -18 -69 -18t-61.5 26t-21.5 70z" />
    <glyph glyph-name="bullet" unicode="&#x2022;" horiz-adv-x="724" 
d="M147 506q0 88 71.5 162.5t155.5 74.5t134.5 -56.5t50.5 -146.5t-72.5 -162.5t-156.5 -72.5t-133.5 56.5t-49.5 144.5z" />
    <glyph glyph-name="ellipsis" unicode="&#x2026;" horiz-adv-x="1177" 
d="M778 88q0 48 38 86.5t84 38.5t72.5 -29t26.5 -77t-38 -87.5t-84 -39.5t-72.5 30t-26.5 78zM410 88q0 48 38 86.5t84 38.5t72.5 -29.5t26.5 -77.5t-38 -87t-83 -39t-72.5 30t-27.5 78zM47 88q0 48 38.5 86.5t84.5 38.5t72 -29.5t26 -77.5t-38 -87t-84 -39t-72.5 30
t-26.5 78z" />
    <glyph glyph-name="uni202F" unicode="&#x202f;" horiz-adv-x="399" 
 />
    <glyph glyph-name="guilsinglleft" unicode="&#x2039;" horiz-adv-x="532" 
d="M373 836h45q23 0 27.5 -19.5t-9.5 -44.5l-176 -295l80 -291q6 -26 -3.5 -43.5t-33.5 -17.5h-37q-18 0 -26 16l-148 318q-11 23 6 49l234 303q20 25 41 25z" />
    <glyph glyph-name="guilsinglright" unicode="&#x203a;" horiz-adv-x="532" 
d="M201 836h37q18 0 26 -17l148 -317q11 -23 -6 -49l-234 -303q-20 -25 -41 -25h-45q-23 0 -27.5 19t9.5 44l176 295l-80 291q-6 26 3.5 44t33.5 18z" />
    <glyph glyph-name="uni205F" unicode="&#x205f;" horiz-adv-x="499" 
 />
    <glyph glyph-name="Euro" unicode="&#x20ac;" 
d="M119 764q-37 0 -32 44q2 24 15.5 36t28.5 12h105q67 252 227.5 425t397.5 173t368 -160q23 -26 -4 -57l-45 -51q-32 -35 -66 2q-107 119 -263 119t-274 -128t-174 -323h562q17 0 26 -10t6 -25l-4 -22q-7 -35 -41 -35h-571q-19 -100 -19 -154h486q42 0 33 -46t-45 -46
h-471q11 -178 89 -283.5t197 -105.5t184 29.5t117 69.5t67 40.5t25 -10.5l46 -59q9 -12 5 -29.5t-16 -28.5q-192 -161 -409 -161t-342 146.5t-131 391.5h-113q-35 0 -30 46t42 46h101q4 80 18 154h-96z" />
    <glyph glyph-name="trademark" unicode="&#x2122;" horiz-adv-x="1429" 
d="M881 1444h6q23 0 28 -23l91 -434l215 434q9 23 34 23h7q26 0 30 -31l21 -553q0 -19 -12 -32t-29 -13h-31q-31 0 -31 35l-12 338l-180 -361q-7 -18 -33 -18h-10q-26 0 -29 20l-76 359l-108 -340q-12 -33 -41 -33h-25q-18 0 -26 14t-2 33l172 551q12 31 41 31zM293 1434
h356q15 0 24.5 -12t6.5 -27l-4 -23q-3 -17 -14.5 -28t-26.5 -11h-127l-68 -479q-2 -15 -14 -27t-25 -12h-32q-15 0 -23.5 12t-5.5 27l68 479h-129q-14 0 -23 11t-6 28l4 23q3 15 14.5 27t24.5 12z" />
    <glyph glyph-name="uni25FC" unicode="&#x25fc;" horiz-adv-x="942" 
d="M0 0v942h942v-942h-942z" />
    <glyph glyph-name="uniFB03" unicode="&#xfb03;" horiz-adv-x="1716" 
d="M707 1294q-224 0 -267 -282l-10 -66h438l17 111q13 87 43 155q-22 29 -88.5 55.5t-132.5 26.5zM131 813q-18 0 -27.5 12.5t-7.5 32.5l6 43q3 20 16.5 32.5t31.5 12.5h129l10 66q33 211 147 316.5t278 105.5t287 -97q111 117 275 117t293 -108q11 -8 12.5 -24t-8.5 -30
l-37 -51q-17 -23 -29.5 -17t-27.5 15l-17 13q-95 67 -200 67q-185 0 -230 -291l-12 -82h549q17 0 28 -13.5t9 -31.5l-123 -856q-3 -18 -17.5 -31.5t-29.5 -13.5h-70q-15 0 -25.5 13.5t-9.5 31.5l109 768h-439l-167 -1253q-3 -18 -18 -32.5t-30 -14.5h-75q-15 0 -24.5 14
t-6.5 33l170 1253h-438l-174 -1253q-3 -18 -18 -32.5t-30 -14.5h-71q-17 0 -26.5 14t-6.5 33l174 1253h-129z" />
    <glyph glyph-name="uniFB04" unicode="&#xfb04;" horiz-adv-x="1757" 
d="M707 1294q-224 0 -267 -282l-10 -66h440l17 111q13 87 43 155q-31 31 -95 56.5t-128 25.5zM131 813q-18 0 -27.5 12.5t-7.5 32.5l6 43q3 20 16.5 32.5t31.5 12.5h129l10 66q33 211 147 316.5t282 105.5t290 -97q111 117 278 117q95 0 169 -40t104 -77l30 76q8 21 37 21
h43q14 0 24 -13.5t7 -31.5l-189 -1344q-3 -19 -16.5 -32t-30.5 -13h-71q-15 0 -25.5 13.5t-7.5 31.5l160 1133q-28 56 -89.5 98.5t-146.5 42.5t-153 -60t-87 -188l-18 -125h244q37 0 35 -45l-9 -43q-3 -19 -16 -32t-31 -13h-243l-168 -1253q-3 -19 -17.5 -33t-29.5 -14h-80
q-15 0 -24.5 14t-6.5 33l170 1253h-438l-174 -1253q-3 -18 -18 -32.5t-30 -14.5h-71q-17 0 -26.5 14t-6.5 33l174 1253h-129z" />
    </font>
</defs>
</svg>
