<?xml version="1.0" standalone="no"?>
<!DOCTYPE svg PUBLIC "-//W3C//DTD SVG 1.1//EN" "http://www.w3.org/Graphics/SVG/1.1/DTD/svg11.dtd" >
<svg xmlns="http://www.w3.org/2000/svg">
<metadata>
Created by FontPrep 20130207 at Tue Apr 29 16:03:24 2014
 By FuturaBit
Copyright (c) 2012 by Hannes von Doehren. All rights reserved.
</metadata>
<defs>
<font id="b2e83f21a04278900d92d2a5931f7dc3" horiz-adv-x='1024' >
  <font-face 
    font-family="BrandonText-Light"
    font-weight="330"
    font-stretch="normal"
    units-per-em="2048"
    panose-1="2 11 3 3 2 2 3 6 2 3"
    ascent="1434"
    descent="-614"
    x-height="946"
    cap-height="1434"
    bbox="-57.0333 -510 1925 1980"
    underline-thickness="102"
    underline-position="-102"
    unicode-range="U+000D-FB04"
  />
<missing-glyph horiz-adv-x="748" 
d="M136 68h408v1229h-408v-1229zM68 0v1365h544v-1365h-544z" />
    <glyph glyph-name="uniFB01" unicode="fi" horiz-adv-x="1153" 
d="M328 31q0 -31 -29 -31h-39q-22 0 -22 31v827h-160q-33 0 -33 37v20q0 12 10 21.5t23 9.5h160v127q0 174 92 277.5t258 103.5q102 0 192 -37t131 -74q17 -17 2 -36l-22 -31q-13 -16 -37 -2q-136 92 -264 92t-195 -74.5t-67 -218.5v-127h628q12 0 20.5 -9.5t8.5 -21.5v-884
q0 -14 -9 -22.5t-22 -8.5h-28q-13 0 -22 9.5t-9 21.5v827h-567v-827z" />
    <glyph glyph-name="uniFB02" unicode="fl" horiz-adv-x="1206" 
d="M45 889v26q0 12 10.5 21.5t22.5 9.5h162v111q0 195 99.5 296t259.5 101t243 -54.5t98 -68.5l10 74q3 29 31 29h12q12 0 20.5 -8.5t8.5 -20.5v-1374q0 -14 -10 -22.5t-23 -8.5h-24q-13 0 -23 9.5t-10 21.5v1188q-138 147 -326 147q-120 0 -198 -73.5t-78 -229.5v-117h334
q32 0 32 -28v-33q0 -27 -32 -27h-334v-827q0 -12 -10 -21.5t-23 -9.5h-29q-12 0 -20 9.5t-8 21.5v827h-162q-14 0 -23.5 10t-9.5 21z" />
    <glyph glyph-name=".notdef" horiz-adv-x="748" 
d="M136 68h408v1229h-408v-1229zM68 0v1365h544v-1365h-544z" />
    <glyph glyph-name="glyph1" horiz-adv-x="0" 
 />
    <glyph glyph-name="glyph1" horiz-adv-x="0" 
 />
    <glyph glyph-name="glyph2" horiz-adv-x="682" 
 />
    <glyph glyph-name="uni000D" unicode="&#xd;" horiz-adv-x="0" 
 />
    <glyph glyph-name="space" unicode=" " horiz-adv-x="491" 
 />
    <glyph glyph-name="exclam" unicode="!" horiz-adv-x="505" 
d="M199 1407q0 27 30 27h52q10 0 18 -8t8 -19v-248l-18 -584q0 -9 -9 -16.5t-18 -7.5h-16q-10 0 -18.5 7.5t-8.5 16.5l-20 582v250zM170 62q0 34 25 57.5t59 23.5t58 -23.5t24 -57.5t-24 -58t-58 -24t-59 24t-25 58z" />
    <glyph glyph-name="quotedbl" unicode="&#x22;" horiz-adv-x="669" 
d="M520 1434q27 0 25 -33l-33 -352q-4 -23 -20 -23h-23q-18 0 -18 23v358q0 11 8 19t18 8h43zM213 1434q27 0 25 -33l-33 -352q-5 -23 -21 -23h-22q-19 0 -19 23v358q0 11 8.5 19t18.5 8h43z" />
    <glyph glyph-name="numbersign" unicode="#" horiz-adv-x="1136" 
d="M369 485h333l62 373h-332zM1032 885q0 -27 -22 -27h-181l-63 -373h182q11 0 19 -8t8 -18v-10q0 -11 -7.5 -19t-17.5 -8h-194l-68 -399q-5 -23 -26 -23h-13q-29 0 -24 31l67 391h-336l-65 -399q-1 -9 -9.5 -16t-17.5 -7h-12q-30 0 -25 31l68 391h-172q-10 0 -17.5 8
t-7.5 19v10q0 11 7.5 18.5t17.5 7.5h180l64 373h-185q-10 0 -18 8t-8 19v12q0 11 8 19t18 8h195l82 487q3 23 26 23h13q27 0 22 -31l-80 -479h334l82 487q3 23 27 23h14q11 0 17 -9t4 -22l-80 -479h170q10 0 17 -8t7 -19v-12z" />
    <glyph glyph-name="dollar" unicode="$" 
d="M977 344q0 110 -78.5 181t-239.5 130v-587q131 8 224.5 87t93.5 189zM279 1086q0 -114 83 -182t236 -120v580q-232 -11 -275.5 -118t-43.5 -160zM659 -242q-1 -24 -31 -24t-30 24v222q-219 12 -401 167q-12 10 -14 17t7 26l23 29q17 21 44 -1q54 -44 136 -93t205 -57v614
q-199 65 -306.5 151.5t-107.5 258.5q0 121 70.5 202t153.5 117t190 41v76q0 26 29 26h8q27 0 27 -26v-78q105 -6 189.5 -39.5t127.5 -62.5q25 -20 10 -41l-20 -31q-15 -22 -37 -10t-46.5 26.5t-92.5 39.5t-131 30l-3 -602q201 -69 309.5 -162t108.5 -247t-123.5 -258
t-294.5 -113v-222z" />
    <glyph glyph-name="percent" unicode="%" horiz-adv-x="1386" 
d="M807 260q0 -86 60.5 -145.5t146.5 -59.5t145.5 59.5t59.5 145.5t-59.5 145.5t-145.5 59.5t-146.5 -59.5t-60.5 -145.5zM731 261q0 118 82.5 201t200.5 83t200 -83.5t82 -201.5t-82 -200.5t-200 -82.5t-200.5 83t-82.5 201zM1055 1434h37q13 0 18.5 -13t-2.5 -26
l-780 -1381q-7 -14 -25 -14h-37q-13 0 -17.5 11.5t3.5 23.5l778 1388q7 11 25 11zM168 1170q0 -86 59 -145.5t145 -59.5t146 59.5t60 145.5t-60 146t-146 60t-145 -60t-59 -146zM90 1171q0 118 83 200.5t200 82.5t199.5 -82.5t82.5 -200.5t-82.5 -200t-199.5 -82t-200 82
t-83 200z" />
    <glyph glyph-name="ampersand" unicode="&#x26;" horiz-adv-x="1361" 
d="M825 1143q0 94 -65.5 162.5t-185.5 68.5t-187.5 -72t-67.5 -178t140 -250q9 -8 18.5 -18t12.5 -13l28 -28q307 154 307 328zM227 354q0 -124 84.5 -208.5t212.5 -84.5q250 0 418 203l-444 451q-271 -147 -271 -361zM1204 760q0 -251 -147 -477l213 -211q31 -27 8 -47
l-33 -31q-19 -18 -41 4l-205 207q-192 -225 -473 -225q-178 0 -283.5 108.5t-105.5 265.5q0 253 303 416l-30 33q-134 147 -155.5 216t-21.5 121t21 106.5t62 101.5t111 76.5t157 29.5q156 0 243.5 -90.5t87.5 -218.5q0 -166 -135.5 -260.5t-201.5 -128.5l417 -414
q123 197 123 418l-2 41q0 18 17 18h43q28 0 28 -59z" />
    <glyph glyph-name="quotesingle" unicode="'" horiz-adv-x="362" 
d="M213 1434q27 0 25 -33l-33 -352q-5 -23 -21 -23h-22q-19 0 -19 23v358q0 11 8.5 19t18.5 8h43z" />
    <glyph glyph-name="parenleft" unicode="(" horiz-adv-x="692" 
d="M283 0.5q-166 154.5 -166 643.5t165.5 644.5t323.5 163.5q25 0 25 -18l2 -31q2 -25 -17 -25q-191 -26 -300 -204.5t-109 -528.5t109 -528.5t300 -204.5q20 0 17 -25l-2 -30q0 -22 -25 -17q-157 6 -323 160.5z" />
    <glyph glyph-name="parenright" unicode=")" horiz-adv-x="692" 
d="M485 645q0 351 -108 529t-299 204q-9 0 -14.5 7.5t-4.5 17.5l2 31q3 18 27 18q252 -13 369.5 -238.5t117.5 -641.5t-165 -571t-322 -161q-24 -3 -27 17l-2 30q-1 10 4.5 17.5t14.5 7.5q191 26 299 204t108 529z" />
    <glyph glyph-name="asterisk" unicode="*" horiz-adv-x="841" 
d="M412 1434h16q10 0 18.5 -8t8.5 -19l-2 -211l180 115q20 11 35 -8l10 -17q11 -22 -8 -35l-189 -114l191 -115q7 -4 10 -15t-2 -18l-10 -18q-15 -23 -37 -8l-180 114l2 -211q0 -10 -8 -18t-19 -8h-16q-11 0 -19 8t-8 18l2 211l-180 -112q-21 -14 -35 8q-23 38 -2 51
l186 113l-188 112q-18 12 -8 35l12 21q10 17 33 4l182 -113l-2 211q0 11 8.5 19t18.5 8z" />
    <glyph glyph-name="plus" unicode="+" 
d="M193 694v31q0 11 8 19t18 8h352v354q0 10 8 17t19 7h33q11 0 18.5 -7t7.5 -17v-354h351q10 0 18 -8t8 -19v-31q0 -10 -8 -18t-18 -8h-351v-351q0 -11 -7.5 -18.5t-18.5 -7.5h-33q-11 0 -19 8t-8 18v351h-352q-11 0 -18.5 8t-7.5 18z" />
    <glyph glyph-name="comma" unicode="," horiz-adv-x="460" 
d="M133 64q0 34 24.5 57.5t72.5 23.5t83 -60t35 -142q0 -168 -127 -291q-16 -16 -26 0l-23 20q-11 15 2 31q102 95 102 213q0 62 -18 92q-19 -22 -51 -22t-53 22t-21 56z" />
    <glyph glyph-name="hyphen" unicode="-" horiz-adv-x="808" 
d="M147 522q0 27 25 27h463q11 0 19 -7.5t8 -19.5v-22q0 -10 -8 -18.5t-19 -8.5h-463q-10 0 -17.5 8t-7.5 19v22z" />
    <glyph glyph-name="period" unicode="." horiz-adv-x="440" 
d="M133 64q0 36 25.5 61t62.5 25t61.5 -24.5t24.5 -61.5t-25.5 -62t-61.5 -25t-61.5 25.5t-25.5 61.5z" />
    <glyph glyph-name="slash" unicode="/" horiz-adv-x="757" 
d="M592 1434h29q14 0 21 -8.5t3 -20.5l-452 -1387q-6 -18 -27 -18h-31q-13 0 -19.5 8t-2.5 21l452 1388q7 17 27 17z" />
    <glyph glyph-name="zero" unicode="0" horiz-adv-x="1329" 
d="M248 718q0 -312 107 -482t309 -170t309.5 170t107.5 482t-107.5 480t-309.5 168t-309 -168t-107 -480zM147 719q0 348 136 541.5t382 193.5t381.5 -193.5t135.5 -541.5t-135 -545t-381 -197t-382.5 197t-136.5 545z" />
    <glyph glyph-name="one" unicode="1" horiz-adv-x="686" 
d="M432 1434q31 0 31 -25v-1382q0 -11 -8.5 -19t-18.5 -8h-43q-10 0 -18 8t-8 19v1263h-2l-250 -205q-18 -14 -31 5l-25 28q-15 15 4 31l320 272q13 13 37 13h12z" />
    <glyph glyph-name="two" unicode="2" horiz-adv-x="1126" 
d="M98 25v18q0 20 15 35l544 547q234 235 234 397q0 145 -88.5 242.5t-247.5 97.5q-187 0 -261.5 -84t-76.5 -86q-20 -23 -43 -6l-24 20q-20 19 -10 33t20.5 28.5t99 100.5t262.5 86q234 0 351.5 -121t117.5 -291q0 -135 -71 -244t-195 -233l-479 -477v-2h706q12 0 20.5 -8
t8.5 -19v-32q0 -11 -8.5 -19t-20.5 -8h-825q-13 0 -21 7.5t-8 17.5z" />
    <glyph glyph-name="three" unicode="3" horiz-adv-x="1169" 
d="M926 379q0 98 -84.5 203.5t-294.5 105.5h-197q-17 0 -22.5 6t-5.5 21v39q0 24 30 24h195q127 0 202.5 49t106.5 107.5t31 134.5q0 131 -92 213t-228 82q-197 0 -331 -156q-16 -20 -35 -4l-33 27q-9 6 -9.5 16.5t6.5 18.5t38.5 42t129.5 90t234 56q183 0 301.5 -104
t118.5 -271q0 -117 -71.5 -210t-167.5 -128v-6q110 -33 193 -131t83 -219q0 -177 -129.5 -291t-345.5 -114q-262 0 -426 186q-19 22 0 37l33 26q20 17 39 -6q1 -1 16 -17.5t19.5 -21t21 -20t26 -22t29.5 -20t36 -19.5t60.5 -23t149.5 -17q164 0 268.5 87.5t104.5 228.5z" />
    <glyph glyph-name="four" unicode="4" horiz-adv-x="1267" 
d="M178 414h713v868h-4l-709 -864v-4zM1143 414q26 0 26 -27v-31q0 -10 -7.5 -18t-18.5 -8h-160v-303q0 -11 -8.5 -19t-18.5 -8h-38q-27 0 -27 27v303h-799q-37 0 -37 30v17q0 17 13 37l839 1024q11 16 33 16h18q25 0 25 -24v-1016h160z" />
    <glyph glyph-name="five" unicode="5" horiz-adv-x="1169" 
d="M571 66q172 0 285 118.5t113 280.5t-102 256t-296 94h-350q-18 0 -29.5 13.5t-11.5 29.5v549q0 11 8.5 19t20.5 8h661q11 0 20 -8.5t9 -18.5v-33q0 -12 -9 -20t-20 -8h-600v-443h301q241 0 367.5 -113.5t126.5 -324.5q0 -132 -63 -243t-177.5 -176.5t-255.5 -65.5
q-261 0 -409 176q-13 18 -14 26.5t12 20.5l30 26q20 17 35 -4q137 -159 348 -159z" />
    <glyph glyph-name="six" unicode="6" horiz-adv-x="1187" 
d="M221 528q0 -62 25.5 -151t74.5 -159.5t127.5 -112.5t176.5 -42q155 0 265.5 117.5t110.5 281.5t-109 271t-263 107q-71 0 -183.5 -37t-220.5 -174q-4 -39 -4 -101zM131 553q0 145 29 253t74.5 188.5t170 221.5t416.5 254q24 7 31 -14l14 -33q10 -28 -22 -39t-69.5 -28
t-91.5 -48t-139 -91t-179.5 -182t-122.5 -279q39 46 141.5 108t270.5 62t266.5 -91t136 -179t37.5 -191q0 -200 -139 -342.5t-315 -142.5t-289 81t-166.5 214t-53.5 278z" />
    <glyph glyph-name="seven" unicode="7" horiz-adv-x="1015" 
d="M954 1434q31 0 31 -26q0 -10 -6 -22l-614 -1353q-9 -21 -16 -27t-25 -6h-50q-16 0 -19 12t5 21l598 1308v5h-776q-27 0 -27 30v31q0 27 27 27h872z" />
    <glyph glyph-name="eight" unicode="8" horiz-adv-x="1230" 
d="M276 1074q0 -126 91 -203t249 -87q156 10 247 87t91 203t-91 213t-251 87t-248 -87t-88 -213zM240 381q0 -113 75 -217.5t297 -104.5q168 0 273.5 79.5t105.5 214.5t-102.5 224.5t-272.5 104.5q-174 -15 -275 -101.5t-101 -199.5zM143 375q0 132 92 229.5t224 128.5v4
q-117 34 -198 125t-81 211q0 164 114.5 272.5t318.5 108.5t321 -108.5t117 -272.5q0 -120 -81 -211t-198 -125v-4q133 -31 224 -126.5t91 -231.5q0 -185 -130 -290t-343 -105t-342 105.5t-129 289.5z" />
    <glyph glyph-name="nine" unicode="9" horiz-adv-x="1189" 
d="M186 974q0 -163 109.5 -270.5t263.5 -107.5q71 0 187.5 38.5t214.5 172.5q6 29 6 95t-25.5 154.5t-74 159t-126.5 112.5t-176 42q-156 0 -267.5 -116.5t-111.5 -279.5zM94 985q0 117 64 228.5t172.5 176t231.5 64.5q244 0 370.5 -170.5t126.5 -429.5q0 -329 -200 -553.5
t-492 -337.5q-21 -7 -31 17l-14 30q-12 30 24 42t82 34t141.5 77.5t219 192.5t155.5 324q-32 -44 -136 -108t-273 -64q-168 0 -304.5 127t-136.5 350z" />
    <glyph glyph-name="colon" unicode=":" horiz-adv-x="485" 
d="M147 870q0 39 28.5 68t68.5 29t67 -29t27 -68t-28 -67.5t-66 -28.5t-67.5 28.5t-29.5 67.5zM147 74q0 39 28.5 66.5t68.5 27.5t67 -27t27 -67t-27.5 -68.5t-66.5 -28.5t-68 29t-29 68z" />
    <glyph glyph-name="semicolon" unicode=";" horiz-adv-x="542" 
d="M172 64q0 34 24 57.5t72 23.5t83.5 -60t35.5 -142q0 -168 -127 -291q-17 -17 -27 0l-22 20q-11 15 2 31q102 95 102 213q0 62 -18 92q-19 -22 -51 -22t-53 22t-21 56zM164 870q0 39 28 68t67 29t66 -29t27 -68t-28 -67.5t-66 -28.5t-66 28.5t-28 67.5z" />
    <glyph glyph-name="less" unicode="&#x3c;" 
d="M205 473v2q0 17 20 29l723 459q10 8 20 2t9 -23v-47q0 -22 -16 -31l-623 -391l623 -379q16 -9 16 -31v-47q1 -16 -9 -22t-20 2l-723 444q-20 12 -20 33z" />
    <glyph glyph-name="equal" unicode="=" 
d="M264 776v35q0 27 27 27h645q10 0 18.5 -8t8.5 -19v-35q0 -10 -8 -18t-19 -8h-645q-27 0 -27 26zM264 350v35q0 27 27 27h645q10 0 18.5 -8t8.5 -19v-35q0 -10 -8 -18t-19 -8h-645q-27 0 -27 26z" />
    <glyph glyph-name="greater" unicode="&#x3e;" 
d="M252 16v47q0 22 16 31l623 379l-623 391q-16 9 -16 31v47q0 17 9 23t20 -2l723 -459q20 -12 20 -29v-2q0 -21 -20 -33l-723 -444q-11 -8 -20 -2t-9 22z" />
    <glyph glyph-name="question" unicode="?" horiz-adv-x="921" 
d="M336 62q0 34 24 57.5t58 23.5t59 -23.5t25 -57.5t-25 -58t-59 -24t-58 24t-24 58zM716.5 1373.5q92.5 -80.5 92.5 -207.5t-80.5 -201t-146.5 -118t-91.5 -76.5t-25.5 -65.5v-117q0 -29 -27 -29h-39q-24 0 -24 29v119q0 78 49 123.5t119.5 97.5t122 101t51.5 132
t-68.5 147t-165.5 64t-140.5 -18.5t-66 -31t-41.5 -29t-30 -27t-22.5 -23.5t-12.5 -14q-15 -15 -35 -2l-20 14q-22 15 -6 39q49 68 139.5 121t233.5 53q142 0 234.5 -80.5z" />
    <glyph glyph-name="at" unicode="@" horiz-adv-x="2015" 
d="M692 474q0 -154 83.5 -250.5t216.5 -96.5t190.5 73t70.5 115v387q-8 15 -67 66t-184 51q-126 0 -218 -95.5t-92 -249.5zM997 901q160 0 260 -90l7 45q3 25 28 25h21q10 0 18 -8t8 -19v-514q0 -223 170 -223q155 0 244.5 129t89.5 322t-51.5 336.5t-149 249t-247.5 165
t-336 59.5q-259 0 -454 -114t-299.5 -322t-104.5 -494t155 -503.5t416 -329.5q22 -10 12 -33l-14 -33q-9 -21 -29 -12q-282 120 -452 360t-170 562q0 217 67 401t188 315t298.5 205t383.5 74t370 -65t331.5 -243.5t167.5 -553.5q0 -216 -73.5 -336t-156.5 -167.5t-185 -47.5
t-158.5 44.5t-75.5 117.5q-68 -106 -152 -134t-141 -28q-166 0 -272.5 121.5t-106.5 311.5t116.5 308.5t276.5 118.5z" />
    <glyph glyph-name="A" unicode="A" horiz-adv-x="1333" 
d="M309 475h711l-350 815h-4zM664 1454h6q19 0 26 -14l625 -1415q2 -6 2 -10q0 -15 -20 -15h-54q-19 0 -28 18l-166 377h-783l-163 -377q-9 -18 -29 -18h-57q-17 0 -17 13q0 5 2 12l631 1415q7 14 25 14z" />
    <glyph glyph-name="B" unicode="B" horiz-adv-x="1280" 
d="M301 770h383q142 0 223.5 80t81.5 211t-85.5 206.5t-233.5 75.5h-369v-573zM301 86h395q151 0 244.5 83.5t93.5 219.5t-93.5 214.5t-242.5 78.5h-397v-596zM207 27v1380q0 11 8 19t18 8h437q190 0 307 -101.5t117 -269.5q0 -116 -59 -202.5t-156 -127.5v-4
q115 -34 187.5 -119t72.5 -221q0 -172 -126 -280.5t-325 -108.5h-455q-10 0 -18 8t-8 19z" />
    <glyph glyph-name="C" unicode="C" horiz-adv-x="1464" 
d="M115 714q0 152 58.5 289t157.5 235.5t236.5 157t288.5 58.5q289 0 498 -190q18 -18 2 -37l-33 -35q-17 -16 -35 2q-189 168 -432 168q-176 0 -323 -87.5t-231.5 -236t-84.5 -322.5t84.5 -322t231.5 -235t323 -87q225 0 432 172q20 17 33 4l35 -35q8 -6 8 -16.5t-8 -18.5
q-204 -198 -500 -198q-151 0 -288 57.5t-236.5 155t-158 233.5t-58.5 288z" />
    <glyph glyph-name="D" unicode="D" horiz-adv-x="1503" 
d="M303 88h346q135 0 253 48.5t201.5 132.5t132 200.5t48.5 270.5t-81.5 297.5t-227.5 226t-326 82.5h-346v-1258zM207 27v1380q0 10 7.5 18.5t16.5 8.5h435q146 0 279.5 -57t230 -153t153.5 -228t57 -302t-96.5 -336t-262.5 -262t-361 -96h-435q-9 0 -16.5 8.5t-7.5 18.5z
" />
    <glyph glyph-name="E" unicode="E" horiz-adv-x="1185" 
d="M207 27v1380q0 11 8 19t18 8h822q10 0 18 -8t8 -19v-35q0 -10 -7.5 -18t-18.5 -8h-750v-566h649q11 0 19 -8t8 -18v-35q0 -11 -8.5 -19t-18.5 -8h-649v-606h750q10 0 18 -8t8 -19v-32q0 -11 -8 -19t-18 -8h-822q-10 0 -18 8t-8 19z" />
    <glyph glyph-name="F" unicode="F" horiz-adv-x="1142" 
d="M981 647q0 -10 -27 -10h-651v-610q0 -11 -9 -19t-24 -8h-37q-10 0 -18 8t-8 19v1380q0 11 8 19t18 8h822q10 0 18 -8t8 -19v-35q0 -10 -7.5 -18t-18.5 -8h-752v-623h651q10 0 18.5 -8.5t8.5 -18.5v-49z" />
    <glyph glyph-name="G" unicode="G" horiz-adv-x="1519" 
d="M903 639q0 25 27 25h420q10 0 18 -8t8 -17v-475q0 -32 -24 -50q-49 -34 -177.5 -84t-299.5 -50t-308 57.5t-236 155t-157.5 233.5t-58.5 288t58.5 289t157.5 236t236 157t289 58q287 0 496 -190q18 -18 5 -34q-13 -15 -33 -36t-38 -2q-187 172 -432 172
q-175 0 -321.5 -87t-231 -235t-84.5 -323t84.5 -323t231.5 -235t339 -87t294 51t114 61v385h-350q-16 0 -21.5 6t-5.5 21v41z" />
    <glyph glyph-name="H" unicode="H" horiz-adv-x="1525" 
d="M207 27v1380q0 11 8 19t18 8h43q12 0 19.5 -8t7.5 -19v-629h920v629q0 11 8 19t18 8h43q12 0 19.5 -8t7.5 -19v-1380q0 -11 -7.5 -19t-19.5 -8h-43q-10 0 -18 8t-8 19v665h-920v-665q0 -11 -7.5 -19t-19.5 -8h-43q-10 0 -18 8t-8 19z" />
    <glyph glyph-name="I" unicode="I" horiz-adv-x="512" 
d="M207 27v1380q0 11 8 19t18 8h46q10 0 18 -8t8 -19v-1380q0 -12 -9 -19.5t-20 -7.5h-43q-10 0 -18 8t-8 19z" />
    <glyph glyph-name="J" unicode="J" horiz-adv-x="952" 
d="M659 1407q0 27 29 27h41q11 0 19 -8t8 -19v-995q0 -211 -105 -321.5t-293 -110.5t-313 153q-6 9 -6 18t8 17l27 25q18 17 35 0q56 -56 86 -76q74 -51 165 -51q138 0 218.5 84.5t80.5 259.5v997z" />
    <glyph glyph-name="K" unicode="K" horiz-adv-x="1169" 
d="M1142 23q0 -23 -26 -23h-65q-25 0 -45 20l-701 676v-669q0 -27 -31 -27h-41q-26 0 -26 27v1376q0 13 8.5 22t22.5 9h36q14 0 22.5 -9t8.5 -22v-637l696 653q17 15 41 15h58q16 0 19 -13t-7 -22l-713 -666l736 -698q7 -5 7 -12z" />
    <glyph glyph-name="L" unicode="L" horiz-adv-x="1011" 
d="M983 23q0 -23 -27 -23h-723q-10 0 -18 8t-8 19v1380q0 11 8 19t18 8h46q9 0 16.5 -8.5t7.5 -18.5v-1321h653q17 0 22 -7t5 -20v-36z" />
    <glyph glyph-name="M" unicode="M" horiz-adv-x="1755" 
d="M410 1454h22q15 0 21 -14l421 -1258h5l424 1258q6 14 20 14h23q14 0 18 -14l291 -1413q1 -4 1 -8q0 -19 -24 -19h-49q-19 0 -24 23l-232 1200h-4l-414 -1227q-5 -16 -28 -16h-9q-21 0 -26 16l-414 1227h-4l-231 -1200q-5 -23 -25 -23h-49q-24 0 -24 19q0 4 1 8l291 1413
q3 14 19 14z" />
    <glyph glyph-name="N" unicode="N" horiz-adv-x="1562" 
d="M1354 6q0 -26 -33 -26h-6q-22 0 -33 16l-979 1276h-2v-1245q0 -11 -8.5 -19t-18.5 -8h-38q-10 0 -18.5 8t-8.5 19v1400q0 12 9.5 19.5t21.5 7.5h14q22 0 33 -16l970 -1264h3v1233q0 11 8 19t18 8h41q11 0 19 -8t8 -19v-1401z" />
    <glyph glyph-name="O" unicode="O" horiz-adv-x="1705" 
d="M205 715q0 -176 86.5 -324.5t235.5 -234.5t325 -86t325.5 86t236.5 234.5t87 324.5t-87 325.5t-236.5 236.5t-325.5 87t-325 -87t-235.5 -236.5t-86.5 -325.5zM115 714q0 152 58 289t156.5 236t234.5 157t288 58t289 -58t235.5 -157t156.5 -236t58 -289t-58 -288
t-156.5 -233.5t-235.5 -155t-289 -57.5t-288 57.5t-234.5 155t-156.5 233.5t-58 288z" />
    <glyph glyph-name="P" unicode="P" horiz-adv-x="1212" 
d="M303 604h367q154 0 262 105t108 266t-108 261.5t-264 100.5h-365v-733zM207 27v1380q0 11 8 19t18 8h441q126 0 232 -59t168.5 -165t62.5 -236t-62.5 -237.5t-168 -167t-230.5 -59.5h-373v-483q0 -11 -9 -19t-24 -8h-37q-10 0 -18 8t-8 19z" />
    <glyph glyph-name="Q" unicode="Q" horiz-adv-x="1705" 
d="M205 715q0 -176 86.5 -324.5t235.5 -234.5t325 -86t325.5 86t236.5 234.5t87 324.5t-87 325.5t-236.5 236.5t-325.5 87t-325 -87t-235.5 -236.5t-86.5 -325.5zM115 714q0 152 58 289t156.5 236t234.5 157t288 58t289 -58t235.5 -157t156.5 -236t58 -288q0 -231 -127 -415
t-334 -267l244 -398q5 -7 1 -18.5t-15 -11.5h-68q-14 0 -26 20l-228 377q-90 -22 -214 -22t-260 57.5t-234.5 155t-156.5 233.5t-58 288z" />
    <glyph glyph-name="R" unicode="R" horiz-adv-x="1318" 
d="M305 647h432q150 0 256.5 102t106.5 249t-107 244t-258 97h-430v-692zM207 1407q0 27 26 27h508q190 0 323.5 -124t133.5 -293t-95 -288.5t-243 -161.5l299 -530q8 -12 4 -24.5t-18 -12.5h-53q-29 0 -43 25l-293 530q-27 -2 -76 -2h-377v-526q0 -11 -9 -19t-24 -8h-37
q-10 0 -18 8t-8 19v1380z" />
    <glyph glyph-name="S" unicode="S" horiz-adv-x="1107" 
d="M123 1082q0 180 130 276t312 96q187 0 353 -104q23 -18 8 -43l-17 -27q-15 -28 -45 -10q-8 5 -35.5 22.5t-104.5 45.5t-164 28t-156.5 -25.5t-128 -88t-58.5 -173.5t86.5 -179t216.5 -112q129 -43 238.5 -90.5t183.5 -132.5t74 -208t-63 -207t-164 -127t-195 -43
t-184.5 21t-189 82.5t-98.5 87.5q0 9 7 19l18 25q25 27 43 11t52.5 -45t126 -72t219.5 -43t227.5 74t99.5 203t-102 204.5t-323 152.5t-294 168.5t-73 213.5z" />
    <glyph glyph-name="T" unicode="T" horiz-adv-x="1040" 
d="M987 1372q0 -26 -26 -26h-394v-1319q0 -11 -9 -19t-23 -8h-37q-10 0 -18.5 8t-8.5 19v1319h-391q-27 0 -27 30v31q0 12 8 19.5t19 7.5h881q26 0 26 -27v-35z" />
    <glyph glyph-name="U" unicode="U" horiz-adv-x="1460" 
d="M195 514v893q0 11 8 19t18 8h43q10 0 18.5 -8t8.5 -19v-883q0 -201 118.5 -325.5t320.5 -124.5t321.5 124t119.5 324v885q0 27 29 27h41q11 0 19 -8t8 -19v-893q0 -237 -148 -385.5t-390 -148.5t-388.5 148.5t-146.5 385.5z" />
    <glyph glyph-name="V" unicode="V" horiz-adv-x="1320" 
d="M27 1434h55q17 0 22 -15l553 -1272h5l559 1272q5 15 22 15h53q31 0 19 -29l-629 -1407q-7 -18 -24 -18h-11q-16 0 -22 18l-619 1409q-12 27 17 27z" />
    <glyph glyph-name="W" unicode="W" horiz-adv-x="1794" 
d="M58 1415q0 19 24 19h49q20 0 25 -23l344 -1200h4l360 1225q6 18 31 18h4q25 0 31 -18l362 -1225h4l342 1200q5 23 25 23h49q24 0 24 -19q0 -3 -1 -8l-406 -1413q-3 -14 -18 -14h-23q-14 0 -20 14l-369 1247h-4l-369 -1247q-6 -14 -20 -14h-23q-15 0 -18 14l-406 1413
q-1 4 -1 8z" />
    <glyph glyph-name="X" unicode="X" horiz-adv-x="1136" 
d="M78 0q-22 0 -22 17q0 6 5 14l445 702l-420 670q-8 12 -3.5 21.5t19.5 9.5h66q17 0 27 -13l370 -602h2l375 602q10 13 27 13h65q15 0 20 -9.5t-3 -21.5l-422 -670l448 -702q5 -8 5 -14q0 -17 -21 -17h-66q-17 0 -26 12l-402 633h-2l-395 -633q-9 -12 -27 -12h-65z" />
    <glyph glyph-name="Y" unicode="Y" horiz-adv-x="1159" 
d="M2 1417q0 17 23 17h61q17 0 27 -13l467 -637l475 637q10 13 26 13h62q22 0 22 -17q0 -6 -6 -14l-532 -705v-671q0 -11 -8.5 -19t-14.5 -8h-16q-4 -1 -8 -1t-6 1q-44 0 -44 27v669l-522 707q-6 7 -6 14z" />
    <glyph glyph-name="Z" unicode="Z" horiz-adv-x="1075" 
d="M53 25v16q0 20 10 37l822 1261v4h-742q-11 0 -18.5 9t-7.5 22v33q0 11 8 19t18 8h844q12 0 19.5 -8t7.5 -19v-12q0 -20 -10 -37l-824 -1266v-2h764q12 0 19.5 -8t7.5 -19v-36q0 -11 -7.5 -19t-19.5 -8h-862q-12 0 -20.5 7.5t-8.5 17.5z" />
    <glyph glyph-name="bracketleft" unicode="[" horiz-adv-x="679" 
d="M174 -461v1868q0 11 8 19t19 8h399q10 0 18.5 -8t8.5 -19v-31q0 -10 -8 -18t-19 -8h-338v-1753h338q10 0 18.5 -8.5t8.5 -18.5v-31q0 -10 -8 -18t-19 -8h-399q-11 0 -19 8t-8 18z" />
    <glyph glyph-name="backslash" unicode="\" horiz-adv-x="755" 
d="M137 1434h29q20 0 27 -17l452 -1388q4 -13 -2.5 -21t-19.5 -8h-31q-21 0 -27 18l-452 1387q-4 12 3 20.5t21 8.5z" />
    <glyph glyph-name="bracketright" unicode="]" horiz-adv-x="677" 
d="M53 -430q0 10 8.5 18.5t18.5 8.5h336v1753h-336q-11 0 -19 8t-8 18v31q0 11 8.5 19t18.5 8h397q11 0 19 -8t8 -19v-1868q0 -10 -8 -18t-19 -8h-397q-11 0 -19 8t-8 18v31z" />
    <glyph glyph-name="asciicircum" unicode="^" horiz-adv-x="1073" 
d="M537 1462h6q11 0 22 -14l430 -596q9 -12 6 -22.5t-18 -10.5h-47q-20 0 -33 17l-364 505l-365 -505q-13 -17 -33 -17h-47q-15 0 -18 10.5t6 22.5l432 596q10 14 23 14z" />
    <glyph glyph-name="underscore" unicode="_" horiz-adv-x="976" 
d="M166 -92q-27 0 -27 24v21q0 11 7.5 19t19.5 8h645q11 0 19 -8t8 -19v-21q0 -10 -8 -17t-19 -7h-645z" />
    <glyph glyph-name="grave" unicode="`" horiz-adv-x="618" 
d="M147 1337l21 41q10 18 35 6l336 -184q19 -11 12 -29l-10 -20q-8 -17 -33 -6l-352 162q-19 10 -9 30z" />
    <glyph glyph-name="a" unicode="a" horiz-adv-x="980" 
d="M482 530q-134 0 -219 -66.5t-85 -168.5t66 -165.5t164 -63.5t188.5 46t130.5 97v272q-111 49 -245 49zM90 289q0 142 105.5 231.5t287.5 89.5q110 0 244 -43q0 208 -54 262t-174 54t-193.5 -32t-74.5 -32q-28 -11 -36 15l-11 28q-12 20 6 31t49 24t112.5 31.5t147.5 18.5
t101 -4.5t62.5 -15.5t49.5 -22.5t38 -32.5t27.5 -39t25.5 -78t14 -220v-524q0 -12 -10.5 -21.5t-22.5 -9.5h-16q-26 0 -29 27l-10 86q-53 -53 -142 -94.5t-207 -41.5t-204 85t-86 227z" />
    <glyph glyph-name="b" unicode="b" horiz-adv-x="1126" 
d="M549 879q-161 0 -287 -107v-547q8 -20 45.5 -52t98 -69.5t176.5 -37.5q147 0 246.5 120t99.5 288t-109 286.5t-270 118.5zM172 31v1372q0 11 10 21t19 10h30q14 0 22.5 -9t8.5 -22v-529q72 58 160 75.5t139 17.5q198 0 327.5 -143.5t129.5 -351.5t-123.5 -351.5
t-295.5 -143.5t-251 61t-92 77l-6 -84q-5 -31 -35 -31h-12q-11 0 -21 9.5t-10 21.5z" />
    <glyph glyph-name="c" unicode="c" horiz-adv-x="1058" 
d="M106 472q0 140 66.5 254t178 177.5t239.5 63.5t221 -47t133 -99q19 -22 -2 -43l-16 -16q-24 -24 -46 0t-54 46t-97 46.5t-133 24.5q-162 0 -280.5 -118.5t-118.5 -288.5t116 -288t285 -118q131 0 199 55.5t102 92.5q20 22 43 -1l19 -16q11 -11 11 -20t-11 -25
q-30 -45 -127.5 -110t-234.5 -65q-136 0 -248 63.5t-178.5 177.5t-66.5 254z" />
    <glyph glyph-name="d" unicode="d" horiz-adv-x="1126" 
d="M574 879q-157 0 -266 -118.5t-109 -286.5t99.5 -288t247.5 -120t229 69.5t89 89.5v547q-133 107 -290 107zM109 472q0 208 129 351.5t327 143.5q81 0 155.5 -23.5t109.5 -46.5l34 -23v529q0 13 8.5 22t22.5 9h31q9 0 18.5 -9.5t9.5 -21.5v-1372q0 -12 -9.5 -21.5
t-20.5 -9.5h-13q-29 0 -34 31l-7 84q-52 -63 -150 -100.5t-181 -37.5q-183 0 -306.5 143.5t-123.5 351.5z" />
    <glyph glyph-name="e" unicode="e" horiz-adv-x="1083" 
d="M899 528q0 146 -90 248.5t-243 102.5t-254.5 -100.5t-110.5 -250.5h698zM109 474q0 136 55 247t160 178.5t241 67.5q186 0 305 -123t119 -307q0 -69 -11.5 -81t-23.5 -12h-755q3 -159 108.5 -268.5t258.5 -109.5t290 94q29 17 41 0l23 -35q6 -6 3.5 -17t-14.5 -20
q-50 -41 -146 -76t-215 -35t-224 67t-160 180.5t-55 249.5z" />
    <glyph glyph-name="f" unicode="f" horiz-adv-x="749" 
d="M78 858q-29 0 -29 31v26q0 12 8.5 21.5t20.5 9.5h149v146q0 170 79.5 266t230.5 96q84 0 156.5 -30.5t107.5 -69.5q11 -12 11 -23t-5 -16l-21 -25q-17 -20 -41 -2q-100 78 -208 78q-220 0 -220 -274v-146h357q33 0 33 -28v-33q0 -27 -33 -27h-357v-827q0 -12 -8.5 -21.5
t-21.5 -9.5h-31q-11 0 -20 9.5t-9 21.5v827h-149z" />
    <glyph glyph-name="g" unicode="g" horiz-adv-x="1128" 
d="M199 473q0 -172 107 -289.5t276 -117.5q133 0 203.5 52t80.5 62v574q-15 22 -96 73.5t-224 51.5q-144 0 -245.5 -117t-101.5 -289zM109 474q0 138 57 250.5t160 177.5t231 65q180 0 320 -111l8 66q3 24 26 24h13q13 0 22.5 -8.5t9.5 -22.5v-940q0 -199 -117.5 -311.5
t-301.5 -112.5q-104 0 -189.5 40t-130.5 83q-16 16 -4 35l20 27q16 19 41 0q39 -33 111.5 -64.5t151.5 -31.5q146 0 237.5 87t91.5 248v101q-54 -46 -134 -72.5t-152 -26.5q-134 0 -242.5 66t-168.5 179.5t-60 251.5z" />
    <glyph glyph-name="h" unicode="h" horiz-adv-x="1103" 
d="M199 0q-27 0 -27 31v1372q0 13 9 22t24 9h26q11 0 21 -9.5t10 -21.5v-584q138 148 326 148q354 0 354 -418v-518q0 -12 -9.5 -21.5t-21.5 -9.5h-28q-12 0 -21.5 9.5t-9.5 21.5v518q0 330 -268 330q-180 0 -322 -174v-674q0 -31 -31 -31h-32z" />
    <glyph glyph-name="i" unicode="i" horiz-adv-x="434" 
d="M199 0q-27 0 -27 31v884q0 12 9 21.5t22 9.5h28q11 0 21 -9.5t10 -21.5v-884q0 -31 -31 -31h-32zM133 1287q0 33 24 56t58 23t57 -23t23 -56t-23 -56t-57 -23t-58 23t-24 56z" />
    <glyph glyph-name="j" unicode="j" horiz-adv-x="434" 
d="M133 1287q0 33 24 56t58 23t57 -23t23 -56t-23 -56t-57 -23t-58 23t-24 56zM172 -164v1079q0 12 9 21.5t22 9.5h28q11 0 21 -9.5t10 -21.5v-1060q0 -157 -57.5 -238t-179.5 -121q-11 -4 -25 -4t-23 21l-8 20q-3 6 -3 22.5t24 22.5q88 22 135 82t47 176z" />
    <glyph glyph-name="k" unicode="k" horiz-adv-x="946" 
d="M199 0q-27 0 -27 31v1372q0 12 9 21.5t22 9.5h26q11 0 21 -9.5t10 -21.5v-842l488 371q20 14 38 14h68q17 0 18.5 -16t-12.5 -27l-502 -379l525 -483q9 -8 9 -18q0 -23 -22 -23h-53q-21 0 -47 18l-510 476v-463q0 -31 -31 -31h-30z" />
    <glyph glyph-name="l" unicode="l" horiz-adv-x="458" 
d="M211 0q-27 0 -27 31v1372q0 12 9 21.5t22 9.5h29q11 0 20.5 -9.5t9.5 -21.5v-1372q0 -31 -30 -31h-33z" />
    <glyph glyph-name="m" unicode="m" horiz-adv-x="1695" 
d="M199 0q-27 0 -27 31v884q0 12 9 21.5t22 9.5h16q20 0 23 -24l12 -101q109 146 313 146q105 0 174 -42t119 -126q132 168 332 168q342 0 342 -418v-518q0 -12 -9 -21.5t-22 -9.5h-35q-24 0 -24 31v518q0 330 -260 330q-158 0 -225 -82.5t-68 -83.5q18 -63 18 -164v-518
q0 -12 -9.5 -21.5t-20.5 -9.5h-31q-29 0 -29 31v518q0 330 -262 330q-144 0 -211 -66t-84 -96v-686q0 -31 -31 -31h-32z" />
    <glyph glyph-name="n" unicode="n" horiz-adv-x="1105" 
d="M199 0q-27 0 -27 31v884q0 13 9 22t24 9h10q26 0 29 -24l10 -101q138 146 332 146q193 0 275.5 -107.5t82.5 -306.5v-522q0 -12 -9.5 -21.5t-21.5 -9.5h-28q-12 0 -21.5 9.5t-9.5 21.5v518q0 330 -270 330q-140 0 -222 -68.5t-100 -93.5v-686q0 -31 -31 -31h-32z" />
    <glyph glyph-name="o" unicode="o" horiz-adv-x="1163" 
d="M197 474q0 -168 111.5 -288t271.5 -120t270.5 119.5t110.5 287.5t-110.5 287t-269.5 119t-271.5 -118.5t-112.5 -286.5zM106 475q0 133 62 245.5t172 179.5t240 67t240.5 -66.5t173.5 -180t63 -247.5t-63 -248.5t-172.5 -181t-239.5 -66.5q-201 0 -338.5 145t-137.5 353z
" />
    <glyph glyph-name="p" unicode="p" horiz-adv-x="1128" 
d="M930 473q0 172 -102 289t-246 117t-224.5 -51.5t-95.5 -73.5v-574q23 -23 99 -68.5t186 -45.5q169 0 276 117.5t107 289.5zM172 -457v1372q0 14 10 22.5t23 8.5h12q24 0 27 -24l8 -66q140 111 319 111q129 0 232 -65t160 -177.5t57 -250.5t-60 -251.5t-168.5 -179.5
t-243.5 -66t-203 43t-83 56v-533q0 -11 -11 -20.5t-22 -9.5h-26q-13 0 -22 9t-9 21z" />
    <glyph glyph-name="q" unicode="q" horiz-adv-x="1128" 
d="M199 473q0 -172 107 -289.5t276 -117.5q133 0 203.5 52t80.5 62v574q-15 22 -96 73.5t-224 51.5q-144 0 -245.5 -117t-101.5 -289zM109 474q0 138 57 250.5t160 177.5t231 65q180 0 320 -111l8 66q3 24 26 24h13q13 0 22.5 -8.5t9.5 -22.5v-1372q0 -12 -8.5 -21t-21.5 -9
h-27q-11 0 -22 9.5t-11 20.5v533q-54 -46 -134 -72.5t-152 -26.5q-134 0 -242.5 66t-168.5 179.5t-60 251.5z" />
    <glyph glyph-name="r" unicode="r" horiz-adv-x="765" 
d="M199 0q-27 0 -27 31v884q0 12 9 21.5t22 9.5h14q24 0 27 -26l10 -97q112 144 301 144q65 1 113 -15t56 -29t3 -26l-12 -37q-9 -27 -39 -12q-52 31 -116 31t-126 -20t-112 -69.5t-60 -72.5v-686q0 -31 -31 -31h-32z" />
    <glyph glyph-name="s" unicode="s" horiz-adv-x="847" 
d="M184.5 888q73.5 79 225.5 79q153 0 270 -72q25 -18 12 -43l-12 -23q-11 -23 -41 -8q-119 62 -224 62t-159.5 -47.5t-54.5 -111.5t57.5 -108t135.5 -72t92.5 -33.5t48 -19t47.5 -21t41.5 -22t39.5 -25.5t31 -27.5t27.5 -33t22.5 -44t14 -87.5q0 -108 -93 -181t-249 -73
t-293 105q-14 10 -14 19t4 16l18 33q14 26 39 6q25 -19 52.5 -36t88.5 -38t145 -21t148 47t64 129t-84 128.5t-172 78.5q-88 31 -134.5 54t-106.5 70.5t-60 144.5q0 96 73.5 175z" />
    <glyph glyph-name="t" unicode="t" horiz-adv-x="743" 
d="M672 889q0 -31 -33 -31h-334v-618q0 -97 25.5 -135.5t112.5 -38.5t208 75q25 13 37 -8l17 -29q3 -7 3 -16t-12 -20q-40 -31 -114.5 -61t-148.5 -30q-138 0 -178 71.5t-40 180.5v629h-115q-30 0 -30 31v33q0 24 30 24h115v258q0 27 33 31l26 2h8q6 1 15 -9t8 -22v-260h334
q15 0 24 -9t9 -22v-26z" />
    <glyph glyph-name="u" unicode="u" horiz-adv-x="1081" 
d="M162 385v530q0 12 9.5 21.5t21.5 9.5h30q12 0 20.5 -9.5t8.5 -21.5v-530q0 -167 62 -243t206 -76q175 0 299 176v673q0 31 31 31h31q11 0 19.5 -9.5t8.5 -21.5v-884q0 -12 -8.5 -21.5t-19.5 -9.5h-19q-23 0 -28 29l-9 92q-112 -144 -308 -144t-275.5 100t-79.5 308z" />
    <glyph glyph-name="v" unicode="v" horiz-adv-x="989" 
d="M47 928q0 18 19 18h47q20 0 30 -22l346 -799h5l352 799q7 22 31 22h47q19 0 19 -17q0 -9 -7 -18l-410 -911q-13 -23 -28 -23h-11q-17 0 -28 23l-406 911q-6 9 -6 17z" />
    <glyph glyph-name="w" unicode="w" horiz-adv-x="1431" 
d="M75 927q0 19 17 19h45q26 0 31 -22l223 -762h4l287 784q8 21 29 21h8q20 0 29 -21l282 -784h4l226 762q5 22 30 22h47q18 0 18 -17q0 -9 -5 -22l-283 -907q-6 -23 -29 -23h-8q-21 0 -31 23l-282 807h-4l-285 -807q-7 -23 -29 -23h-8q-23 0 -31 23l-282 907q-3 11 -3 20z
" />
    <glyph glyph-name="x" unicode="x" horiz-adv-x="948" 
d="M84 0q-20 0 -20 18q0 7 6 15l346 452l-328 428q-9 12 -4 22.5t20 10.5h48q20 0 36 -22l281 -379h4l287 379q11 22 35 22h49q15 0 19.5 -10.5t-7.5 -22.5l-324 -426l342 -454q7 -8 7 -15q0 -18 -21 -18h-49q-23 0 -37 20l-299 412h-4l-303 -412q-11 -20 -33 -20h-51z" />
    <glyph glyph-name="y" unicode="y" horiz-adv-x="980" 
d="M911 946q21 0 21 -22q0 -6 -6 -17l-592 -1376q-9 -18 -31 -18h-47q-32 0 -18 32l196 457l-377 905q-4 10 -4 18q0 21 19 21h43q24 0 32 -22l334 -818h6l349 818q8 22 30 22h45z" />
    <glyph glyph-name="z" unicode="z" horiz-adv-x="856" 
d="M100 0q-30 0 -30 27v4q0 19 12 37l559 784v6h-498q-12 0 -20 9t-8 20v28q0 31 28 31h613q13 0 21.5 -9.5t8.5 -20.5t-12 -27l-571 -795v-6h516q13 0 22 -9t9 -22v-26q0 -12 -9 -21.5t-22 -9.5h-619z" />
    <glyph glyph-name="braceleft" unicode="{" horiz-adv-x="755" 
d="M711 -485q-1 -25 -49 -25t-147 20.5t-188 129.5t-89 323v295q0 101 -55 135t-84 44q-29 9 -29 22v33q0 11 6 13.5t18 6.5t78 29.5t66 150.5v287q0 306 150.5 390.5t293.5 84.5q11 0 20 -7t9 -17v-25q0 -21 -21 -25q-175 -13 -269.5 -107.5t-94.5 -295.5v-285
q0 -142 -140 -217v-2q91 -46 115.5 -110t24.5 -105v-293q0 -201 94.5 -294.5t269.5 -106.5q21 -4 21 -25v-24z" />
    <glyph glyph-name="bar" unicode="|" horiz-adv-x="407" 
d="M211 1554q25 0 25 -26v-1991q0 -10 -8 -17t-19 -7h-10q-11 0 -19 7t-8 17v1991q0 26 27 26h12z" />
    <glyph glyph-name="braceright" unicode="}" horiz-adv-x="755" 
d="M45 1430q1 24 49 24t147.5 -21.5t188 -130.5t88.5 -323v-287q0 -101 55 -135t78 -42q24 -7 29.5 -10t5.5 -13v-33q0 -13 -18 -19t-84 -31.5t-66 -150.5v-295q0 -306 -150.5 -389.5t-293.5 -83.5q-11 0 -20 7.5t-9 17.5v24q0 21 21 25q175 13 269.5 106.5t94.5 294.5v293
q0 107 56 154.5t83 60.5v2q-139 75 -139 217v285q0 201 -94.5 295.5t-269.5 107.5q-21 4 -21 25v25z" />
    <glyph glyph-name="asciitilde" unicode="~" horiz-adv-x="1177" 
d="M403 737q109 0 205 -101t172 -101q115 0 161 78t46 79q16 22 35 6l27 -18q22 -15 6 -33q-12 -24 -79.5 -109t-195.5 -85q-44 0 -87.5 19.5t-66 37.5t-52.5 48t-48.5 46t-53.5 32.5t-62 16.5t-46.5 -4.5t-35.5 -13t-30.5 -18.5t-35.5 -32t-28.5 -33t-34.5 -56
q-16 -22 -37 -7l-27 21q-17 14 -9 28t16.5 26.5t35 46t55.5 59t75.5 46.5t94.5 21z" />
    <glyph glyph-name="uni00A0" unicode="&#xa0;" horiz-adv-x="491" 
 />
    <glyph glyph-name="exclamdown" unicode="&#xa1;" horiz-adv-x="454" 
d="M219 395h17q10 0 18 -7.5t8 -16.5l21 -582v-250q0 -26 -31 -26h-51q-11 0 -19 8t-8 18v248l19 584q0 9 8.5 16.5t17.5 7.5zM145 884q0 34 23.5 58.5t57.5 24.5t59.5 -24.5t25.5 -58.5t-25.5 -57.5t-59.5 -23.5t-57.5 23.5t-23.5 57.5z" />
    <glyph glyph-name="cent" unicode="&#xa2;" horiz-adv-x="1089" 
d="M205 475q0 -131 69.5 -234.5t184.5 -148.5l209 780q-35 7 -64 7q-162 0 -280.5 -118.5t-118.5 -285.5zM115 473q0 211 143 352.5t346 141.5q25 0 86 -9l15 50q7 25 34 18l15 -4q24 -7 18 -35l-12 -45q127 -41 192 -121q19 -22 -2 -43l-16 -16q-24 -24 -51 4
q-57 57 -148 88l-209 -780q33 -8 81 -8t94.5 13.5t75.5 28t61.5 41t40.5 35t28 30.5t43 -1l19 -16q17 -18 3 -40q-33 -50 -130.5 -115t-237.5 -65q-42 0 -102 11l-53 -203q-6 -20 -33 -16q-43 6 -35 34l53 203q-142 50 -230.5 176.5t-88.5 290.5z" />
    <glyph glyph-name="sterling" unicode="&#xa3;" 
d="M819 682q27 0 27 -29v-8q0 -11 -7.5 -19t-19.5 -8h-397q12 -73 12 -165q-3 -198 -76 -369h615q24 0 24 -29v-30q0 -9 -7 -17t-17 -8h-701q-10 0 -18 9t-6 20v18q47 104 72.5 217.5t25.5 186.5t-16 167h-88q-12 0 -19.5 9.5t-7.5 21.5v8q0 9 8.5 17t18.5 8h73
q-2 9 -33.5 125.5t-31.5 232.5q0 183 121.5 298.5t294.5 115.5q122 0 261 -70.5t93 -123.5l-16 -19q-21 -21 -40 -2q-33 33 -108 81t-201 48q-127 0 -221 -92t-94 -238q0 -108 31 -223.5t35 -132.5h413z" />
    <glyph glyph-name="currency" unicode="&#xa4;" horiz-adv-x="1001" 
d="M506 463q82 0 138 56t56 137q0 82 -56 140t-138 58q-84 0 -142 -58t-57 -140q0 -83 58.5 -138t140.5 -55zM166 373.5q0 10.5 6 15.5l109 109q-54 72 -54 160t54 161l-109 107q-15 20 4 37l21 22q16 13 39 4l104 -108q68 53 160 53t162 -55l108 108q4 6 16.5 5.5
t20.5 -11.5l22 -18q15 -20 0 -39l-104 -105q51 -69 51 -161t-51 -158l104 -105q14 -22 -6 -39l-20 -22q-19 -16 -37 -2l-104 104q-71 -53 -161 -53t-161 53l-104 -108q-18 -11 -39 4l-21 24q-10 7 -10 17.5z" />
    <glyph glyph-name="yen" unicode="&#xa5;" 
d="M229 565q0 27 25 27h307v104l-481 707q-9 12 -4 21.5t20 9.5h62q16 0 26 -13l426 -639l434 639q10 13 27 13h62q15 0 20 -9.5t-4 -21.5l-492 -705v-106h308q24 0 24 -27v-12q0 -25 -24 -25h-308v-180h308q24 0 24 -26v-13q0 -24 -24 -24h-308v-258q0 -11 -8 -19t-18 -8
h-45q-10 0 -17.5 8t-7.5 19v258h-307q-25 0 -25 24v13q0 26 25 26h307v180h-307q-10 0 -17.5 7t-7.5 18v12z" />
    <glyph glyph-name="brokenbar" unicode="&#xa6;" horiz-adv-x="423" 
d="M219 1554q25 0 25 -26v-707q0 -10 -8 -18t-19 -8h-10q-11 0 -19 8t-8 18v707q0 26 27 26h12zM180 242q0 10 8 18t19 8h12q10 0 17.5 -7.5t7.5 -18.5v-705q0 -10 -8 -17t-19 -7h-10q-11 0 -19 7t-8 17v705z" />
    <glyph glyph-name="section" unicode="&#xa7;" horiz-adv-x="1153" 
d="M240 596q0 -114 81 -180t233 -116t251 -107q1 1 14.5 13t21.5 19.5t45.5 47.5t37.5 126q0 111 -97.5 179t-287.5 131q-127 34 -193 84q-54 -51 -80 -95t-26 -102zM143 592q0 127 133 246q-131 123 -131 266q0 102 92 226t349 124q116 0 233.5 -45t125 -64.5t-0.5 -35.5
l-20 -31q-16 -22 -48 -4q-74 50 -127.5 65t-84.5 22t-100 7t-138.5 -24t-127.5 -82.5t-58 -164.5q0 -105 86 -178t249 -124q283 -95 367 -186.5t84 -211.5q0 -52 -18 -87.5t-29 -53.5t-28.5 -38.5t-26.5 -30t-25.5 -25.5t-17.5 -17q143 -118 143 -278q0 -96 -60.5 -174
t-160 -121t-197.5 -43q-179 0 -289 62.5t-149 99.5q-22 22 -6 43l26 33q19 22 36 5q35 -35 132 -96t232 -61t235.5 70.5t100.5 184.5t-95 190t-290 141q-295 96 -345.5 205.5t-50.5 185.5z" />
    <glyph glyph-name="dieresis" unicode="&#xa8;" horiz-adv-x="847" 
d="M573 1289q0 34 23.5 58.5t57.5 24.5t58.5 -24.5t24.5 -58.5t-24.5 -57.5t-58.5 -23.5t-57.5 23.5t-23.5 57.5zM180 1290q0 34 24 58t58 24t58 -24.5t24 -58.5t-24 -57.5t-58 -23.5t-58 24t-24 58z" />
    <glyph glyph-name="copyright" unicode="&#xa9;" horiz-adv-x="1738" 
d="M498 714q0 162 113 275t265 113t248 -78q20 -18 4 -39l-18 -22q-14 -19 -35 -2q-75 59 -194 59t-206 -89t-87 -216t87 -215t201 -88t197 63q23 17 39 -4l18 -25q13 -19 -2 -34q-98 -88 -250 -88t-266 114t-114 276zM211 694q0 -156 88 -307t239.5 -239.5t329.5 -88.5
t329.5 88.5t240 240t88.5 329.5t-88.5 329t-240 238.5t-307.5 87.5t-277.5 -52t-209.5 -139.5t-140 -209t-52 -277.5zM131 742q0 175 98.5 344.5t267.5 268.5t345 99t312.5 -58.5t236 -157.5t158.5 -235.5t59 -286.5t-59 -286t-158.5 -234.5t-236 -157t-286.5 -58.5
t-286.5 58t-235.5 157t-157 235.5t-58 311.5z" />
    <glyph glyph-name="ordfeminine" unicode="&#xaa;" horiz-adv-x="712" 
d="M168 1027q0 -61 39 -99.5t98 -38.5t112 27.5t79 60.5v164q-81 28 -153 28t-123.5 -40.5t-51.5 -101.5zM567 860q0 -20 -20 -20h-23q-17 0 -20 16l-6 47q-92 -78 -188 -78t-151 54.5t-55 144.5t67.5 145.5t166.5 55.5t160 -23q0 107 -22 147t-108 40t-127 -20.5t-42 -20.5
q-19 -6 -23 10l-8 26q-6 17 10 25q90 45 182 45t119 -16.5t41 -28.5t28 -48.5t16.5 -79t2.5 -105.5v-316z" />
    <glyph glyph-name="guillemotleft" unicode="&#xab;" horiz-adv-x="868" 
d="M694 838h33q12 0 15.5 -11t-5.5 -26l-192 -314l192 -321q9 -15 5.5 -26t-15.5 -11h-33q-19 0 -32 18l-222 322q-12 15 0 35l222 315q13 19 32 19zM367 838h32q12 0 16 -11t-5 -26l-193 -314l193 -321q9 -15 5 -26t-16 -11h-32q-20 0 -33 18l-221 322q-12 15 0 35l221 315
q13 19 33 19z" />
    <glyph glyph-name="logicalnot" unicode="&#xac;" horiz-adv-x="1193" 
d="M174 696v31q0 11 8 19t19 8h788q10 0 17.5 -8t7.5 -19v-410q0 -10 -8 -17t-19 -7h-33q-11 0 -18.5 7t-7.5 17v353h-727q-11 0 -19 8t-8 18z" />
    <glyph glyph-name="uni00AD" unicode="&#xad;" horiz-adv-x="808" 
d="M147 522q0 27 25 27h463q11 0 19 -7.5t8 -19.5v-22q0 -10 -8 -18.5t-19 -8.5h-463q-10 0 -17.5 8t-7.5 19v22z" />
    <glyph glyph-name="registered" unicode="&#xae;" horiz-adv-x="1738" 
d="M1106 866q0 158 -201 158h-217v-317h242q72 0 124 43.5t52 115.5zM606 369v702q0 11 7.5 19t17.5 8h299q107 0 183.5 -60t76.5 -166t-59.5 -163t-135.5 -72l144 -262q6 -11 1 -21t-18 -10h-47q-17 0 -28 21l-138 266h-221v-262q0 -27 -24 -27h-33q-10 0 -17.5 8t-7.5 19z
M211 694q0 -156 88 -307t239.5 -239.5t329.5 -88.5t329.5 88.5t240 240t88.5 329.5t-88.5 329t-240 238.5t-307.5 87.5t-277.5 -52t-209.5 -139.5t-140 -209t-52 -277.5zM131 742q0 175 98.5 344.5t267.5 268.5t345 99t312.5 -58.5t236 -157.5t158.5 -235.5t59 -286.5
t-59 -286t-158.5 -234.5t-236 -157t-286.5 -58.5t-286.5 58t-235.5 157t-157 235.5t-58 311.5z" />
    <glyph glyph-name="macron" unicode="&#xaf;" horiz-adv-x="847" 
d="M119 1270q0 26 26 26h557q11 0 19 -8t8 -18v-27q0 -10 -8 -17t-19 -7h-557q-26 0 -26 24v27z" />
    <glyph glyph-name="degree" unicode="&#xb0;" horiz-adv-x="774" 
d="M176 1170q0 -86 62.5 -147.5t147.5 -61.5t147.5 62t62.5 147t-62.5 147.5t-147.5 62.5t-147.5 -62t-62.5 -148zM104 1172q0 118 82 200t200 82t201 -82.5t83 -200.5t-83 -200t-201 -82t-200 82.5t-82 200.5z" />
    <glyph glyph-name="plusminus" unicode="&#xb1;" 
d="M195 809v31q0 10 7.5 18t18.5 8h350v344q0 10 8 17.5t19 7.5h33q11 0 18.5 -7.5t7.5 -17.5v-344h353q10 0 17 -7.5t7 -18.5v-31q0 -11 -7 -19t-17 -8h-353v-258q0 -10 -7.5 -18t-18.5 -8h-33q-11 0 -19 8t-8 18v258h-350q-10 0 -18 8t-8 19zM195 178v31q0 11 8 19t18 8
h789q10 0 17 -8t7 -19v-31q0 -11 -7 -18.5t-17 -7.5h-789q-11 0 -18.5 8t-7.5 18z" />
    <glyph glyph-name="uni00B2" unicode="&#xb2;" horiz-adv-x="589" 
d="M72 1049v18l284 266q74 71 74 127t-39 93.5t-110 37.5t-138 -67q-4 -6 -10.5 -6t-9.5 4l-27 24q-10 10 -4 18t42 51.5t170 43.5q84 0 142 -53.5t58 -139.5t-94 -172l-217 -198h292q15 0 15 -17v-30q0 -17 -15 -17h-395q-18 0 -18 17z" />
    <glyph glyph-name="uni00B3" unicode="&#xb3;" horiz-adv-x="610" 
d="M526 1188q0 -76 -65 -126t-158 -50t-148 28t-77 56q-11 11 0 22l22 23q14 13 27 0l33 -28q33 -28 71.5 -33t59.5 -5q69 0 113.5 33t44.5 83t-43 84t-123 34h-93q-16 0 -16 20v25q0 16 16 16h93q66 0 107.5 29t41.5 81t-39 82.5t-112 30.5t-134 -61q-11 -11 -20 -2l-27 22
q-12 12 -6 19t19.5 21t65 40.5t131.5 26.5q79 0 138.5 -45.5t59.5 -122.5q0 -48 -32.5 -88.5t-74.5 -59.5q125 -50 125 -155z" />
    <glyph glyph-name="acute" unicode="&#xb4;" horiz-adv-x="618" 
d="M147 1178q-7 17 13 28l338 178q23 14 34 -6l21 -41q11 -22 -18 -37l-347 -157q-14 -5 -18.5 -3.5t-9.5 11.5z" />
    <glyph glyph-name="uni00B5" unicode="&#xb5;" horiz-adv-x="1073" 
d="M188 -457v1372q0 12 9.5 21.5t21.5 9.5h31q12 0 20.5 -9.5t8.5 -21.5v-518q0 -169 62.5 -250t205.5 -81q175 0 299 176v673q0 31 31 31h30q11 0 20 -9.5t9 -21.5v-884q0 -12 -9 -21.5t-20 -9.5h-18q-24 0 -29 29l-8 92q-112 -144 -300 -144t-273 93v-527q0 -30 -31 -30
h-33q-27 0 -27 30z" />
    <glyph glyph-name="paragraph" unicode="&#xb6;" horiz-adv-x="1470" 
d="M659 -487q-26 0 -26 26v1041h-148q-118 0 -211.5 60.5t-142.5 157t-49 206.5q0 178 117 304t286 126h877q10 0 18.5 -8t8.5 -19v-25q0 -26 -27 -26h-219v-1817q0 -10 -8 -18t-19 -8h-22q-10 0 -18.5 7t-8.5 19v1817h-358v-1817q0 -10 -8 -18t-19 -8h-23z" />
    <glyph glyph-name="periodcentered" unicode="&#xb7;" horiz-adv-x="460" 
d="M147 536q0 34 25.5 57t59.5 23t57.5 -23t23.5 -57t-23.5 -58.5t-57.5 -24.5t-59.5 24.5t-25.5 58.5z" />
    <glyph glyph-name="cedilla" unicode="&#xb8;" horiz-adv-x="505" 
d="M237 -403q134 0 134 96q0 45 -33.5 68.5t-89.5 23.5t-101 -18q-10 -4 -20.5 5.5t-5.5 18.5l117 213l84 -4l-89 -141q12 4 39 4q74 0 130.5 -41t56.5 -124t-61 -132t-156 -49t-162 63q-12 12 -2 27l20 39q10 15 27 2q47 -51 112 -51z" />
    <glyph glyph-name="uni00B9" unicode="&#xb9;" horiz-adv-x="362" 
d="M258 1049q0 -17 -16 -17h-41q-17 0 -17 17v493l-96 -57q-12 -6 -18 4l-13 20q-6 13 6 23l150 106h25q20 0 20 -16v-573z" />
    <glyph glyph-name="ordmasculine" unicode="&#xba;" horiz-adv-x="731" 
d="M188 1129q0 -121 47 -188t131 -67t130.5 67t46.5 188t-46.5 190.5t-130.5 69.5t-131 -69.5t-47 -190.5zM115 1130q0 152 66.5 238t184.5 86t184 -86t66 -238t-66 -237.5t-184 -85.5t-184.5 85.5t-66.5 237.5z" />
    <glyph glyph-name="guillemotright" unicode="&#xbb;" horiz-adv-x="868" 
d="M469 838h33q20 0 33 -19l221 -315q12 -20 0 -35l-221 -322q-13 -18 -33 -18h-33q-12 0 -15.5 11t5.5 26l192 321l-192 314q-9 15 -5.5 26t15.5 11zM141 838h33q20 0 33 -19l221 -315q12 -20 0 -35l-221 -322q-13 -18 -33 -18h-33q-12 0 -15.5 11t5.5 26l193 321l-193 314
q-9 15 -5.5 26t15.5 11z" />
    <glyph glyph-name="onequarter" unicode="&#xbc;" horiz-adv-x="1273" 
d="M1008 211v266l-244 -266h244zM666 141q-19 0 -19 19v18l387 428h29q8 0 14 -5.5t6 -12.5v-379h80q7 0 13 -5t6 -11v-33q0 -6 -6 -11.5t-13 -5.5h-80v-125q0 -7 -6 -12.5t-14 -5.5h-35q-8 0 -14 5.5t-6 12.5v123h-342zM969 1434h30q12 0 17.5 -8.5t-0.5 -20.5l-787 -1395
q-6 -10 -26 -10h-31q-12 0 -17 8.5t1 20.5l786 1394q7 11 27 11zM299 844q0 -17 -16 -17h-41q-17 0 -17 17v493l-96 -57q-11 -6 -18 4l-13 21q-6 12 6 22l150 107h25q20 0 20 -17v-573z" />
    <glyph glyph-name="onehalf" unicode="&#xbd;" horiz-adv-x="1327" 
d="M795 16v19l284 266q71 68 73 126t-37.5 95t-110.5 37t-138 -67q-10 -13 -20 -3l-27 25q-11 10 -5 18t43 51.5t171 43.5q84 0 141.5 -53.5t57.5 -139.5t-94 -172l-218 -199h293q15 0 15 -16v-31q0 -16 -15 -16h-395q-18 0 -18 16zM969 1434h30q12 0 17.5 -8.5t-0.5 -20.5
l-787 -1395q-6 -10 -26 -10h-31q-12 0 -17 8.5t1 20.5l786 1394q7 11 27 11zM299 844q0 -17 -16 -17h-41q-17 0 -17 17v493l-96 -57q-11 -6 -18 4l-13 21q-6 12 6 22l150 107h25q20 0 20 -17v-573z" />
    <glyph glyph-name="threequarters" unicode="&#xbe;" horiz-adv-x="1423" 
d="M1155 211v266l-244 -266h244zM813 141q-18 0 -18 19v18l387 428h28q8 0 14.5 -5.5t6.5 -12.5v-379h80q7 0 12.5 -5t5.5 -11v-33q0 -6 -5.5 -11.5t-12.5 -5.5h-80v-125q0 -7 -6.5 -12.5t-14.5 -5.5h-34q-8 0 -14.5 5.5t-6.5 12.5v123h-342zM1116 1434h31q12 0 17 -8.5
t-1 -20.5l-786 -1395q-6 -10 -27 -10h-31q-12 0 -17 8.5t1 20.5l787 1394q7 11 26 11zM555 983q0 -76 -65 -126t-158 -50t-148.5 28t-77.5 56q-11 11 0 22l23 23q13 14 27 0q66 -66 149 -66t127.5 33t44.5 83t-43 84t-123 34h-92q-16 0 -16 20v25q0 16 16 16h92
q66 0 108 29.5t42 81.5t-39.5 82.5t-111.5 30.5t-134 -62q-11 -11 -20 -2l-27 23q-11 12 -5 18t19 20.5t64.5 41t131.5 26.5q79 0 138.5 -45.5t59.5 -122.5q0 -48 -32 -88t-75 -59q125 -50 125 -156z" />
    <glyph glyph-name="questiondown" unicode="&#xbf;" horiz-adv-x="888" 
d="M410 884q0 34 25 58.5t59 24.5t57.5 -24.5t23.5 -58.5t-23.5 -57.5t-57.5 -23.5t-59 23.5t-25 57.5zM102 -221q0 75 35.5 136.5t86 101.5t136.5 99t86 124v116q0 29 27 29h39q25 0 25 -29v-118q0 -90 -63.5 -140t-107.5 -83.5t-107.5 -84.5t-63.5 -140q0 -90 68 -154
t165 -64t140.5 18.5t66 31t41.5 29t30 27t22.5 23.5t12.5 14q15 15 35 2l21 -14q22 -15 6 -39q-78 -110 -185.5 -142t-177.5 -32q-153 0 -245.5 80.5t-92.5 208.5z" />
    <glyph glyph-name="Agrave" unicode="&#xc0;" horiz-adv-x="1333" 
d="M492 1794l20 41q10 18 35 6l336 -184q19 -11 12 -29l-10 -20q-8 -17 -33 -6l-352 161q-19 9 -8 31zM309 475h711l-350 815h-4zM664 1454h6q19 0 26 -14l625 -1415q8 -25 -18 -25h-54q-19 0 -28 18l-166 377h-783l-163 -377q-9 -18 -29 -18h-57q-24 0 -15 25l631 1415
q7 14 25 14z" />
    <glyph glyph-name="Aacute" unicode="&#xc1;" horiz-adv-x="1333" 
d="M489 1628q-7 18 13 29l336 184q24 12 34 -6l21 -41q11 -22 -8 -31l-353 -161q-24 -11 -32 6zM309 475h711l-350 815h-4zM664 1454h6q19 0 26 -14l625 -1415q8 -25 -18 -25h-54q-19 0 -28 18l-166 377h-783l-163 -377q-9 -18 -29 -18h-57q-24 0 -15 25l631 1415
q7 14 25 14z" />
    <glyph glyph-name="Acircumflex" unicode="&#xc2;" horiz-adv-x="1333" 
d="M668 1839h6q10 0 20 -10l248 -201q19 -15 8 -29l-18 -22q-13 -17 -31 -4l-231 172l-230 -172q-17 -13 -30 4l-19 22q-11 14 8 29l248 201q10 10 21 10zM309 475h711l-350 815h-4zM664 1454h6q19 0 26 -14l625 -1415q8 -25 -18 -25h-54q-19 0 -28 18l-166 377h-783
l-163 -377q-9 -18 -29 -18h-57q-24 0 -15 25l631 1415q7 14 25 14z" />
    <glyph glyph-name="Atilde" unicode="&#xc3;" horiz-adv-x="1333" 
d="M543 1851q91 0 119.5 -46.5t54 -93t71.5 -46.5q78 0 117 121q3 10 12.5 14.5t18.5 -0.5l22 -8q18 -10 14 -24t-8.5 -28t-20 -43t-35 -51t-53 -39.5t-73.5 -17.5t-69.5 19.5t-46.5 47.5t-43.5 75t-71.5 47q-78 0 -117 -127q-7 -25 -31 -15l-24 11q-19 6 -12 28
q65 176 176 176zM309 475h711l-350 815h-4zM664 1454h6q19 0 26 -14l625 -1415q8 -25 -18 -25h-54q-19 0 -28 18l-166 377h-783l-163 -377q-9 -18 -29 -18h-57q-24 0 -15 25l631 1415q7 14 25 14z" />
    <glyph glyph-name="Adieresis" unicode="&#xc4;" horiz-adv-x="1333" 
d="M805 1710q0 34 24.5 58t58.5 24t58.5 -24.5t24.5 -58.5t-24.5 -57.5t-58.5 -23.5t-58.5 24t-24.5 58zM377 1710q0 34 24.5 58t58.5 24t58.5 -24.5t24.5 -58.5t-24.5 -57.5t-58.5 -23.5t-58.5 24t-24.5 58zM309 475h711l-350 815h-4zM664 1454h6q19 0 26 -14l625 -1415
q8 -25 -18 -25h-54q-19 0 -28 18l-166 377h-783l-163 -377q-9 -18 -29 -18h-57q-24 0 -15 25l631 1415q7 14 25 14z" />
    <glyph glyph-name="Aring" unicode="&#xc5;" horiz-adv-x="1333" 
d="M522 1761q0 -61 45 -106t107 -45t106.5 45t44.5 107t-44.5 106.5t-106.5 44.5t-107 -45.5t-45 -106.5zM457 1761q0 92 62.5 155.5t154.5 63.5t155.5 -63.5t63.5 -155.5t-63.5 -154.5t-155.5 -62.5t-154.5 62.5t-62.5 154.5zM309 475h711l-350 815h-4zM664 1454h6
q19 0 26 -14l625 -1415q8 -25 -18 -25h-54q-19 0 -28 18l-166 377h-783l-163 -377q-9 -18 -29 -18h-57q-24 0 -15 25l631 1415q7 14 25 14z" />
    <glyph glyph-name="AE" unicode="&#xc6;" horiz-adv-x="1847" 
d="M866 475v782l-497 -782h497zM1739 1374q0 -26 -27 -26h-756v-568h658q10 0 18 -8t8 -18v-35q0 -27 -26 -27h-658v-606h756q27 0 27 -29v-30q0 -11 -7.5 -19t-19.5 -8h-819q-11 0 -19 8t-8 19v368h-544l-238 -377q-13 -18 -33 -18h-57q-19 0 -16.5 13t8.5 22l870 1364
q11 18 21 26.5t30 8.5h805q12 0 19.5 -8t7.5 -19v-33z" />
    <glyph glyph-name="Ccedilla" unicode="&#xc7;" horiz-adv-x="1464" 
d="M115 719q0 147 58.5 284t157.5 235.5t236.5 157t288.5 58.5q289 0 498 -190q18 -18 2 -37l-33 -35q-17 -16 -35 2q-189 168 -432 168q-176 0 -323 -87.5t-231.5 -236t-84.5 -322.5t84.5 -322t231.5 -235t323 -87q225 0 432 172q20 17 33 4l35 -35q8 -6 8 -16.5t-8 -18.5
q-198 -195 -494 -198l-76 -121q12 4 39 4q74 0 130.5 -41t56.5 -124t-61 -132t-156 -49t-162 63q-12 12 -2 27l20 39q10 15 27 2q47 -51 112 -51q134 0 134 96q0 45 -33.5 68.5t-89.5 23.5t-101 -18q-10 -4 -20.5 5.5t-5.5 18.5l104 193q-138 14 -260.5 76t-211 158
t-140 225t-51.5 276z" />
    <glyph glyph-name="Egrave" unicode="&#xc8;" horiz-adv-x="1185" 
d="M453 1794l20 41q10 18 35 6l336 -184q19 -11 12 -29l-10 -20q-8 -17 -33 -6l-352 161q-19 9 -8 31zM207 27v1380q0 11 8 19t18 8h822q10 0 18 -8t8 -19v-35q0 -10 -7.5 -18t-18.5 -8h-750v-566h649q11 0 19 -8t8 -18v-35q0 -11 -8.5 -19t-18.5 -8h-649v-606h750
q10 0 18 -8t8 -19v-32q0 -11 -8 -19t-18 -8h-822q-10 0 -18 8t-8 19z" />
    <glyph glyph-name="Eacute" unicode="&#xc9;" horiz-adv-x="1185" 
d="M451 1628q-7 18 12 29l336 184q25 12 35 -6l20 -41q11 -22 -8 -31l-352 -161q-25 -11 -33 6zM207 27v1380q0 11 8 19t18 8h822q10 0 18 -8t8 -19v-35q0 -10 -7.5 -18t-18.5 -8h-750v-566h649q11 0 19 -8t8 -18v-35q0 -11 -8.5 -19t-18.5 -8h-649v-606h750q10 0 18 -8
t8 -19v-32q0 -11 -8 -19t-18 -8h-822q-10 0 -18 8t-8 19z" />
    <glyph glyph-name="Ecircumflex" unicode="&#xca;" horiz-adv-x="1185" 
d="M629 1839h6q10 0 20 -10l248 -201q19 -15 8 -29l-18 -22q-13 -17 -31 -4l-231 172l-230 -172q-17 -13 -30 4l-19 22q-11 14 8 29l248 201q10 10 21 10zM207 27v1380q0 11 8 19t18 8h822q10 0 18 -8t8 -19v-35q0 -10 -7.5 -18t-18.5 -8h-750v-566h649q11 0 19 -8t8 -18
v-35q0 -11 -8.5 -19t-18.5 -8h-649v-606h750q10 0 18 -8t8 -19v-32q0 -11 -8 -19t-18 -8h-822q-10 0 -18 8t-8 19z" />
    <glyph glyph-name="Edieresis" unicode="&#xcb;" horiz-adv-x="1185" 
d="M774 1710q0 34 24 58t58 24t59 -24.5t25 -58.5t-25 -57.5t-59 -23.5t-58 24t-24 58zM346 1710q0 34 24 58t58 24t59 -24.5t25 -58.5t-25 -57.5t-59 -23.5t-58 24t-24 58zM207 27v1380q0 11 8 19t18 8h822q10 0 18 -8t8 -19v-35q0 -10 -7.5 -18t-18.5 -8h-750v-566h649
q11 0 19 -8t8 -18v-35q0 -11 -8.5 -19t-18.5 -8h-649v-606h750q10 0 18 -8t8 -19v-32q0 -11 -8 -19t-18 -8h-822q-10 0 -18 8t-8 19z" />
    <glyph glyph-name="Igrave" unicode="&#xcc;" horiz-adv-x="512" 
d="M207 27v1380q0 11 8 19t18 8h46q10 0 18 -8t8 -19v-1380q0 -12 -9 -19.5t-20 -7.5h-43q-10 0 -18 8t-8 19zM74 1794l20 41q10 18 35 6l336 -184q19 -11 12 -29l-10 -20q-8 -17 -33 -6l-352 161q-19 9 -8 31z" />
    <glyph glyph-name="Iacute" unicode="&#xcd;" horiz-adv-x="512" 
d="M207 27v1380q0 11 8 19t18 8h46q10 0 18 -8t8 -19v-1380q0 -12 -9 -19.5t-20 -7.5h-43q-10 0 -18 8t-8 19zM72 1628q-7 18 12 29l336 184q25 12 35 -6l20 -41q11 -22 -8 -31l-352 -161q-25 -11 -33 6z" />
    <glyph glyph-name="Icircumflex" unicode="&#xce;" horiz-adv-x="512" 
d="M207 27v1380q0 11 8 19t18 8h46q10 0 18 -8t8 -19v-1380q0 -12 -9 -19.5t-20 -7.5h-43q-10 0 -18 8t-8 19zM250 1839h6q10 0 20 -10l248 -201q19 -15 8 -29l-18 -22q-13 -17 -31 -4l-231 172l-229 -172q-18 -13 -31 4l-19 22q-11 13 9 29l247 201q10 10 21 10z" />
    <glyph glyph-name="Idieresis" unicode="&#xcf;" horiz-adv-x="512" 
d="M387 1710q0 34 24.5 58t58.5 24t58.5 -24.5t24.5 -58.5t-24.5 -57.5t-58.5 -23.5t-58.5 24t-24.5 58zM207 27v1380q0 11 8 19t18 8h46q10 0 18 -8t8 -19v-1380q0 -12 -9 -19.5t-20 -7.5h-43q-10 0 -18 8t-8 19zM-41 1710q0 34 24.5 58t58.5 24t58.5 -24.5t24.5 -58.5
t-24.5 -57.5t-58.5 -23.5t-58.5 24t-24.5 58z" />
    <glyph glyph-name="Eth" unicode="&#xd0;" horiz-adv-x="1503" 
d="M303 88h346q176 0 321 82.5t228.5 227.5t83.5 320t-83.5 319t-229 226.5t-320.5 82.5h-346v-603h512q11 0 19 -8t8 -18v-12q0 -10 -8 -17.5t-19 -7.5h-512v-592zM111 707v10q0 11 7 18.5t17 7.5h72v664q0 11 7 19t17 8h435q146 0 279.5 -57t230 -153t153.5 -228t57 -302
t-96.5 -336t-262.5 -262t-361 -96h-435q-10 0 -17 8t-7 19v653h-72q-10 0 -17 8t-7 19z" />
    <glyph glyph-name="Ntilde" unicode="&#xd1;" horiz-adv-x="1562" 
d="M903 1589q-40 0 -69.5 19.5t-46.5 47.5t-43.5 75t-71.5 47q-78 0 -117 -127q-7 -25 -31 -15l-24 11q-20 7 -13 28q67 176 180 176q88 0 116.5 -46.5t54 -93t71.5 -46.5q78 0 117 121q3 10 12.5 14.5t18.5 -0.5l22 -8q18 -10 14 -24t-8.5 -28t-20 -43t-35 -51t-53 -39.5
t-73.5 -17.5zM1354 6q0 -26 -33 -26h-6q-22 0 -33 16l-979 1276h-2v-1245q0 -11 -8.5 -19t-18.5 -8h-38q-10 0 -18.5 8t-8.5 19v1400q0 12 9.5 19.5t21.5 7.5h14q22 0 33 -16l970 -1264h3v1233q0 11 8 19t18 8h41q11 0 19 -8t8 -19v-1401z" />
    <glyph glyph-name="Ograve" unicode="&#xd2;" horiz-adv-x="1705" 
d="M672 1794l20 41q10 18 35 6l336 -184q19 -11 12 -29l-10 -20q-8 -17 -33 -6l-352 161q-19 9 -8 31zM205 715q0 -176 86.5 -324.5t235.5 -234.5t325 -86t325.5 86t236.5 234.5t87 324.5t-87 325.5t-236.5 236.5t-325.5 87t-325 -87t-235.5 -236.5t-86.5 -325.5zM115 714
q0 152 58 289t156.5 236t234.5 157t288 58t289 -58t235.5 -157t156.5 -236t58 -289t-58 -288t-156.5 -233.5t-235.5 -155t-289 -57.5t-288 57.5t-234.5 155t-156.5 233.5t-58 288z" />
    <glyph glyph-name="Oacute" unicode="&#xd3;" horiz-adv-x="1705" 
d="M670 1628q-7 18 12 29l336 184q25 12 35 -6l20 -41q11 -22 -8 -31l-352 -161q-25 -11 -33 6zM205 715q0 -176 86.5 -324.5t235.5 -234.5t325 -86t325.5 86t236.5 234.5t87 324.5t-87 325.5t-236.5 236.5t-325.5 87t-325 -87t-235.5 -236.5t-86.5 -325.5zM115 714
q0 152 58 289t156.5 236t234.5 157t288 58t289 -58t235.5 -157t156.5 -236t58 -289t-58 -288t-156.5 -233.5t-235.5 -155t-289 -57.5t-288 57.5t-234.5 155t-156.5 233.5t-58 288z" />
    <glyph glyph-name="Ocircumflex" unicode="&#xd4;" horiz-adv-x="1705" 
d="M848 1839h6q10 0 20 -10l248 -201q19 -15 8 -29l-18 -22q-13 -17 -31 -4l-231 172l-229 -172q-18 -13 -31 4l-19 22q-11 13 9 29l247 201q10 10 21 10zM205 715q0 -176 86.5 -324.5t235.5 -234.5t325 -86t325.5 86t236.5 234.5t87 324.5t-87 325.5t-236.5 236.5
t-325.5 87t-325 -87t-235.5 -236.5t-86.5 -325.5zM115 714q0 152 58 289t156.5 236t234.5 157t288 58t289 -58t235.5 -157t156.5 -236t58 -289t-58 -288t-156.5 -233.5t-235.5 -155t-289 -57.5t-288 57.5t-234.5 155t-156.5 233.5t-58 288z" />
    <glyph glyph-name="Otilde" unicode="&#xd5;" horiz-adv-x="1705" 
d="M723 1851q90 0 119.5 -46.5t55 -93t71.5 -46.5q77 0 116 121q3 10 12.5 14.5t18.5 -0.5l23 -8q17 -8 13 -23t-8.5 -29t-20 -43t-34.5 -51t-52.5 -39.5t-73.5 -17.5t-69.5 19.5t-47 47.5t-44 75t-71.5 47q-78 0 -117 -127q-7 -25 -30 -15l-25 11q-19 6 -12 28
q65 176 176 176zM205 715q0 -176 86.5 -324.5t235.5 -234.5t325 -86t325.5 86t236.5 234.5t87 324.5t-87 325.5t-236.5 236.5t-325.5 87t-325 -87t-235.5 -236.5t-86.5 -325.5zM115 714q0 152 58 289t156.5 236t234.5 157t288 58t289 -58t235.5 -157t156.5 -236t58 -289
t-58 -288t-156.5 -233.5t-235.5 -155t-289 -57.5t-288 57.5t-234.5 155t-156.5 233.5t-58 288z" />
    <glyph glyph-name="Odieresis" unicode="&#xd6;" horiz-adv-x="1705" 
d="M985 1710q0 34 24.5 58t58.5 24t58.5 -24.5t24.5 -58.5t-24.5 -57.5t-58.5 -23.5t-58.5 24t-24.5 58zM557 1710q0 34 24.5 58t58.5 24t58.5 -24.5t24.5 -58.5t-24.5 -57.5t-58.5 -23.5t-58.5 24t-24.5 58zM205 715q0 -176 86.5 -324.5t235.5 -234.5t325 -86t325.5 86
t236.5 234.5t87 324.5t-87 325.5t-236.5 236.5t-325.5 87t-325 -87t-235.5 -236.5t-86.5 -325.5zM115 714q0 152 58 289t156.5 236t234.5 157t288 58t289 -58t235.5 -157t156.5 -236t58 -289t-58 -288t-156.5 -233.5t-235.5 -155t-289 -57.5t-288 57.5t-234.5 155
t-156.5 233.5t-58 288z" />
    <glyph glyph-name="multiply" unicode="&#xd7;" 
d="M296 445q0 11 7 18l248 248l-248 247q-6 8 -6 20t6 19l23 23q8 8 20 8t19 -8l247 -248l248 250q7 6 18.5 5.5t18.5 -7.5l25 -23q16 -20 0 -36l-248 -250l248 -248q8 -7 8 -19t-8 -18l-25 -23q-6 -8 -17.5 -8.5t-17.5 6.5l-250 250l-250 -248q-6 -7 -17 -7t-17 7l-25 23
q-7 8 -7 19z" />
    <glyph glyph-name="Oslash" unicode="&#xd8;" horiz-adv-x="1703" 
d="M1501 715q0 245 -164 430l-927 -903q180 -172 442 -172q176 0 325.5 86t236.5 234.5t87 324.5zM205 715q0 -247 160 -428l929 903q-187 174 -442 174q-176 0 -325 -87t-235.5 -236.5t-86.5 -325.5zM115 715q0 151 57.5 288t156 236t235 157t284.5 58q298 0 510 -201
l135 131q6 8 16.5 8t22.5 -12t12 -23t-8 -18l-133 -131q188 -216 188 -493q0 -152 -58 -288.5t-157 -234t-236 -155t-288 -57.5q-302 0 -508 196l-131 -127q-6 -7 -16.5 -7t-22.5 11t-12 22t8 19l129 127q-184 209 -184 494z" />
    <glyph glyph-name="Ugrave" unicode="&#xd9;" horiz-adv-x="1460" 
d="M567 1794l21 41q10 18 35 6l335 -184q20 -11 13 -29l-10 -20q-8 -17 -33 -6l-353 161q-19 9 -8 31zM195 514v893q0 11 8 19t18 8h43q10 0 18.5 -8t8.5 -19v-883q0 -201 118.5 -325.5t320.5 -124.5t321.5 124t119.5 324v885q0 27 29 27h41q11 0 19 -8t8 -19v-893
q0 -237 -148 -385.5t-390 -148.5t-388.5 148.5t-146.5 385.5z" />
    <glyph glyph-name="Uacute" unicode="&#xda;" horiz-adv-x="1460" 
d="M565 1628q-7 18 13 29l335 184q25 12 35 -6l21 -41q11 -22 -8 -31l-353 -161q-25 -11 -33 6zM195 514v893q0 11 8 19t18 8h43q10 0 18.5 -8t8.5 -19v-883q0 -201 118.5 -325.5t320.5 -124.5t321.5 124t119.5 324v885q0 27 29 27h41q11 0 19 -8t8 -19v-893
q0 -237 -148 -385.5t-390 -148.5t-388.5 148.5t-146.5 385.5z" />
    <glyph glyph-name="Ucircumflex" unicode="&#xdb;" horiz-adv-x="1460" 
d="M743 1839h7q10 0 20 -10l248 -201q19 -15 8 -29l-18 -22q-13 -17 -31 -4l-232 172l-229 -172q-18 -13 -31 4l-18 22q-11 14 8 29l248 201q10 10 20 10zM195 514v893q0 11 8 19t18 8h43q10 0 18.5 -8t8.5 -19v-883q0 -201 118.5 -325.5t320.5 -124.5t321.5 124t119.5 324
v885q0 27 29 27h41q11 0 19 -8t8 -19v-893q0 -237 -148 -385.5t-390 -148.5t-388.5 148.5t-146.5 385.5z" />
    <glyph glyph-name="Udieresis" unicode="&#xdc;" horiz-adv-x="1460" 
d="M881 1710q0 34 24.5 58t58.5 24t58.5 -24.5t24.5 -58.5t-24.5 -57.5t-58.5 -23.5t-58.5 24t-24.5 58zM453 1710q0 34 24.5 58t58.5 24t58 -24.5t24 -58.5t-24 -57.5t-58 -23.5t-58.5 24t-24.5 58zM195 514v893q0 11 8 19t18 8h43q10 0 18.5 -8t8.5 -19v-883
q0 -201 118.5 -325.5t320.5 -124.5t321.5 124t119.5 324v885q0 27 29 27h41q11 0 19 -8t8 -19v-893q0 -237 -148 -385.5t-390 -148.5t-388.5 148.5t-146.5 385.5z" />
    <glyph glyph-name="Yacute" unicode="&#xdd;" horiz-adv-x="1159" 
d="M377 1628q-7 18 12 29l336 184q25 12 35 -6l20 -41q11 -22 -8 -31l-352 -161q-25 -11 -33 6zM25 1434h61q17 0 27 -13l467 -637l475 637q10 13 26 13h62q15 0 20 -9.5t-4 -21.5l-532 -705v-671q0 -11 -8.5 -19t-14.5 -8t-15.5 -0.5t-14.5 0t-24.5 1.5t-19.5 26v669
l-522 707q-9 12 -3.5 21.5t20.5 9.5z" />
    <glyph glyph-name="Thorn" unicode="&#xde;" horiz-adv-x="1212" 
d="M303 350h367q152 0 261 109.5t109 262.5t-109.5 257t-262.5 104h-365v-733zM207 27v1380q0 11 8 19t18 8h43q10 0 18.5 -8t8.5 -19v-227h371q125 0 231.5 -61.5t169 -167t62.5 -230.5t-62.5 -232t-168.5 -169t-230 -62h-373v-231q0 -11 -9 -19t-24 -8h-37q-10 0 -18 8
t-8 19z" />
    <glyph glyph-name="germandbls" unicode="&#xdf;" horiz-adv-x="1193" 
d="M172 29v874q0 275 103 413t331 138q153 0 252.5 -93t99.5 -255q0 -67 -25.5 -131t-81.5 -136.5t-56 -97.5t31 -51t74.5 -61t87.5 -78.5t75 -108t31 -135.5q0 -165 -99.5 -247.5t-232.5 -82.5t-244 54q-24 12 -14 37l10 26q13 30 33 19q94 -47 204 -47t179 58t69 180
t-76.5 187.5t-152.5 122.5t-76 111t59 129.5t86 134t27 111.5q0 120 -75.5 193t-186.5 73q-184 0 -263 -109.5t-79 -353.5v-874q0 -29 -29 -29h-36q-11 0 -18 9t-7 20z" />
    <glyph glyph-name="agrave" unicode="&#xe0;" horiz-adv-x="980" 
d="M311 1337l21 41q10 18 35 6l335 -184q20 -11 13 -29l-10 -20q-8 -17 -33 -6l-353 162q-18 9 -8 30zM482 530q-134 0 -219 -66.5t-85 -168.5t66 -165.5t164 -63.5t188.5 46t130.5 97v272q-111 49 -245 49zM90 289q0 142 105.5 231.5t287.5 89.5q110 0 244 -43
q0 208 -54 262t-174 54t-193.5 -32t-74.5 -32q-28 -11 -36 15l-11 28q-12 20 6 31t49 24.5t112.5 31.5t147.5 18t101 -4.5t62.5 -15.5t49.5 -22.5t38 -32.5t27.5 -39t25.5 -78t14 -220v-524q0 -12 -10.5 -21.5t-22.5 -9.5h-16q-26 0 -29 27l-10 86q-53 -53 -142 -94.5
t-207 -41.5t-204 85t-86 227z" />
    <glyph glyph-name="aacute" unicode="&#xe1;" horiz-adv-x="980" 
d="M305 1178q-7 17 12 28l338 178q24 14 35 -6l21 -41q11 -22 -19 -37l-346 -157q-14 -5 -19 -3.5t-10 11.5zM482 530q-134 0 -219 -66.5t-85 -168.5t66 -165.5t164 -63.5t188.5 46t130.5 97v272q-111 49 -245 49zM90 289q0 142 105.5 231.5t287.5 89.5q110 0 244 -43
q0 208 -54 262t-174 54t-193.5 -32t-74.5 -32q-28 -11 -36 15l-11 28q-12 20 6 31t49 24.5t112.5 31.5t147.5 18t101 -4.5t62.5 -15.5t49.5 -22.5t38 -32.5t27.5 -39t25.5 -78t14 -220v-524q0 -12 -10.5 -21.5t-22.5 -9.5h-16q-26 0 -29 27l-10 86q-53 -53 -142 -94.5
t-207 -41.5t-204 85t-86 227z" />
    <glyph glyph-name="acircumflex" unicode="&#xe2;" horiz-adv-x="980" 
d="M481 1393h6q10 0 21 -11l248 -200q19 -15 8 -29l-19 -23q-13 -17 -30 -4l-232 172l-229 -172q-18 -13 -31 4l-18 23q-11 14 8 29l248 200q11 11 20 11zM482 530q-134 0 -219 -66.5t-85 -168.5t66 -165.5t164 -63.5t188.5 46t130.5 97v272q-111 49 -245 49zM90 289
q0 142 105.5 231.5t287.5 89.5q110 0 244 -43q0 208 -54 262t-174 54t-193.5 -32t-74.5 -32q-28 -11 -36 15l-11 28q-12 20 6 31t49 24.5t112.5 31.5t147.5 18t101 -4.5t62.5 -15.5t49.5 -22.5t38 -32.5t27.5 -39t25.5 -78t14 -220v-524q0 -12 -10.5 -21.5t-22.5 -9.5h-16
q-26 0 -29 27l-10 86q-53 -53 -142 -94.5t-207 -41.5t-204 85t-86 227z" />
    <glyph glyph-name="atilde" unicode="&#xe3;" horiz-adv-x="980" 
d="M366 1401q86 0 115.5 -46.5t55 -93.5t71.5 -47q78 0 117 121q3 10 12.5 15t18.5 0l22 -9q18 -9 14 -23t-8.5 -28t-20 -43t-35 -51t-53 -39.5t-73.5 -17.5t-69.5 19.5t-46.5 47t-43.5 74.5t-71.5 47q-78 0 -117 -127q-7 -24 -31 -14l-24 10q-20 7 -13 29q67 176 180 176z
M482 530q-134 0 -219 -66.5t-85 -168.5t66 -165.5t164 -63.5t188.5 46t130.5 97v272q-111 49 -245 49zM90 289q0 142 105.5 231.5t287.5 89.5q110 0 244 -43q0 208 -54 262t-174 54t-193.5 -32t-74.5 -32q-28 -11 -36 15l-11 28q-12 20 6 31t49 24.5t112.5 31.5t147.5 18
t101 -4.5t62.5 -15.5t49.5 -22.5t38 -32.5t27.5 -39t25.5 -78t14 -220v-524q0 -12 -10.5 -21.5t-22.5 -9.5h-16q-26 0 -29 27l-10 86q-53 -53 -142 -94.5t-207 -41.5t-204 85t-86 227z" />
    <glyph glyph-name="adieresis" unicode="&#xe4;" horiz-adv-x="980" 
d="M614 1289q0 34 23 58.5t57 24.5t59 -24.5t25 -58.5t-24.5 -57.5t-58.5 -23.5t-57.5 23.5t-23.5 57.5zM221 1290q0 34 24.5 58t58.5 24t57.5 -24.5t23.5 -58.5t-23.5 -57.5t-57.5 -23.5t-58.5 24t-24.5 58zM482 530q-134 0 -219 -66.5t-85 -168.5t66 -165.5t164 -63.5
t188.5 46t130.5 97v272q-111 49 -245 49zM90 289q0 142 105.5 231.5t287.5 89.5q110 0 244 -43q0 208 -54 262t-174 54t-193.5 -32t-74.5 -32q-28 -11 -36 15l-11 28q-12 20 6 31t49 24.5t112.5 31.5t147.5 18t101 -4.5t62.5 -15.5t49.5 -22.5t38 -32.5t27.5 -39t25.5 -78
t14 -220v-524q0 -12 -10.5 -21.5t-22.5 -9.5h-16q-26 0 -29 27l-10 86q-53 -53 -142 -94.5t-207 -41.5t-204 85t-86 227z" />
    <glyph glyph-name="aring" unicode="&#xe5;" horiz-adv-x="980" 
d="M332 1257q0 -61 45.5 -106t106.5 -45t106 45t45 106t-45 106.5t-106 45.5t-106.5 -45.5t-45.5 -106.5zM266 1257q0 92 63 156t155 64t155 -64t63 -156t-63 -154.5t-155 -62.5t-155 62.5t-63 154.5zM482 530q-134 0 -219 -66.5t-85 -168.5t66 -165.5t164 -63.5t188.5 46
t130.5 97v272q-111 49 -245 49zM90 289q0 142 105.5 231.5t287.5 89.5q110 0 244 -43q0 208 -54 262t-174 54t-193.5 -32t-74.5 -32q-28 -11 -36 15l-11 28q-12 20 6 31t49 24.5t112.5 31.5t147.5 18t101 -4.5t62.5 -15.5t49.5 -22.5t38 -32.5t27.5 -39t25.5 -78t14 -220
v-524q0 -12 -10.5 -21.5t-22.5 -9.5h-16q-26 0 -29 27l-10 86q-53 -53 -142 -94.5t-207 -41.5t-204 85t-86 227z" />
    <glyph glyph-name="ae" unicode="&#xe6;" horiz-adv-x="1640" 
d="M813 528h643q0 147 -91.5 251t-244.5 104q-99 0 -178 -47.5t-129 -126.5v-181zM473 530q-120 0 -207.5 -67t-87.5 -172t70 -165t168 -60t185.5 45.5t125.5 97.5v274q-134 47 -254 47zM813 242q111 -176 331 -176q116 0 267 92q30 18 43 2l23 -35q11 -17 -21 -47
t-133 -65.5t-203 -35.5q-214 0 -344 162q-53 -64 -154.5 -113t-227.5 -49t-215 86.5t-89 228.5t103.5 230t277.5 88q80 0 154.5 -15t101.5 -28q0 209 -52 262.5t-176 53.5q-123 0 -210.5 -38.5t-95.5 -8.5l-13 34q-2 22 17 30t46.5 19t113 29.5t184.5 18.5q193 0 250 -144
q129 144 323 144q193 0 312.5 -121t119.5 -309q0 -68 -10.5 -80.5t-22.5 -12.5h-700v-202z" />
    <glyph glyph-name="ccedilla" unicode="&#xe7;" horiz-adv-x="1058" 
d="M106 473q0 139 66.5 253t178 177.5t239.5 63.5t221 -47t133 -99q19 -22 -2 -43l-16 -16q-24 -24 -46 0t-54 46t-97 46.5t-133 24.5q-162 0 -280.5 -118.5t-118.5 -288.5t116 -288t285 -118q131 0 199 55.5t102 92.5q20 22 43 -1l19 -16q18 -18 6 -37
q-38 -57 -129.5 -114.5t-210.5 -65.5l-74 -121q12 4 39 4q74 0 130 -41t56 -124t-61 -132t-156 -49t-162 63q-12 12 -2 27l21 39q10 15 26 2q47 -51 112 -51q134 0 134 96q0 45 -33 68.5t-89 23.5t-101 -18q-10 -4 -21 5.5t-6 18.5l103 189q-186 19 -311.5 157t-125.5 336z
" />
    <glyph glyph-name="egrave" unicode="&#xe8;" horiz-adv-x="1083" 
d="M375 1337l20 41q10 18 35 6l336 -184q19 -11 12 -29l-10 -20q-8 -17 -33 -6l-352 162q-18 9 -8 30zM899 528q0 146 -90 248.5t-243 102.5t-254.5 -100.5t-110.5 -250.5h698zM109 474q0 136 55 247t160 178.5t241 67.5q186 0 305 -123t119 -307q0 -69 -11.5 -81t-23.5 -12
h-755q3 -159 108.5 -268.5t258.5 -109.5t290 94q29 17 41 0l23 -35q6 -6 3.5 -17t-14.5 -20q-50 -41 -146 -76t-215 -35t-224 67t-160 180.5t-55 249.5z" />
    <glyph glyph-name="eacute" unicode="&#xe9;" horiz-adv-x="1083" 
d="M373 1178q-7 17 12 28l338 178q24 14 35 -6l20 -41q11 -22 -18 -37l-346 -157q-14 -5 -19 -3.5t-10 11.5zM899 528q0 146 -90 248.5t-243 102.5t-254.5 -100.5t-110.5 -250.5h698zM109 474q0 136 55 247t160 178.5t241 67.5q186 0 305 -123t119 -307q0 -69 -11.5 -81
t-23.5 -12h-755q3 -159 108.5 -268.5t258.5 -109.5t290 94q29 17 41 0l23 -35q6 -6 3.5 -17t-14.5 -20q-50 -41 -146 -76t-215 -35t-224 67t-160 180.5t-55 249.5z" />
    <glyph glyph-name="ecircumflex" unicode="&#xea;" horiz-adv-x="1083" 
d="M573 1393h7q9 0 20 -11l248 -200q19 -15 8 -29l-18 -23q-13 -17 -31 -4l-232 172l-229 -172q-18 -13 -31 4l-18 23q-11 14 8 29l248 200q11 11 20 11zM899 528q0 146 -90 248.5t-243 102.5t-254.5 -100.5t-110.5 -250.5h698zM109 474q0 136 55 247t160 178.5t241 67.5
q186 0 305 -123t119 -307q0 -69 -11.5 -81t-23.5 -12h-755q3 -159 108.5 -268.5t258.5 -109.5t290 94q29 17 41 0l23 -35q6 -6 3.5 -17t-14.5 -20q-50 -41 -146 -76t-215 -35t-224 67t-160 180.5t-55 249.5z" />
    <glyph glyph-name="edieresis" unicode="&#xeb;" horiz-adv-x="1083" 
d="M690 1289q0 34 23 58.5t57 24.5t59 -24.5t25 -58.5t-24.5 -57.5t-58.5 -23.5t-57.5 23.5t-23.5 57.5zM297 1290q0 34 24.5 58t58.5 24t57.5 -24.5t23.5 -58.5t-23.5 -57.5t-57.5 -23.5t-58.5 24t-24.5 58zM899 528q0 146 -90 248.5t-243 102.5t-254.5 -100.5
t-110.5 -250.5h698zM109 474q0 136 55 247t160 178.5t241 67.5q186 0 305 -123t119 -307q0 -69 -11.5 -81t-23.5 -12h-755q3 -159 108.5 -268.5t258.5 -109.5t290 94q29 17 41 0l23 -35q6 -6 3.5 -17t-14.5 -20q-50 -41 -146 -76t-215 -35t-224 67t-160 180.5t-55 249.5z
" />
    <glyph glyph-name="igrave" unicode="&#xec;" horiz-adv-x="434" 
d="M199 0q-27 0 -27 31v884q0 12 9 21.5t22 9.5h28q11 0 21 -9.5t10 -21.5v-884q0 -31 -31 -31h-32zM25 1337l20 41q10 18 35 6l336 -184q19 -11 12 -29l-10 -20q-8 -17 -33 -6l-352 162q-18 9 -8 30z" />
    <glyph glyph-name="iacute" unicode="&#xed;" horiz-adv-x="434" 
d="M199 0q-27 0 -27 31v884q0 12 9 21.5t22 9.5h28q11 0 21 -9.5t10 -21.5v-884q0 -31 -31 -31h-32zM23 1178q-7 17 12 28l338 178q24 14 35 -6l20 -41q11 -22 -18 -37l-347 -157q-14 -5 -18.5 -3.5t-9.5 11.5z" />
    <glyph glyph-name="icircumflex" unicode="&#xee;" horiz-adv-x="434" 
d="M199 0q-27 0 -27 31v884q0 12 9 21.5t22 9.5h28q11 0 21 -9.5t10 -21.5v-884q0 -31 -31 -31h-32zM223 1393h6q10 0 21 -11l248 -200q19 -15 8 -29l-19 -23q-13 -17 -30 -4l-232 172l-229 -172q-18 -13 -31 4l-18 23q-11 14 8 29l248 200q11 11 20 11z" />
    <glyph glyph-name="idieresis" unicode="&#xef;" horiz-adv-x="434" 
d="M340 1289q0 34 23 58.5t57 24.5t59 -24.5t25 -58.5t-24.5 -57.5t-58.5 -23.5t-57.5 23.5t-23.5 57.5zM199 0q-27 0 -27 31v884q0 12 9 21.5t22 9.5h28q11 0 21 -9.5t10 -21.5v-884q0 -31 -31 -31h-32zM-53 1290q0 34 24.5 58t58.5 24t57.5 -24.5t23.5 -58.5t-23.5 -57.5
t-57.5 -23.5t-58.5 24t-24.5 58z" />
    <glyph glyph-name="eth" unicode="&#xf0;" horiz-adv-x="1204" 
d="M203 462q0 -164 110 -279t267 -115q98 0 176 41t151.5 147t73.5 309q0 24 -4 64q-98 134 -215 172.5t-189 38.5q-154 0 -262 -107t-108 -271zM109 468q0 134 64.5 241t168.5 162t202 55q173 0 276.5 -62.5t137.5 -107.5q-42 260 -299 467l-241 -142q-22 -12 -40 17t5 41
l219 127q-138 95 -252 139q-27 9 -12 33l14 37q7 17 29 10q156 -57 307 -170l146 84q21 12 39 -15t-7 -43l-123 -71q330 -281 330 -690q0 -362 -167.5 -481t-309.5 -119t-250.5 65t-172.5 177t-64 246z" />
    <glyph glyph-name="ntilde" unicode="&#xf1;" horiz-adv-x="1105" 
d="M442 1401q86 0 115.5 -46.5t55 -93.5t71.5 -47q78 0 117 121q3 10 12 14.5t18 0.5l23 -9q16 -9 12 -23l-8 -28t-19.5 -43t-34.5 -51t-52.5 -39.5t-73.5 -17.5t-69.5 19.5t-47 47t-44 74.5t-76.5 47t-74.5 -44t-36.5 -83q-7 -24 -31 -14l-25 10q-19 6 -12 29
q67 176 180 176zM199 0q-27 0 -27 31v884q0 13 9 22t24 9h10q26 0 29 -24l10 -101q138 146 332 146q193 0 275.5 -107.5t82.5 -306.5v-522q0 -12 -9.5 -21.5t-21.5 -9.5h-28q-12 0 -21.5 9.5t-9.5 21.5v518q0 330 -270 330q-140 0 -222 -68.5t-100 -93.5v-686q0 -31 -31 -31
h-32z" />
    <glyph glyph-name="ograve" unicode="&#xf2;" horiz-adv-x="1163" 
d="M383 1337l20 41q10 18 35 6l336 -184q19 -11 12 -29l-10 -20q-8 -17 -33 -6l-352 162q-18 9 -8 30zM197 474q0 -168 111.5 -288t271.5 -120t270.5 119.5t110.5 287.5t-110.5 287t-269.5 119t-271.5 -118.5t-112.5 -286.5zM106 475q0 133 62 245.5t172 179.5t240 67
t240.5 -66.5t173.5 -180t63 -247.5t-63 -248.5t-172.5 -181t-239.5 -66.5q-201 0 -338.5 145t-137.5 353z" />
    <glyph glyph-name="oacute" unicode="&#xf3;" horiz-adv-x="1163" 
d="M381 1178q-7 17 12 28l338 178q24 14 35 -6l20 -41q11 -22 -18 -37l-346 -157q-14 -5 -19 -3.5t-10 11.5zM197 474q0 -168 111.5 -288t271.5 -120t270.5 119.5t110.5 287.5t-110.5 287t-269.5 119t-271.5 -118.5t-112.5 -286.5zM106 475q0 133 62 245.5t172 179.5t240 67
t240.5 -66.5t173.5 -180t63 -247.5t-63 -248.5t-172.5 -181t-239.5 -66.5q-201 0 -338.5 145t-137.5 353z" />
    <glyph glyph-name="ocircumflex" unicode="&#xf4;" horiz-adv-x="1163" 
d="M582 1393h6q9 0 20 -11l248 -200q19 -15 8 -29l-18 -23q-13 -17 -31 -4l-231 172l-230 -172q-17 -13 -30 4l-19 23q-11 14 8 29l248 200q11 11 21 11zM197 474q0 -168 111.5 -288t271.5 -120t270.5 119.5t110.5 287.5t-110.5 287t-269.5 119t-271.5 -118.5t-112.5 -286.5
zM106 475q0 133 62 245.5t172 179.5t240 67t240.5 -66.5t173.5 -180t63 -247.5t-63 -248.5t-172.5 -181t-239.5 -66.5q-201 0 -338.5 145t-137.5 353z" />
    <glyph glyph-name="otilde" unicode="&#xf5;" horiz-adv-x="1163" 
d="M459 1401q89 0 119 -46.5t55.5 -93.5t71.5 -47q77 0 116 121q3 10 12.5 15t18.5 0l22 -9q18 -9 14 -23t-8.5 -28t-20 -43t-35 -51t-53 -39.5t-73.5 -17.5t-69.5 19.5t-46.5 47t-43.5 74.5t-71.5 47q-78 0 -117 -127q-7 -24 -31 -14l-24 10q-19 6 -12 29q65 176 176 176z
M197 474q0 -168 111.5 -288t271.5 -120t270.5 119.5t110.5 287.5t-110.5 287t-269.5 119t-271.5 -118.5t-112.5 -286.5zM106 475q0 133 62 245.5t172 179.5t240 67t240.5 -66.5t173.5 -180t63 -247.5t-63 -248.5t-172.5 -181t-239.5 -66.5q-201 0 -338.5 145t-137.5 353z
" />
    <glyph glyph-name="odieresis" unicode="&#xf6;" horiz-adv-x="1163" 
d="M698 1289q0 34 23 58.5t57 24.5t59 -24.5t25 -58.5t-24.5 -57.5t-58.5 -23.5t-57.5 23.5t-23.5 57.5zM305 1290q0 34 24.5 58t58.5 24t57.5 -24.5t23.5 -58.5t-23.5 -57.5t-57.5 -23.5t-58.5 24t-24.5 58zM197 474q0 -168 111.5 -288t271.5 -120t270.5 119.5t110.5 287.5
t-110.5 287t-269.5 119t-271.5 -118.5t-112.5 -286.5zM106 475q0 133 62 245.5t172 179.5t240 67t240.5 -66.5t173.5 -180t63 -247.5t-63 -248.5t-172.5 -181t-239.5 -66.5q-201 0 -338.5 145t-137.5 353z" />
    <glyph glyph-name="divide" unicode="&#xf7;" 
d="M522 1032q0 34 25 58t59 24t58 -24t24 -58t-24 -59t-58 -25t-59 25t-25 59zM522 389q0 34 25 58t59 24t58 -24t24 -58t-24 -59t-58 -25t-59 25t-25 59zM193 696v31q0 11 8 19t18 8h789q10 0 17 -8t7 -19v-31q0 -11 -7 -18.5t-17 -7.5h-789q-11 0 -18.5 8t-7.5 18z" />
    <glyph glyph-name="oslash" unicode="&#xf8;" horiz-adv-x="1163" 
d="M588 66q152 0 262.5 119.5t110.5 289.5q0 120 -64 223l-569 -534q108 -98 260 -98zM197 486q0 -156 86 -269l571 537q-116 125 -274 125t-270.5 -118.5t-112.5 -274.5zM582 967q199 0 340 -150l24 25q8 9 20.5 9t31.5 -20t-3 -38l-30 -29q92 -132 92 -278t-63 -261
t-172.5 -181.5t-239.5 -66.5q-185 0 -320 125l-33 -32q-17 -17 -36 2l-13 12q-20 20 0 37l35 33q-109 134 -109 321q0 133 62 245.5t172 179.5t242 67z" />
    <glyph glyph-name="ugrave" unicode="&#xf9;" horiz-adv-x="1081" 
d="M338 1337l20 41q10 18 35 6l336 -184q19 -11 12 -29l-10 -20q-8 -17 -33 -6l-352 162q-18 9 -8 30zM162 385v530q0 12 9.5 21.5t21.5 9.5h30q12 0 20.5 -9.5t8.5 -21.5v-530q0 -167 62 -243t206 -76q175 0 299 176v673q0 31 31 31h31q11 0 19.5 -9.5t8.5 -21.5v-884
q0 -12 -8.5 -21.5t-19.5 -9.5h-19q-23 0 -28 29l-9 92q-112 -144 -308 -144t-275.5 100t-79.5 308z" />
    <glyph glyph-name="uacute" unicode="&#xfa;" horiz-adv-x="1081" 
d="M336 1178q-7 17 12 28l338 178q24 14 35 -6l20 -41q11 -22 -18 -37l-346 -157q-14 -5 -19 -3.5t-10 11.5zM162 385v530q0 12 9.5 21.5t21.5 9.5h30q12 0 20.5 -9.5t8.5 -21.5v-530q0 -167 62 -243t206 -76q175 0 299 176v673q0 31 31 31h31q11 0 19.5 -9.5t8.5 -21.5
v-884q0 -12 -8.5 -21.5t-19.5 -9.5h-19q-23 0 -28 29l-9 92q-112 -144 -308 -144t-275.5 100t-79.5 308z" />
    <glyph glyph-name="ucircumflex" unicode="&#xfb;" horiz-adv-x="1081" 
d="M537 1393h6q9 0 20 -11l248 -200q19 -15 8 -29l-18 -23q-13 -17 -31 -4l-231 172l-230 -172q-17 -13 -30 4l-19 23q-11 14 8 29l248 200q11 11 21 11zM162 385v530q0 12 9.5 21.5t21.5 9.5h30q12 0 20.5 -9.5t8.5 -21.5v-530q0 -167 62 -243t206 -76q175 0 299 176v673
q0 31 31 31h31q11 0 19.5 -9.5t8.5 -21.5v-884q0 -12 -8.5 -21.5t-19.5 -9.5h-19q-23 0 -28 29l-9 92q-112 -144 -308 -144t-275.5 100t-79.5 308z" />
    <glyph glyph-name="udieresis" unicode="&#xfc;" horiz-adv-x="1081" 
d="M655 1289q0 34 23.5 58.5t57.5 24.5t58.5 -24.5t24.5 -58.5t-24.5 -57.5t-58.5 -23.5t-57.5 23.5t-23.5 57.5zM262 1290q0 34 24 58t58 24t58 -24.5t24 -58.5t-24 -57.5t-58 -23.5t-58 24t-24 58zM162 385v530q0 12 9.5 21.5t21.5 9.5h30q12 0 20.5 -9.5t8.5 -21.5v-530
q0 -167 62 -243t206 -76q175 0 299 176v673q0 31 31 31h31q11 0 19.5 -9.5t8.5 -21.5v-884q0 -12 -8.5 -21.5t-19.5 -9.5h-19q-23 0 -28 29l-9 92q-112 -144 -308 -144t-275.5 100t-79.5 308z" />
    <glyph glyph-name="yacute" unicode="&#xfd;" horiz-adv-x="980" 
d="M276 1178q-7 17 13 28l338 178q24 14 35 -6l20 -41q11 -22 -18 -37l-347 -157q-14 -5 -18.5 -3.5t-9.5 11.5zM72 946h43q24 0 32 -22l334 -818h6l349 818q8 22 30 22h45q16 0 19.5 -12t-4.5 -27l-592 -1376q-9 -18 -31 -18h-47q-32 0 -18 32l196 457l-377 905
q-7 15 -3 27t18 12z" />
    <glyph glyph-name="thorn" unicode="&#xfe;" horiz-adv-x="1126" 
d="M928 449q0 202 -107.5 316t-255.5 114q-175 0 -303 -107v-547q23 -38 106.5 -98.5t219.5 -60.5t238 111.5t102 271.5zM172 1405q0 29 31 29h30q11 0 20 -9t9 -20v-531q56 44 142 68.5t168 24.5t166 -36t147.5 -101t99 -164t33.5 -203t-33.5 -188.5t-86 -151
t-137.5 -106.5t-185 -40t-193.5 48t-120.5 84v-568q0 -10 -9 -19t-20 -9h-32q-12 0 -20.5 8.5t-8.5 19.5v1864z" />
    <glyph glyph-name="ydieresis" unicode="&#xff;" horiz-adv-x="980" 
d="M594 1289q0 34 23 58.5t57 24.5t59 -24.5t25 -58.5t-24.5 -57.5t-58.5 -23.5t-57.5 23.5t-23.5 57.5zM201 1290q0 34 24.5 58t58.5 24t57.5 -24.5t23.5 -58.5t-23.5 -57.5t-57.5 -23.5t-58.5 24t-24.5 58zM72 946h43q24 0 32 -22l334 -818h6l349 818q8 22 30 22h45
q16 0 19.5 -12t-4.5 -27l-592 -1376q-9 -18 -31 -18h-47q-32 0 -18 32l196 457l-377 905q-7 15 -3 27t18 12z" />
    <glyph glyph-name="OE" unicode="&#x152;" horiz-adv-x="1972" 
d="M203 715q0 -176 86.5 -324.5t235.5 -234.5t325 -86q77 0 143 14v1262q-75 16 -143 16q-176 0 -325 -86.5t-235.5 -235.5t-86.5 -325zM115 690q0 126 26 222t98 220t240.5 223t370.5 99q77 0 174 -20h817q10 0 17.5 -8t7.5 -19v-35q0 -11 -7.5 -18.5t-17.5 -7.5h-749v-566
h649q11 0 18.5 -8t7.5 -18v-35q0 -11 -8 -19t-18 -8h-649v-606h749q10 0 17.5 -8t7.5 -19v-32q0 -11 -7.5 -19t-17.5 -8h-815q-97 -20 -176 -20q-152 0 -288.5 57.5t-234 155t-155 234.5t-57.5 263z" />
    <glyph glyph-name="oe" unicode="&#x153;" horiz-adv-x="1847" 
d="M1010 528h653q0 145 -90.5 248t-243.5 103q-101 0 -191.5 -54t-127.5 -141v-156zM197 473q0 -171 114 -289t273 -118q116 0 207.5 66t119.5 136l-2 414q-78 132 -171.5 164.5t-153.5 32.5q-158 0 -272.5 -117.5t-114.5 -288.5zM958 170q-140 -193 -386 -193
q-124 0 -233 66.5t-171 181.5t-62 249t62 246.5t171.5 179.5t231.5 67t221 -51.5t166 -141.5q128 193 371 193q186 0 305 -120t119 -312q0 -91 -37 -91h-706v-176q38 -86 124 -144t184 -58q173 0 302 94q28 20 41 0l22 -35q11 -19 -8 -35q-53 -42 -149.5 -77.5t-209.5 -35.5
q-215 0 -358 193z" />
    <glyph glyph-name="Ydieresis" unicode="&#x178;" horiz-adv-x="1159" 
d="M713 1710q0 34 24.5 58t58.5 24t58.5 -24.5t24.5 -58.5t-24.5 -57.5t-58.5 -23.5t-58.5 24t-24.5 58zM285 1710q0 34 24.5 58t58.5 24t58.5 -24.5t24.5 -58.5t-24.5 -57.5t-58.5 -23.5t-58.5 24t-24.5 58zM25 1434h61q17 0 27 -13l467 -637l475 637q10 13 26 13h62
q15 0 20 -9.5t-4 -21.5l-532 -705v-671q0 -11 -8.5 -19t-14.5 -8t-15.5 -0.5t-14.5 0t-24.5 1.5t-19.5 26v669l-522 707q-9 12 -3.5 21.5t20.5 9.5z" />
    <glyph glyph-name="circumflex" unicode="&#x2c6;" horiz-adv-x="763" 
d="M375 1393h6q9 0 20 -11l248 -200q19 -15 8 -29l-18 -23q-13 -17 -31 -4l-231 172l-230 -172q-17 -13 -30 4l-19 23q-11 14 8 29l248 200q11 11 21 11z" />
    <glyph glyph-name="tilde" unicode="&#x2dc;" horiz-adv-x="778" 
d="M246 1401q89 0 119 -46.5t55.5 -93.5t71.5 -47q77 0 116 121q3 10 12.5 15t18.5 0l23 -9q16 -9 12 -23l-8 -28t-19.5 -43t-35 -51t-53 -39.5t-73.5 -17.5t-69.5 19.5t-46.5 47t-43.5 74.5t-71.5 47q-78 0 -117 -127q-7 -24 -31 -14l-24 10q-20 6 -12 29q65 176 176 176z
" />
    <glyph glyph-name="uni2000" unicode="&#x2000;" horiz-adv-x="990" 
 />
    <glyph glyph-name="uni2001" unicode="&#x2001;" horiz-adv-x="1980" 
 />
    <glyph glyph-name="uni2002" unicode="&#x2002;" horiz-adv-x="990" 
 />
    <glyph glyph-name="uni2003" unicode="&#x2003;" horiz-adv-x="1980" 
 />
    <glyph glyph-name="uni2004" unicode="&#x2004;" horiz-adv-x="660" 
 />
    <glyph glyph-name="uni2005" unicode="&#x2005;" horiz-adv-x="495" 
 />
    <glyph glyph-name="uni2006" unicode="&#x2006;" horiz-adv-x="330" 
 />
    <glyph glyph-name="uni2007" unicode="&#x2007;" horiz-adv-x="330" 
 />
    <glyph glyph-name="uni2008" unicode="&#x2008;" horiz-adv-x="247" 
 />
    <glyph glyph-name="uni2009" unicode="&#x2009;" horiz-adv-x="396" 
 />
    <glyph glyph-name="uni200A" unicode="&#x200a;" horiz-adv-x="110" 
 />
    <glyph glyph-name="uni2010" unicode="&#x2010;" horiz-adv-x="808" 
d="M147 522q0 27 25 27h463q11 1 19 -7t8 -20v-22q0 -10 -8 -18t-19 -9h-463q-10 0 -18 8t-7 19v22z" />
    <glyph glyph-name="uni2011" unicode="&#x2011;" horiz-adv-x="808" 
d="M147 522q0 27 25 27h463q11 1 19 -7t8 -20v-22q0 -10 -8 -18t-19 -9h-463q-10 0 -18 8t-7 19v22z" />
    <glyph glyph-name="figuredash" unicode="&#x2012;" horiz-adv-x="808" 
d="M147 522q0 27 25 27h463q11 1 19 -7t8 -20v-22q0 -10 -8 -18t-19 -9h-463q-10 0 -18 8t-7 19v22z" />
    <glyph glyph-name="endash" unicode="&#x2013;" horiz-adv-x="1126" 
d="M983 502q0 -25 -27 -25h-786q-11 0 -19 7.5t-8 17.5v16q0 10 8.5 18.5t18.5 8.5h786q12 0 19.5 -8t7.5 -19v-16z" />
    <glyph glyph-name="emdash" unicode="&#x2014;" horiz-adv-x="1572" 
d="M1430 502q0 -25 -27 -25h-1233q-11 0 -19 7.5t-8 17.5v16q0 10 8.5 18.5t18.5 8.5h1233q12 0 19.5 -8t7.5 -19v-16z" />
    <glyph glyph-name="quoteleft" unicode="&#x2018;" horiz-adv-x="444" 
d="M117 1153q0 168 127 291q16 16 26 0l23 -21q10 -15 -2 -30q-103 -96 -103 -213q0 -61 19 -93q19 23 51 23t53 -22.5t21 -56.5t-24 -57.5t-72 -23.5t-83.5 60.5t-35.5 142.5z" />
    <glyph glyph-name="quoteright" unicode="&#x2019;" horiz-adv-x="440" 
d="M113 1373q0 34 24.5 57.5t72.5 23.5t83 -60.5t35 -142.5q0 -167 -127 -290q-17 -17 -27 0l-22 20q-11 15 2 31q102 95 102 213q0 62 -18 92q-20 -23 -52 -23t-52.5 22.5t-20.5 56.5z" />
    <glyph glyph-name="quotesinglbase" unicode="&#x201a;" horiz-adv-x="460" 
d="M135 56q0 34 24.5 57.5t72.5 23.5t83 -60.5t35 -142.5q0 -167 -127 -290q-16 -16 -26 0l-23 20q-11 15 2 31q103 96 103 213q0 60 -19 92q-20 -23 -52 -23t-52.5 22.5t-20.5 56.5z" />
    <glyph glyph-name="quotedblleft" unicode="&#x201c;" horiz-adv-x="811" 
d="M483 1153q0 168 127 291q17 17 27 0l22 -21q10 -15 -2 -30q-102 -95 -102 -213q0 -63 18 -93q20 23 52 23t52.5 -22.5t20.5 -56.5t-24 -57.5t-72 -23.5t-83.5 60.5t-35.5 142.5zM117 1153q0 168 127 291q16 16 26 0l23 -21q10 -15 -2 -30q-103 -96 -103 -213
q0 -61 19 -93q19 23 51 23t53 -22.5t21 -56.5t-24 -57.5t-72 -23.5t-83.5 60.5t-35.5 142.5z" />
    <glyph glyph-name="quotedblright" unicode="&#x201d;" horiz-adv-x="806" 
d="M479 1373q0 34 24.5 57.5t72.5 23.5t83 -60.5t35 -142.5q0 -167 -127 -290q-16 -16 -26 0l-23 20q-11 15 2 31q103 96 103 213q0 60 -19 92q-20 -23 -52 -23t-52.5 22.5t-20.5 56.5zM113 1373q0 34 24.5 57.5t72.5 23.5t83 -60.5t35 -142.5q0 -167 -127 -290
q-17 -17 -27 0l-22 20q-11 15 2 31q102 95 102 213q0 62 -18 92q-20 -23 -52 -23t-52.5 22.5t-20.5 56.5z" />
    <glyph glyph-name="quotedblbase" unicode="&#x201e;" horiz-adv-x="829" 
d="M502 56q0 34 24 57.5t72 23.5t83.5 -60.5t35.5 -142.5q0 -167 -127 -290q-17 -17 -27 0l-22 20q-11 15 2 31q102 95 102 213q0 62 -18 92q-20 -23 -52 -23t-52.5 22.5t-20.5 56.5zM135 56q0 34 24.5 57.5t72.5 23.5t83 -60.5t35 -142.5q0 -167 -127 -290q-16 -16 -26 0
l-23 20q-11 15 2 31q103 96 103 213q0 60 -19 92q-20 -23 -52 -23t-52.5 22.5t-20.5 56.5z" />
    <glyph glyph-name="bullet" unicode="&#x2022;" horiz-adv-x="645" 
d="M174 524q0 62 42 106t104 44t106.5 -44t44.5 -106t-44.5 -104.5t-106.5 -42.5t-104 42.5t-42 104.5z" />
    <glyph glyph-name="ellipsis" unicode="&#x2026;" horiz-adv-x="1222" 
d="M926 63q0 34 24 58t58 24t58 -24t24 -58t-24 -58.5t-58 -24.5t-58 24.5t-24 58.5zM526 63q0 34 24 58t58 24t58 -24t24 -58t-24 -58.5t-58 -24.5t-58 24.5t-24 58.5zM133 63q0 34 25.5 58t59.5 24t57.5 -24t23.5 -58t-23.5 -58.5t-57.5 -24.5t-59.5 24.5t-25.5 58.5z" />
    <glyph glyph-name="uni202F" unicode="&#x202f;" horiz-adv-x="396" 
 />
    <glyph glyph-name="guilsinglleft" unicode="&#x2039;" horiz-adv-x="540" 
d="M367 838h32q12 0 16 -11t-5 -26l-193 -314l193 -321q9 -15 5 -26t-16 -11h-32q-20 0 -33 18l-221 322q-12 15 0 35l221 315q13 19 33 19z" />
    <glyph glyph-name="guilsinglright" unicode="&#x203a;" horiz-adv-x="540" 
d="M141 838h33q20 0 33 -19l221 -315q12 -20 0 -35l-221 -322q-13 -18 -33 -18h-33q-12 0 -15.5 11t5.5 26l193 321l-193 314q-9 15 -5.5 26t15.5 11z" />
    <glyph glyph-name="uni205F" unicode="&#x205f;" horiz-adv-x="495" 
 />
    <glyph glyph-name="Euro" unicode="&#x20ac;" 
d="M74 530q-25 0 -25 27v10q0 11 7.5 19t17.5 8h92q-6 58 -6 121v57h-86q-10 0 -17.5 9t-7.5 20v10q0 11 7.5 19t17.5 8h92q31 256 138.5 386.5t215 180t235.5 49.5t214.5 -32.5t179.5 -112.5q9 -7 9.5 -19.5t-5.5 -19.5l-29 -33q-19 -19 -41 0q-131 125 -330 125
t-328.5 -142t-156.5 -382h668q27 0 27 -31v-8q0 -11 -7.5 -19t-19.5 -8h-674v-57q0 -63 6 -121h588q11 0 18 -9.5t7 -21.5v-8q0 -11 -7.5 -18t-17.5 -7h-580q34 -210 154 -334t328 -124q99 0 175 34.5t154 96.5q20 17 33 4l31 -37q19 -19 0 -35q-175 -155 -404 -155
t-380.5 147t-192.5 403h-100z" />
    <glyph glyph-name="trademark" unicode="&#x2122;" horiz-adv-x="1548" 
d="M809 1454h10q13 0 21 -20l176 -502h2l178 502q8 20 21 20h10q17 0 22 -20l140 -596q7 -31 -21 -31h-22q-19 0 -25 20l-109 445h-2l-163 -459q-5 -16 -19 -16h-20q-14 0 -19 16l-166 459h-2l-106 -445q-6 -20 -25 -20h-22q-28 0 -21 31l139 596q6 20 23 20zM614 1393
q0 -27 -26 -27h-176v-532q0 -10 -8 -18.5t-19 -8.5h-20q-9 0 -17 7.5t-8 19.5v532h-178q-12 0 -19.5 9.5t-7.5 21.5v10q0 11 8.5 19t18.5 8h426q10 0 18 -8t8 -19v-14z" />
    <glyph glyph-name="uni25FC" unicode="&#x25fc;" horiz-adv-x="942" 
d="M0 0v942h942v-942h-942z" />
    <glyph glyph-name="uniFB03" unicode="&#xfb03;" horiz-adv-x="1804" 
d="M322 946h567v123q0 99 24 172q-31 35 -117.5 70t-174.5 35q-155 0 -227 -84.5t-72 -253.5v-62zM322 31q0 -31 -33 -31h-29q-11 0 -20 9.5t-9 21.5v827h-151q-14 0 -22.5 9.5t-8.5 21.5v26q0 12 9.5 21.5t21.5 9.5h151v64q0 204 102 314t288 110q103 0 196.5 -35.5
t136.5 -73.5q92 129 285 129q102 0 192.5 -37.5t131.5 -73.5q17 -17 2 -36l-23 -31q-13 -16 -37 -2q-135 92 -263 92t-195.5 -74.5t-67.5 -218.5v-127h629q12 0 20 -9.5t8 -21.5v-884q0 -31 -30 -31h-29q-13 0 -22 9.5t-9 21.5v827h-567v-827q0 -14 -10 -22.5t-23 -8.5h-26
q-11 0 -21 9.5t-10 21.5v827h-567v-827z" />
    <glyph glyph-name="uniFB04" unicode="&#xfb04;" horiz-adv-x="1855" 
d="M322 946h567v103q0 101 35 192q-30 34 -122 69.5t-181 35.5q-155 0 -227 -84.5t-72 -253.5v-62zM322 31q0 -31 -33 -31h-29q-11 0 -20 9.5t-9 21.5v827h-151q-14 0 -22.5 9.5t-8.5 21.5v26q0 12 9.5 21.5t21.5 9.5h151v64q0 204 102 314t288 110q105 0 198 -33.5
t148 -75.5q104 129 273 129t251.5 -54.5t97.5 -68.5l10 74q3 29 31 29h12q12 0 20.5 -8.5t8.5 -20.5v-1374q0 -14 -10 -22.5t-23 -8.5h-24q-13 0 -23 9.5t-10 21.5v1188q-138 147 -326 147q-126 0 -201 -81.5t-75 -242.5v-96h334q33 0 33 -28v-33q0 -27 -33 -27h-334v-827
q0 -14 -10 -22.5t-23 -8.5h-26q-11 0 -21 9.5t-10 21.5v827h-567v-827z" />
    </font>
</defs>
</svg>
