<?xml version="1.0" encoding="utf-8"?>
<!-- Generator: Adobe Illustrator 16.0.0, SVG Export Plug-In . SVG Version: 6.00 Build 0)  -->
<!DOCTYPE svg PUBLIC "-//W3C//DTD SVG 1.1//EN" "http://www.w3.org/Graphics/SVG/1.1/DTD/svg11.dtd">
<svg version="1.1" id="Capa_1" xmlns="http://www.w3.org/2000/svg" xmlns:xlink="http://www.w3.org/1999/xlink" x="0px" y="0px"
	 width="400px" height="400px" viewBox="0 0 400 400" enable-background="new 0 0 400 400" xml:space="preserve">
<g>
	<path fill="#F6F6F6" d="M16.473,81.199c0-2.934,25.231-5.672,29.143-6.063c1.564-3.716,3.521-7.041,5.868-10.17
		c-1.76-3.912-9.975-23.471-9.975-26.991c0-0.586,0.196-0.978,0.782-1.369c2.347-1.369,23.275-13.887,24.253-13.887
		c2.542,0,17.212,19.559,19.167,22.493c1.956-0.195,3.912-0.391,5.868-0.391c1.956,0,3.912,0.196,5.868,0.391
		c1.956-2.934,16.625-22.493,19.167-22.493c0.978,0,21.906,12.518,24.253,13.887c0.586,0.391,0.782,0.978,0.782,1.369
		c0,3.325-8.215,23.08-9.975,26.991c2.347,3.129,4.303,6.455,5.868,10.17c3.912,0.391,29.143,3.129,29.143,6.063v27.382
		c0,2.934-25.231,5.672-29.143,6.063c-1.564,3.521-3.521,7.041-5.868,10.17c1.76,3.912,9.975,23.666,9.975,26.991
		c0,0.391-0.196,0.978-0.782,1.369c-2.347,1.173-23.275,13.691-24.253,13.691c-2.542,0-17.212-19.363-19.167-22.297
		c-1.956,0.195-3.912,0.391-5.868,0.391c-1.956,0-3.912-0.196-5.868-0.391c-5.477,7.628-11.344,15.256-17.994,21.906l-1.173,0.391
		c-0.978,0-21.906-12.322-24.253-13.691c-0.586-0.391-0.782-0.978-0.782-1.369c0-3.521,8.215-23.08,9.975-26.991
		c-2.347-3.129-4.303-6.65-5.868-10.17c-3.912-0.391-29.143-3.129-29.143-6.063V81.199z M16.473,281.48
		c0-2.934,25.231-5.672,29.143-6.063c1.564-3.716,3.521-7.041,5.868-10.171c-1.76-3.911-9.975-23.47-9.975-26.99
		c0-0.587,0.196-0.979,0.782-1.369C44.637,235.518,65.565,223,66.543,223c2.542,0,17.212,19.559,19.167,22.492
		c1.956-0.195,3.912-0.392,5.868-0.392c1.956,0,3.912,0.196,5.868,0.392C99.401,242.559,114.071,223,116.613,223
		c0.978,0,21.906,12.518,24.253,13.887c0.586,0.391,0.782,0.978,0.782,1.369c0,3.324-8.215,23.079-9.975,26.99
		c2.347,3.13,4.303,6.455,5.868,10.171c3.912,0.392,29.143,3.13,29.143,6.063v27.382c0,2.934-25.231,5.672-29.143,6.063
		c-1.564,3.521-3.521,7.041-5.868,10.171c1.76,3.911,9.975,23.666,9.975,26.99c0,0.392-0.196,0.979-0.782,1.369
		c-2.347,1.174-23.275,13.691-24.253,13.691c-2.542,0-17.212-19.363-19.167-22.297c-1.956,0.195-3.912,0.391-5.868,0.391
		c-1.956,0-3.912-0.195-5.868-0.391c-5.477,7.628-11.344,15.256-17.994,21.905l-1.173,0.392c-0.978,0-21.906-12.322-24.253-13.691
		c-0.586-0.391-0.782-0.978-0.782-1.369c0-3.521,8.215-23.079,9.975-26.99c-2.347-3.13-4.303-6.65-5.868-10.171
		c-3.912-0.392-29.143-3.13-29.143-6.063V281.48z M91.578,119.925c13.691,0,25.035-11.344,25.035-25.035
		c0-13.887-11.344-25.035-25.035-25.035c-13.887,0-25.035,11.344-25.035,25.035S77.887,119.925,91.578,119.925z M91.578,320.206
		c13.691,0,25.035-11.344,25.035-25.035c0-13.886-11.344-25.035-25.035-25.035c-13.887,0-25.035,11.345-25.035,25.035
		C66.543,308.862,77.887,320.206,91.578,320.206z M141.648,176.646c0-2.542,1.956-5.477,4.499-5.868l30.316-4.694
		c1.565-5.085,3.716-9.975,6.259-14.865c-5.477-7.824-11.344-15.06-17.603-22.493c-0.783-1.173-1.369-2.347-1.369-3.912
		c0-1.369,0.391-2.738,1.369-3.716c3.912-5.281,25.817-29.142,31.489-29.142c1.565,0,2.934,0.586,4.107,1.369l22.492,17.603
		c4.89-2.542,9.779-4.499,15.061-6.063c0.978-9.975,1.956-20.732,4.498-30.316c0.783-2.738,3.13-4.694,5.868-4.694h36.379
		c2.738,0,5.477,2.151,5.868,4.89l4.498,29.925c5.085,1.565,9.975,3.716,14.669,6.063l23.079-17.408
		c0.979-0.978,2.543-1.369,3.912-1.369c1.564,0,2.934,0.586,4.107,1.564c5.085,4.694,28.164,25.622,28.164,31.294
		c0,1.369-0.586,2.542-1.369,3.716c-5.672,7.432-11.539,14.669-17.211,22.297c2.738,5.281,5.085,10.562,6.846,16.038l29.729,4.694
		c2.738,0.391,4.694,2.934,4.694,5.672v36.184c0,2.543-1.956,5.477-4.498,5.867l-30.316,4.694
		c-1.564,5.085-3.716,9.975-6.259,14.865c5.477,7.823,11.344,15.06,17.603,22.492c0.782,1.174,1.369,2.543,1.369,3.911
		c0,1.369-0.391,2.738-1.369,3.912c-3.911,5.281-25.817,28.947-31.489,28.947c-1.564,0-2.934-0.587-4.107-1.369l-22.492-17.604
		c-4.89,2.543-9.779,4.499-15.061,6.259c-0.978,9.779-1.956,20.537-4.498,30.121c-0.783,2.738-3.13,4.693-5.868,4.693h-36.379
		c-2.738,0-5.477-2.151-5.868-4.89l-4.498-29.925c-5.085-1.564-9.975-3.716-14.669-6.062l-23.08,17.407
		c-1.173,0.978-2.542,1.369-3.911,1.369c-1.564,0-2.934-0.587-4.107-1.565c-5.085-4.693-28.165-25.817-28.165-31.294
		c0-1.368,0.587-2.542,1.369-3.716c5.672-7.628,11.54-14.669,17.016-22.297c-2.542-5.281-4.89-10.562-6.65-16.038l-29.729-4.498
		c-2.738-0.588-4.694-3.13-4.694-5.868V176.646z M266.824,245.101c27.578,0,50.07-22.492,50.07-50.07s-22.492-50.07-50.07-50.07
		s-50.07,22.493-50.07,50.07S239.246,245.101,266.824,245.101z"/>
</g>
<g>
	<path fill="#FFDC8A" d="M239.56,154.499l-78.36,167.894c-1.161,2.176-3.482,3.627-6.095,3.627c-0.58,0-1.306-0.145-2.031-0.289
		c-3.192-1.016-5.079-4.064-4.354-7.111l28.587-117.25l-58.915,14.656c-0.581,0.146-1.161,0.146-1.741,0.146
		c-1.597,0-3.338-0.582-4.499-1.598c-1.741-1.451-2.321-3.627-1.886-5.658l29.167-119.717c0.726-2.757,3.338-4.644,6.385-4.644
		h47.597c3.628,0,6.53,2.757,6.53,6.095c0,0.87-0.291,1.741-0.726,2.612l-24.814,67.187l57.464-14.222
		c0.581-0.145,1.161-0.29,1.741-0.29c1.887,0,3.628,0.871,4.934,2.177C240.14,149.855,240.575,152.322,239.56,154.499z"/>
</g>
</svg>
