<?xml version="1.0" encoding="utf-8"?>
<!-- Generator: Adobe Illustrator 16.0.0, SVG Export Plug-In . SVG Version: 6.00 Build 0)  -->
<!DOCTYPE svg PUBLIC "-//W3C//DTD SVG 1.1//EN" "http://www.w3.org/Graphics/SVG/1.1/DTD/svg11.dtd">
<svg version="1.1" id="Capa_1" xmlns="http://www.w3.org/2000/svg" xmlns:xlink="http://www.w3.org/1999/xlink" x="0px" y="0px"
	 width="32px" height="20.555px" viewBox="0 0 32 20.555" enable-background="new 0 0 32 20.555" xml:space="preserve">
<g id="Fondo_1_" display="none">
	<rect id="Fondo" x="-474.099" y="-1922.245" display="inline" fill="#FB6E92" width="1000" height="2438.353"/>
</g>
<g id="Guias" display="none">
</g>
<g display="none" opacity="0.2">
	<path display="inline" fill="#FFFFFF" d="M-64.089-445.725c-11.282,3.638-35.885,28.281-38.51,36.153
		c-2.621,7.852,12.065,36.154,18.865,37.705c6.793,1.59,56.584-20.436,58.154-28.284C-24.009-408.021-52.807-449.403-64.089-445.725
		z"/>
	<path display="inline" fill="#FFFFFF" d="M38.879-525.883c-10.498,0.492-88.546,59.726-88.034,69.146
		c0.519,9.423,29.36,46.629,37.729,47.951c8.363,1.301,70.221-78.341,72.307-88.814C62.967-508.095,49.352-526.422,38.879-525.883z"
		/>
	<path display="inline" fill="#FFFFFF" d="M353.814-812.327c-10.934-15.146-35.498-16.26-56.115-3.016
		c-7.87-4.011-17.023-7.233-27.768-9.217c0,0-391.394,317.517-477.854,378.833c0,0-3.302,7.003-8.776,18.407
		c98.109,68.715,86.957,120.568,86.957,120.568c-27.149-66.916-95.885-102.037-95.905-102.037
		c-24.626,50.699-68.835,139.307-92.308,172.114c0,0-0.04,18.015,22.025,29.479c0,0,150.072-101.022,193.329-109.639
		c0,0,23.883-23.283,60.697-58.922c-20.121,10.308-43.197,20.062-52.827,20.657c-16.772,1.055-36.153-39.437-34.583-53.774
		S24.207-548.447,46.725-546.857c22.541,1.57,29.875,22.52,30.413,37.727c0.205,6.548-13.653,26.546-30.413,48.012
		c113.26-108.668,256.185-243.842,297.086-273.84c0,0,0.414-10.661-3.141-24.688C358.355-774.995,364.369-797.659,353.814-812.327z
		 M-261.59-229.73c0,0-2.542-32.478-33.638-43.816C-295.228-273.549-243-297.184-261.59-229.73z"/>
</g>
<path display="none" opacity="0.5" fill="#71C8EA" enable-background="new    " d="M1306.957-496.067l3.333,3.333
	c0,0,17-13.666,32.5-11.833c0,0,21-27.999,50-37.833c0,0,17.667-9.834,7.167-30.667s-24.327-12.937-31.167-8
	c-9.583,6.916-39.771,40.322-51.5,56.333C1317.29-524.734,1320.79-508.4,1306.957-496.067z"/>
<path fill="#FFFFFF" d="M0-5.288c0-1.469,4.546-5.525,6.06-5.525c1.515,0,16.217,20.853,17.288,20.853
	c1.067,0,16.619-20.853,18.002-20.853c1.38,0,7.483,6.772,7.483,8.02c0,1.249-24.101,23.349-25.662,23.349
	C21.61,20.555,0-3.818,0-5.288z"/>
</svg>
