<?xml version="1.0" encoding="utf-8"?>
<!-- Generator: Adobe Illustrator 16.0.0, SVG Export Plug-In . SVG Version: 6.00 Build 0)  -->
<!DOCTYPE svg PUBLIC "-//W3C//DTD SVG 1.1//EN" "http://www.w3.org/Graphics/SVG/1.1/DTD/svg11.dtd">
<svg version="1.1" id="Capa_1" xmlns="http://www.w3.org/2000/svg" xmlns:xlink="http://www.w3.org/1999/xlink" x="0px" y="0px"
	 width="400px" height="400px" viewBox="0 0 400 400" enable-background="new 0 0 400 400" xml:space="preserve">
<path fill="#2E161A" d="M229.835,43.642c-0.56-0.168-1.12-0.334-1.69-0.466l-5.633-1.292l1.289,5.634
	c0.131,0.565,0.213,1.125,0.291,1.691c0.131,0.917,0.191,1.71,0.191,2.434v153.496c0,10.145-8.254,18.397-18.398,18.397H52.387
	c-0.716,0-1.512-0.062-2.434-0.19c-0.563-0.078-1.124-0.166-1.688-0.291l-5.631-1.293l1.292,5.631
	c0.132,0.575,0.295,1.137,0.466,1.698C47.669,239.982,57.519,247.3,68.91,247.3h153.498c14.14,0,25.645-11.505,25.645-25.646V68.157
	C248.047,56.771,240.729,46.919,229.835,43.642z M240.8,221.654c0,10.143-8.256,18.397-18.397,18.397H68.904
	c-6.738,0-12.74-3.52-15.976-9.271h152.957c14.141,0,25.645-11.504,25.645-25.646V52.181c5.752,3.241,9.271,9.243,9.271,15.979
	L240.8,221.654L240.8,221.654z"/>
<polygon fill="#2E161A" points="136.207,126.879 136.543,126.879 137.955,126.879 139.375,126.879 136.372,112.865 136.301,112.514 
	136.207,112.996 136.207,113.315 136.207,113.637 134.786,120.252 133.373,126.879 134.786,126.879 "/>
<path fill="#2E161A" d="M142.033,133.613h-2.747h-2.742h-0.336h-2.743h-2.754l-10.35,28.731c0,0,0.245-0.138,0.682-0.346
	c0.007,0,0.019-0.009,0.035-0.017c0.448-0.215,1.107-0.518,1.935-0.845c0.017-0.01,0.035-0.017,0.054-0.027
	c0.315-0.126,0.669-0.251,1.031-0.385c0.038-0.017,0.074-0.031,0.111-0.041c0.327-0.121,0.662-0.235,1.014-0.346
	c0.206-0.065,0.417-0.133,0.632-0.194c0.26-0.08,0.501-0.155,0.771-0.235c0.493-0.145,1.003-0.276,1.544-0.411
	c1.795-0.426,3.823-0.765,5.987-0.881c0.67-0.031,1.351-0.058,2.045-0.046c0.056,0,0.114-0.007,0.165,0c0.056-0.007,0.116,0,0.167,0
	c0.69-0.015,1.365,0.015,2.047,0.046c1.44,0.083,2.837,0.257,4.127,0.484c0.012,0.01,0.022,0.01,0.042,0.01
	c0.629,0.121,1.225,0.256,1.817,0.387c0.53,0.135,1.053,0.266,1.544,0.411c0.271,0.078,0.511,0.155,0.763,0.235
	c0.218,0.061,0.431,0.128,0.634,0.194c0.354,0.111,0.697,0.225,1.012,0.346c0.042,0.01,0.073,0.024,0.116,0.041
	c0.371,0.136,0.722,0.259,1.041,0.385c0.02,0.01,0.039,0.017,0.051,0.027c0.83,0.327,1.484,0.629,1.937,0.845
	c0.01,0.007,0.017,0.017,0.036,0.017c0.436,0.208,0.673,0.346,0.673,0.346l-5.17-14.368L142.033,133.613z"/>
<path fill="#2E161A" d="M202.346,11.837H25.572c-5.745,0-10.403,4.658-10.403,10.405v176.776c0,5.746,4.658,10.403,10.403,10.403
	h3.883h2.871h15.615h2.75H202.35c5.741,0,10.403-4.657,10.403-10.403V46.961v-2.752V28.496v-2.855V22.24
	C212.754,16.495,208.092,11.837,202.346,11.837z M56.469,80.259c-3.096,0-6-0.801-8.531-2.194
	c-5.463-3.014-9.163-8.821-9.163-15.498c0-9.773,7.923-17.697,17.693-17.697c1.911,0,3.746,0.312,5.468,0.87
	c7.095,2.308,12.227,8.961,12.227,16.827C74.167,72.334,66.243,80.259,56.469,80.259z M187.475,198.607l-12.432-0.271
	c0,0-1.68-7.755-7.169-15.52c-5.482-7.753-14.785-15.511-30.014-15.511c-0.232,0-0.455,0-0.67,0.017
	c-0.225,0.007-0.438,0.02-0.651,0.024c-0.053,0.007-0.111,0.007-0.169,0.007c-0.053,0-0.109,0-0.165-0.007
	c-0.216-0.005-0.438-0.017-0.651-0.024c-0.223-0.017-0.448-0.017-0.67-0.017c-15.232,0-24.529,7.758-30.016,15.511
	c-5.493,7.765-7.179,15.52-7.179,15.52l-12.419,0.271l-12.435,0.259c0,0,13.26-4.959,27.058-24.115
	c13.798-19.16,28.142-52.519,30.311-109.33c-0.927-0.532-1.689-1.189-2.221-1.948c-0.53-0.75-0.818-1.588-0.818-2.479v-5.361v-5.355
	c0-1.537,0.875-2.923,2.308-3.956c1.423-1.041,3.41-1.722,5.625-1.829l0.02-11.471l0.01-11.472h0.585h0.586h0.15h0.583h0.586
	l0.009,11.472l0.01,11.471c2.225,0.106,4.202,0.788,5.632,1.829c1.433,1.033,2.307,2.421,2.307,3.956v5.355v5.359
	c0,0.893-0.295,1.73-0.826,2.479c-0.523,0.759-1.288,1.416-2.217,1.948c2.169,56.811,16.518,90.17,30.316,109.328
	c13.794,19.158,27.056,24.118,27.056,24.118L187.475,198.607z"/>
<g id="Layer_3">
</g>
<g id="Layer_4">
	<g>
		<path fill="#3A75B2" d="M388.39,187.162L263.525,164.1c-4.295-0.793-8.168,1.247-8.924,5.336l-3.211,17.391l12.071,2.229
			l2.787-15.09l0,0l0,0l117.704,21.739l-0.258,1.395l-16.465,89.146l-6.037-1.115l-2.229,12.072l8.801,1.625
			c4.298,0.794,7.11-3.275,7.866-7.373l17.801-96.377C394.188,190.988,392.688,187.956,388.39,187.162z"/>
		<path fill="#3A75B2" d="M366.029,208l-102.566-18.943l-12.072-2.229l-24.123-4.456c-4.787-0.884-9.646,1.426-10.483,5.953
			l-3.05,16.516l12.072,2.229l2.229-12.072l21.126,3.902l12.071,2.229l99.596,18.395l-11.705,63.379l-2.23,12.072l-4.459,24.145
			l-6.034-1.115l-2.23,12.072l9.007,1.664c4.787,0.884,9.922-2.764,10.762-7.309l5.028-27.229l2.229-12.072l12.525-67.82
			C374.558,212.782,370.815,208.884,366.029,208z"/>
		
			<rect x="320.049" y="316.502" transform="matrix(0.9834 0.1816 -0.1816 0.9834 64.024 -54.1378)" fill="#3A75B2" width="15.346" height="12.278"/>
		<path fill="#3A75B2" d="M336.398,318.003l14.213-76.957c1.05-5.683-2.22-11.336-8.214-12.442L225.805,207.07l-12.072-2.229
			l-44.987-8.309c-5.979-1.104-13.257,2.601-14.306,8.282l-24.757,134.045c-1.049,5.684,4.658,10.485,10.636,11.591l173.651,32.071
			c5.995,1.107,10.836-1.748,11.887-7.43l8.312-45.018l-15.09-2.787l-7.246,39.234L148.858,336.42l22.854-123.738l39.233,7.245
			l12.072,2.23l111.667,20.624l-13.378,72.433L336.398,318.003z"/>
		<polygon fill="#3A75B2" points="272.852,287.077 229.957,320.841 210.302,291.014 210.064,289.727 161.067,329.314 
			302.141,355.369 		"/>
		<circle fill="#3A75B2" cx="201.238" cy="255.588" r="15.346"/>
	</g>
</g>
</svg>
