<?xml version="1.0" encoding="utf-8"?>
<!-- Generator: Adobe Illustrator 16.0.0, SVG Export Plug-In . SVG Version: 6.00 Build 0)  -->
<!DOCTYPE svg PUBLIC "-//W3C//DTD SVG 1.1//EN" "http://www.w3.org/Graphics/SVG/1.1/DTD/svg11.dtd">
<svg version="1.1" id="Capa_1" xmlns="http://www.w3.org/2000/svg" xmlns:xlink="http://www.w3.org/1999/xlink" x="0px" y="0px"
	 width="400px" height="400px" viewBox="0 0 400 400" enable-background="new 0 0 400 400" xml:space="preserve">
<g>
	<path fill="#FFFFFF" d="M191.204,376.297L52.266,242.258c-1.78-1.559-50.766-46.313-50.766-99.75
		c0-65.239,39.855-104.204,106.431-104.204c38.964,0,75.48,30.727,93.069,48.094c17.591-17.367,54.105-48.094,93.072-48.094
		c66.572,0,106.428,38.965,106.428,104.204c0,53.437-48.983,98.191-50.987,100.195L210.798,376.297
		c-2.673,2.673-6.235,4.008-9.798,4.008C197.438,380.305,193.875,378.97,191.204,376.297z"/>
</g>
<g>
	<path fill="#EA5254" d="M191.502,371.204L56.801,241.252c-1.726-1.511-49.217-44.9-49.217-96.707
		c0-63.249,38.64-101.027,103.185-101.027c37.777,0,73.178,29.79,90.231,46.628c17.054-16.838,52.455-46.628,90.233-46.628
		c64.542,0,103.183,37.777,103.183,101.027c0,51.807-47.49,95.196-49.433,97.14l-134.485,129.52
		c-2.59,2.592-6.043,3.886-9.498,3.886C197.547,375.09,194.093,373.796,191.502,371.204z"/>
</g>
<g>
	<path fill="#FFFFFF" d="M143.03,197.762h-12.138c-9.05,0-17.564-4.343-17.564-14.401c0-7.326-0.27-31.959,11.228-31.959
		c1.9,0,11.319,7.697,23.543,7.697c4.165,0,8.151-0.728,12.046-2.086c-0.278,1.994-0.456,3.986-0.456,5.98
		c0,8.237,2.626,16.395,7.333,23.18C157.604,186.45,149.096,190.516,143.03,197.762z M148.1,151.401
		c-12.765,0-23.18-10.416-23.18-23.181c0-12.765,10.415-23.18,23.18-23.18c12.765,0,23.18,10.416,23.18,23.18
		C171.28,140.986,160.864,151.401,148.1,151.401z M239.825,267.304h-79.139c-14.488,0-24.177-8.777-24.177-23.458
		c0-20.46,4.799-51.878,31.332-51.878c3.076,0,14.303,12.58,32.415,12.58c18.111,0,29.339-12.58,32.414-12.58
		c26.534,0,31.333,31.418,31.333,51.878C264.003,258.526,254.313,267.304,239.825,267.304z M200.256,197.762
		c-19.194,0-34.771-15.577-34.771-34.77c0-19.195,15.577-34.771,34.771-34.771c19.194,0,34.771,15.577,34.771,34.771
		C235.026,182.186,219.45,197.762,200.256,197.762z M252.413,151.401c-12.767,0-23.182-10.416-23.182-23.181
		c0-12.765,10.415-23.18,23.182-23.18c12.765,0,23.18,10.416,23.18,23.18C275.593,140.986,265.178,151.401,252.413,151.401z
		 M269.619,197.762h-12.138c-6.066-7.246-14.573-11.312-23.993-11.59c4.706-6.785,7.333-14.943,7.333-23.18
		c0-1.994-0.178-3.986-0.455-5.98c3.895,1.358,7.881,2.086,12.047,2.086c12.224,0,21.641-7.697,23.543-7.697
		c11.498,0,11.227,24.634,11.227,31.959C287.183,193.419,278.669,197.762,269.619,197.762z"/>
</g>
</svg>
