<?xml version="1.0" encoding="utf-8"?>
<!-- Generator: Adobe Illustrator 16.0.0, SVG Export Plug-In . SVG Version: 6.00 Build 0)  -->
<!DOCTYPE svg PUBLIC "-//W3C//DTD SVG 1.1//EN" "http://www.w3.org/Graphics/SVG/1.1/DTD/svg11.dtd">
<svg version="1.1" id="Capa_1" xmlns="http://www.w3.org/2000/svg" xmlns:xlink="http://www.w3.org/1999/xlink" x="0px" y="0px"
	 width="400px" height="400px" viewBox="0 0 400 400" enable-background="new 0 0 400 400" xml:space="preserve">
<path fill="#3A76B3" d="M400,388c0,6.627-5.373,12-12,12H12c-6.627,0-12-5.373-12-12V12C0,5.373,5.373,0,12,0h376
	c6.627,0,12,5.373,12,12V388z"/>
<g>
	<polyline fill="#EA5254" points="207.847,349.37 2.063,165.505 100.196,104.778 298.134,103.812 397.937,165.505 	"/>
	<polyline fill="#FFDC8A" points="206.664,329.94 25.856,168.39 112.08,115.035 285.993,114.186 373.684,168.39 	"/>
	<g>
		<path fill="#EA5254" d="M221.569,113.356c8.318,0,15.904,0.734,22.756,2.202c6.854,1.468,12.725,3.875,17.619,7.215
			c4.893,3.344,8.686,7.79,11.377,13.332c2.693,5.545,4.039,12.394,4.039,20.545c0,8.808-2,16.145-5.996,22.014
			c-3.998,5.871-9.908,10.682-17.74,14.434c10.768,3.099,18.801,8.52,24.104,16.263c5.297,7.75,7.951,17.087,7.951,28.007
			c0,8.809-1.711,16.433-5.137,22.872c-3.428,6.442-8.037,11.701-13.826,15.774c-5.793,4.081-12.4,7.094-19.82,9.051
			c-7.426,1.957-15.049,2.936-22.881,2.936h-84.664V113.356H221.569z M216.677,184.047c6.852,0,12.479-1.628,16.881-4.893
			c4.406-3.26,6.607-8.562,6.607-15.899c0-4.075-0.732-7.418-2.201-10.028c-1.469-2.607-3.424-4.647-5.875-6.115
			c-2.443-1.466-5.258-2.484-8.439-3.057c-3.182-0.568-6.486-0.856-9.91-0.856h-35.971v40.849H216.677z M218.878,258.158
			c3.75,0,7.342-0.364,10.768-1.101c3.424-0.733,6.441-1.954,9.053-3.669c2.607-1.713,4.686-4.034,6.24-6.971
			c1.547-2.933,2.324-6.686,2.324-11.25c0-8.967-2.531-15.367-7.588-19.203c-5.059-3.828-11.742-5.749-20.062-5.749h-41.844v47.942
			H218.878z"/>
	</g>
</g>
</svg>
